<?xml version="1.0" standalone="no"?>
<!DOCTYPE svg PUBLIC "-//W3C//DTD SVG 1.1//EN" "http://www.w3.org/Graphics/SVG/1.1/DTD/svg11.dtd" >
<svg xmlns="http://www.w3.org/2000/svg" xmlns:xlink="http://www.w3.org/1999/xlink" version="1.1">
<metadata>
Created by FontForge 20190801 at Thu Nov 11 15:46:18 2004
 By Jimmy Wärting
Copyright 1997, 2002 International Typeface Corporation. All rights reserved. "ITC" is a trademark of International Typeface Corporation Registered in the U.S. Patent and Trademark Office and may be registered in certain jurisdictions;"Conduit" is a trademark of International Typeface Corporation and may be registered in certain jurisdictions.
</metadata>
<defs>
<font id="ConduitITCStd-Regular" horiz-adv-x="502" >
  <font-face 
    font-family="ConduitITCStd"
    font-weight="400"
    font-stretch="normal"
    units-per-em="1000"
    panose-1="2 0 6 6 4 0 0 2 0 4"
    ascent="800"
    descent="-200"
    x-height="445"
    cap-height="630"
    bbox="-70.5505 -250 1230 801"
    underline-thickness="20"
    underline-position="-133"
    stemh="69"
    stemv="79"
    unicode-range="U+0020-FB04"
  />
<missing-glyph horiz-adv-x="500" 
d="M12 0v665h475v-665h-475zM88 618l162 -243l161 243h-323zM60 575v-484c0 -1 161 242 161 242zM440 575l-162 -242l162 -243v485zM411 48l-161 242l-162 -242h323z" />
    <glyph glyph-name="f_i" unicode="fi" horiz-adv-x="488" 
d="M432 591c0 -27 -22 -50 -50 -50s-49 22 -49 50c0 27 22 49 49 49c28 0 50 -21 50 -49zM422 10c0 -7 -3 -10 -10 -10h-59c-7 0 -10 3 -10 10v426c0 7 3 10 10 10h59c7 0 10 -3 10 -10v-426zM250 342c0 -7 -3 -10 -10 -10h-72c-7 0 -10 -3 -10 -10v-312
c0 -7 -3 -10 -10 -10h-58c-7 0 -10 3 -10 10v312c0 7 -3 10 -10 10h-26c-7 0 -10 3 -10 10v48c0 7 3 10 10 10h26c7 0 10 3 10 10v53c0 57 26 107 69 140c25 18 56 31 90 36c7 1 11 -2 11 -10v-49c0 -5 -3 -9 -8 -10c-51 -10 -84 -50 -84 -97v-63c0 -7 3 -10 10 -10h72
c7 0 10 -3 10 -10v-48z" />
    <glyph glyph-name="f_l" unicode="fl" horiz-adv-x="488" 
d="M422 10c0 -7 -3 -10 -10 -10h-59c-7 0 -10 3 -10 10v541c0 7 -3 10 -10 10h-77c-54 0 -98 -44 -98 -98v-53c0 -7 3 -10 10 -10h72c7 0 10 -3 10 -10v-48c0 -7 -3 -10 -10 -10h-72c-7 0 -10 -3 -10 -10v-312c0 -7 -3 -10 -10 -10h-58c-7 0 -10 3 -10 10v312
c0 7 -3 10 -10 10h-26c-7 0 -10 3 -10 10v48c0 7 3 10 10 10h26c7 0 10 3 10 10v43c0 98 78 177 176 177h156c7 0 10 -3 10 -10v-610z" />
    <glyph glyph-name="f_f" unicode="ff" horiz-adv-x="533" 
d="M567 625l-17 -48c-2 -4 -4 -7 -9 -7c-9 1 -14 1 -21 1c-54 0 -98 -43 -98 -98v-63c0 -7 3 -10 10 -10h71c7 0 10 -3 10 -10v-48c0 -7 -3 -10 -10 -10h-71c-7 0 -10 -3 -10 -10v-312c0 -7 -3 -10 -10 -10h-59c-7 0 -10 3 -10 10v312c0 7 -3 10 -10 10h-165
c-7 0 -10 -3 -10 -10v-312c0 -7 -3 -10 -10 -10h-58c-7 0 -10 3 -10 10v312c0 7 -3 10 -10 10h-26c-7 0 -10 3 -10 10v48c0 7 3 10 10 10h26c7 0 10 3 10 10v53c0 98 78 177 176 177c60 0 95 -19 122 -43c7 -6 17 -7 24 -1c34 29 75 44 118 44c13 0 24 -1 39 -2
c8 -1 11 -6 8 -13zM349 513c1 3 -1 6 -2 8c-23 32 -57 50 -91 50c-54 0 -98 -43 -98 -98v-63c0 -7 3 -10 10 -10h165c7 0 10 3 10 10v53c0 17 0 33 6 50z" />
    <glyph glyph-name="f_f_i" unicode="ffi" horiz-adv-x="752" 
d="M696 591c0 -27 -22 -50 -50 -50s-49 22 -49 50s21 49 49 49s50 -21 50 -49zM686 10c0 -7 -3 -10 -10 -10h-59c-7 0 -10 3 -10 10v426c0 7 3 10 10 10h59c7 0 10 -3 10 -10v-426zM513 342c0 -7 -3 -10 -10 -10h-71c-7 0 -10 -3 -10 -10v-312c0 -7 -3 -10 -10 -10h-59
c-7 0 -10 3 -10 10v312c0 7 -3 10 -10 10h-165c-7 0 -10 -3 -10 -10v-312c0 -7 -3 -10 -10 -10h-58c-7 0 -10 3 -10 10v312c0 7 -3 10 -10 10h-26c-7 0 -10 3 -10 10v48c0 7 3 10 10 10h26c7 0 10 3 10 10v53c0 98 78 177 176 177c60 0 95 -19 122 -43c8 -7 15 -8 24 -1
c14 12 30 22 47 29c16 7 34 12 53 14c8 1 11 -2 11 -10v-50c0 -5 -3 -9 -8 -10c-51 -10 -83 -49 -83 -96v-63c0 -7 3 -10 10 -10h71c7 0 10 -3 10 -10v-48zM349 513c1 3 -1 6 -2 8c-23 32 -57 50 -91 50c-54 0 -98 -43 -98 -98v-63c0 -7 3 -10 10 -10h165c7 0 10 3 10 10v53
c0 17 0 33 6 50z" />
    <glyph glyph-name="f_f_l" unicode="ffl" horiz-adv-x="751" 
d="M685 10c0 -7 -3 -10 -10 -10h-59c-7 0 -10 3 -10 10v541c0 7 -3 10 -10 10h-76c-54 0 -98 -44 -98 -98v-53c0 -7 3 -10 10 -10h71c7 0 10 -3 10 -10v-48c0 -7 -3 -10 -10 -10h-71c-7 0 -10 -3 -10 -10v-312c0 -7 -3 -10 -10 -10h-59c-7 0 -10 3 -10 10v312
c0 7 -3 10 -10 10h-165c-7 0 -10 -3 -10 -10v-312c0 -7 -3 -10 -10 -10h-58c-7 0 -10 3 -10 10v312c0 7 -3 10 -10 10h-26c-7 0 -10 3 -10 10v48c0 7 3 10 10 10h26c7 0 10 3 10 10v53c0 98 78 177 176 177c68 0 104 -23 133 -53c4 -5 8 -5 13 -1c35 29 74 44 118 44h155
c7 0 10 -3 10 -10v-610zM350 508c1 2 1 6 0 8c-21 35 -59 55 -94 55c-54 0 -98 -43 -98 -98v-63c0 -7 3 -10 10 -10h165c7 0 10 3 10 10v43c0 18 0 36 7 55z" />
    <glyph glyph-name=".notdef" horiz-adv-x="500" 
d="M12 0v665h475v-665h-475zM88 618l162 -243l161 243h-323zM60 575v-484c0 -1 161 242 161 242zM440 575l-162 -242l162 -243v485zM411 48l-161 242l-162 -242h323z" />
    <glyph glyph-name="space" unicode=" " horiz-adv-x="175" 
 />
    <glyph glyph-name="exclam" unicode="!" horiz-adv-x="289" 
d="M184 364l-21 -171c-1 -6 -4 -9 -10 -9h-16c-6 0 -9 3 -10 9l-22 171v256c0 7 3 10 10 10h59c7 0 10 -3 10 -10v-256zM197 40c0 -29 -23 -52 -53 -52c-28 0 -52 23 -52 52c0 28 23 52 52 52s53 -22 53 -52z" />
    <glyph glyph-name="quotedbl" unicode="&#x22;" horiz-adv-x="274" 
d="M251 621l-19 -155c-1 -6 -4 -9 -10 -9h-21c-6 0 -9 3 -10 9l-21 155c-1 7 3 11 10 11h61c7 0 11 -4 10 -11zM119 621l-20 -155c-1 -6 -4 -9 -10 -9h-21c-6 0 -9 3 -10 9l-21 155c-1 7 3 11 10 11h62c7 0 11 -4 10 -11z" />
    <glyph glyph-name="numbersign" unicode="#" horiz-adv-x="555" 
d="M517 436l-13 -48c-2 -7 -6 -10 -13 -10h-63c-5 0 -9 -1 -10 -6l-30 -107c-2 -7 1 -13 10 -13h66c7 0 9 -3 7 -10l-13 -48c-2 -7 -6 -10 -13 -10h-73c-5 0 -9 -1 -10 -6l-48 -171c-1 -5 -5 -7 -10 -7h-33c-9 0 -12 5 -10 13l44 159c2 7 -1 12 -10 12h-117
c-5 0 -9 -1 -10 -6l-49 -171c-1 -5 -5 -7 -10 -7h-33c-9 0 -12 5 -10 13l45 159c2 7 -1 12 -10 12h-57c-7 0 -9 3 -7 10l13 48c2 7 6 10 13 10h63c5 0 9 3 10 8l30 106c2 7 -1 12 -10 12h-65c-7 0 -9 3 -7 10l13 48c2 7 6 10 13 10h72c5 0 9 3 10 8l48 169c1 5 5 7 10 7h33
c9 0 12 -5 10 -13l-44 -158c-2 -7 1 -13 10 -13h117c5 0 9 3 10 8l49 169c1 5 5 7 10 7h33c9 0 12 -5 10 -13l-45 -158c-2 -7 1 -13 10 -13h57c7 0 9 -3 7 -10zM360 366c2 7 -1 12 -10 12h-117c-5 0 -9 -1 -10 -6l-30 -107c-2 -7 1 -13 10 -13h118c5 0 9 3 10 8z" />
    <glyph glyph-name="dollar" unicode="$" 
d="M437 157c0 -90 -60 -155 -158 -166c-6 -1 -8 -4 -8 -10v-32c0 -7 -3 -10 -10 -10h-26c-7 0 -10 3 -10 10v31c0 7 -2 10 -8 10c-55 0 -92 15 -119 38c-17 15 -30 33 -40 52c-3 6 -1 10 5 13l52 27c6 3 10 0 13 -5c21 -37 56 -56 88 -56c7 0 9 3 9 10v211c0 4 -2 7 -6 9
c-76 35 -152 75 -152 184c0 88 55 153 149 166c6 1 9 4 9 10v32c0 7 3 10 10 10h26c7 0 10 -3 10 -10v-31c0 -6 2 -9 8 -10c40 -4 70 -17 93 -33c21 -16 36 -35 47 -55c3 -6 1 -11 -5 -14l-52 -26c-5 -3 -10 -2 -13 3c-17 28 -40 46 -66 53c-7 2 -12 -1 -12 -10v-193
c0 -4 2 -7 6 -9c79 -36 160 -80 160 -199zM225 397v158c0 9 -5 13 -14 10c-42 -14 -66 -51 -66 -92c0 -37 23 -61 65 -85c9 -5 15 -1 15 9zM358 157c0 45 -27 74 -72 99c-9 5 -15 1 -15 -9v-175c0 -8 3 -12 11 -10c46 12 76 50 76 95z" />
    <glyph glyph-name="percent" unicode="%" horiz-adv-x="482" 
d="M224 445c0 -50 -35 -85 -90 -85s-90 35 -90 85v100c0 50 35 85 90 85s90 -35 90 -85v-100zM398 616l-261 -610c-2 -4 -5 -6 -9 -6h-24c-9 0 -13 5 -9 14l261 610c2 4 5 6 9 6h24c9 0 13 -5 9 -14zM449 85c0 -50 -35 -85 -90 -85s-90 35 -90 85v100c0 50 35 85 90 85
s90 -35 90 -85v-100zM172 445v100c0 20 -17 38 -38 38c-20 0 -37 -17 -37 -38v-100c0 -20 16 -37 37 -37c20 0 38 16 38 37zM397 85v100c0 20 -17 38 -38 38c-20 0 -37 -17 -37 -38v-100c0 -20 16 -37 37 -37c20 0 38 16 38 37z" />
    <glyph glyph-name="ampersand" unicode="&#x26;" horiz-adv-x="617" 
d="M597 1c0 -7 -4 -11 -11 -10c-34 4 -62 13 -88 27c-24 13 -46 29 -66 48c-6 5 -10 4 -14 -2c-29 -43 -73 -74 -151 -74h-31c-108 0 -177 67 -177 175v26c0 40 30 96 71 119c8 4 9 11 2 17c-45 38 -72 75 -73 134c-1 108 66 179 177 179c108 0 177 -69 177 -177v-20
c0 -39 -30 -100 -94 -125c-8 -3 -12 -12 -2 -19c23 -17 41 -34 74 -68c7 -7 14 -6 17 4c24 79 84 119 167 119h12c7 0 10 -3 10 -10v-58c0 -7 -3 -10 -10 -10h-20c-54 0 -81 -42 -99 -98l-6 -19c-1 -5 1 -9 4 -12c40 -40 83 -66 124 -76c5 -1 7 -5 7 -10v-60zM335 453v20
c0 54 -45 98 -99 98s-98 -43 -98 -98c0 -50 39 -86 85 -117c4 -2 7 -5 11 -5c47 3 101 45 101 102zM365 128c1 2 1 6 -1 9c-32 39 -60 73 -90 96c-21 16 -44 28 -69 44c-3 2 -7 2 -10 1c-34 -18 -57 -50 -57 -90v-31c0 -53 43 -98 98 -98h31c36 0 78 26 98 69z" />
    <glyph glyph-name="quoteright" unicode="&#x2019;" horiz-adv-x="156" 
d="M127 567c0 -45 -8 -78 -23 -103c-12 -21 -29 -36 -49 -48c-6 -3 -11 -2 -14 4l-11 20c-3 5 -1 10 4 13c20 15 34 40 36 89c0 6 -3 10 -10 10h-12c-7 0 -10 3 -10 10v60c0 7 3 10 10 10h69c7 0 10 -3 10 -10v-55z" />
    <glyph glyph-name="parenleft" unicode="(" horiz-adv-x="337" 
d="M281 -172c0 -7 -4 -11 -11 -10c-34 3 -62 13 -86 28c-47 30 -73 82 -73 148v561c0 66 26 118 74 148c23 15 52 25 85 28c7 1 11 -2 11 -10v-50c0 -5 -3 -9 -8 -10c-51 -10 -83 -49 -83 -96v-581c0 -46 32 -87 83 -97c5 -1 8 -4 8 -10v-49z" />
    <glyph glyph-name="parenright" unicode=")" horiz-adv-x="337" 
d="M226 -6c0 -60 -21 -107 -60 -138c-26 -20 -59 -34 -99 -38c-7 -1 -11 2 -11 10v49c0 5 3 9 8 10c51 10 84 50 84 97v581c0 46 -33 86 -84 96c-5 1 -8 4 -8 10v50c0 7 4 11 11 10c42 -5 77 -19 103 -41c36 -31 56 -77 56 -135v-561z" />
    <glyph glyph-name="asterisk" unicode="*" horiz-adv-x="376" 
d="M351 459l-22 -38c-4 -6 -9 -7 -15 -3l-89 61c-9 6 -17 2 -16 -9l13 -107c1 -7 -3 -11 -10 -11h-45c-7 0 -11 4 -10 11l13 107c1 11 -7 16 -16 9l-86 -61c-6 -4 -11 -4 -15 3l-22 39c-4 6 -2 11 5 14l97 41c10 4 10 13 0 18l-97 44c-7 3 -9 8 -5 14l22 38c4 7 9 8 15 3
l84 -63c9 -7 17 -2 16 9l-11 106c-1 7 3 11 10 11h45c7 0 11 -4 10 -11l-12 -106c-1 -11 7 -16 16 -9l88 63c6 4 11 4 15 -3l22 -38c4 -6 2 -11 -5 -14l-100 -44c-10 -4 -10 -14 0 -18l100 -42c7 -3 9 -8 5 -14z" />
    <glyph glyph-name="plus" unicode="+" 
d="M462 222c0 -7 -3 -10 -10 -10h-164c-7 0 -10 -3 -10 -10v-164c0 -7 -3 -10 -10 -10h-33c-7 0 -10 3 -10 10v164c0 7 -3 10 -10 10h-164c-7 0 -10 3 -10 10v33c0 7 3 10 10 10h164c7 0 10 3 10 10v164c0 7 3 10 10 10h33c7 0 10 -3 10 -10v-164c0 -7 3 -10 10 -10h164
c7 0 10 -3 10 -10v-33z" />
    <glyph glyph-name="comma" unicode="," horiz-adv-x="201" 
d="M156 31c0 -51 -12 -87 -31 -114c-15 -21 -35 -36 -56 -48c-5 -3 -10 -1 -13 5l-12 22c-3 5 -2 10 2 13c22 18 37 41 39 95c0 7 -3 10 -10 10h-13c-7 0 -10 3 -10 10v66c0 7 3 10 10 10h84c7 0 10 -3 10 -10v-59z" />
    <glyph glyph-name="hyphen" unicode="-" horiz-adv-x="259" 
d="M215 194c0 -7 -3 -10 -10 -10h-151c-7 0 -10 3 -10 10v59c0 7 3 10 10 10h151c7 0 10 -3 10 -10v-59z" />
    <glyph glyph-name="period" unicode="." horiz-adv-x="191" 
d="M148 40c0 -29 -23 -52 -53 -52c-28 0 -51 23 -51 52c0 28 22 52 51 52s53 -22 53 -52z" />
    <glyph glyph-name="slash" unicode="/" horiz-adv-x="297" 
d="M310 616l-261 -610c-2 -4 -5 -6 -9 -6h-34c-9 0 -13 5 -9 14l261 610c2 4 5 6 9 6h34c9 0 13 -5 9 -14z" />
    <glyph glyph-name="zero" unicode="0" 
d="M444 157c0 -98 -69 -167 -177 -167h-31c-108 0 -177 68 -177 167v316c0 98 69 167 177 167h31c108 0 177 -68 177 -167v-316zM365 157v316c0 54 -44 98 -98 98h-31c-54 0 -98 -43 -98 -98v-316c0 -53 43 -98 98 -98h31c53 0 98 44 98 98z" />
    <glyph glyph-name="one" unicode="1" 
d="M426 10c0 -7 -3 -10 -10 -10h-304c-7 0 -10 3 -10 10v49c0 7 3 10 10 10h103c7 0 10 3 10 10v392c0 11 -9 15 -17 7l-57 -58c-5 -5 -9 -5 -14 0l-35 36c-5 5 -5 9 0 14l157 157c1 1 5 3 7 3h27c7 0 10 -3 10 -10v-541c0 -7 3 -10 10 -10h103c7 0 10 -3 10 -10v-49z" />
    <glyph glyph-name="two" unicode="2" 
d="M439 473c0 -116 -86 -164 -161 -209c-65 -39 -122 -77 -122 -152v-33c0 -7 3 -10 10 -10h255c7 0 10 -3 10 -10v-49c0 -7 -3 -10 -10 -10h-334c-7 0 -10 3 -10 10v102c0 117 76 173 149 218c70 43 134 76 134 143c0 54 -44 98 -98 98h-39c-33 0 -68 -19 -88 -55
c-3 -5 -8 -7 -13 -4l-53 26c-6 3 -7 8 -4 14c10 19 23 36 40 51c27 22 64 37 118 37h39c108 0 177 -68 177 -167z" />
    <glyph glyph-name="three" unicode="3" 
d="M429 165c0 -108 -70 -175 -178 -175h-30c-53 0 -89 14 -116 35c-19 16 -33 35 -43 55c-3 6 -1 10 5 13l52 27c6 3 10 1 13 -5c20 -37 55 -56 89 -56h30c53 0 99 44 99 98v36c0 53 -45 98 -99 98h-75c-7 0 -10 3 -10 10v48c0 7 3 10 10 10h75c54 0 99 44 99 99v15
c0 54 -45 98 -99 98h-30c-33 0 -68 -18 -89 -55c-3 -5 -7 -8 -13 -5l-53 27c-6 3 -7 8 -4 14c10 20 24 39 43 53c27 21 63 35 116 35h30c108 0 178 -69 178 -177v-15c0 -51 -42 -101 -79 -118c-4 -2 -3 -7 0 -10c34 -17 79 -69 79 -124v-31z" />
    <glyph glyph-name="four" unicode="4" 
d="M482 158c0 -7 -3 -10 -10 -10h-72c-7 0 -10 -3 -10 -10v-128c0 -7 -3 -10 -10 -10h-59c-7 0 -10 3 -10 10v128c0 7 -3 10 -10 10h-254c-7 0 -10 3 -10 10v64l267 404c2 2 5 4 8 4h68c7 0 10 -3 10 -10v-393c0 -7 3 -10 10 -10h72c7 0 10 -3 10 -10v-49zM315 537l-3 1
s-9 -24 -19 -40l-173 -265c-6 -9 -2 -16 8 -16h173c7 0 10 3 10 10v265c0 19 4 45 4 45z" />
    <glyph glyph-name="five" unicode="5" 
d="M439 165c0 -108 -69 -175 -177 -175h-31c-54 0 -91 14 -117 36c-18 15 -31 33 -41 53c-3 6 -2 11 4 14l52 27c6 3 11 1 14 -5c20 -37 54 -56 88 -56h31c53 0 98 44 98 98v36c0 53 -44 98 -98 98h-157c-7 0 -10 3 -10 10v319c0 7 3 10 10 10h314c7 0 10 -3 10 -10v-49
c0 -7 -3 -10 -10 -10h-235c-7 0 -10 -3 -10 -10v-182c0 -7 3 -10 10 -10h78c108 0 177 -66 177 -174v-20z" />
    <glyph glyph-name="six" unicode="6" 
d="M451 157c0 -98 -70 -167 -178 -167h-30c-108 0 -176 68 -176 167v316c0 98 68 167 176 167h30c51 0 88 -14 115 -34c20 -15 34 -34 45 -54c3 -6 1 -11 -5 -14l-52 -26c-5 -3 -10 -2 -13 4c-20 36 -52 55 -90 55h-30c-54 0 -98 -43 -98 -98v-144c0 -11 9 -15 17 -7
c27 30 60 43 92 43h30c93 0 167 -69 167 -167v-41zM372 157v41c0 53 -45 98 -99 98h-30c-54 0 -98 -44 -98 -98v-41c0 -53 44 -98 98 -98h30c54 0 99 44 99 98z" />
    <glyph glyph-name="seven" unicode="7" 
d="M437 518c0 -127 -84 -176 -153 -222c-57 -38 -102 -78 -102 -139v-147c0 -7 -3 -10 -10 -10h-59c-7 0 -10 3 -10 10v147c0 107 68 154 131 197c64 43 124 83 124 164v33c0 7 -3 10 -10 10h-255c-7 0 -10 3 -10 10v49c0 7 3 10 10 10h334c7 0 10 -3 10 -10v-102z" />
    <glyph glyph-name="eight" unicode="8" 
d="M444 165c0 -108 -69 -175 -177 -175h-31c-108 0 -177 67 -177 175v26c0 52 39 101 81 123c4 2 4 8 0 10c-34 17 -81 63 -81 119v20c0 108 69 177 177 177h31c108 0 177 -69 177 -177v-20c0 -51 -42 -100 -79 -118c-4 -2 -4 -8 0 -10c33 -18 79 -69 79 -124v-26zM365 453
v20c0 54 -44 98 -98 98h-31c-54 0 -98 -43 -98 -98v-20c0 -54 43 -99 98 -99h31c54 0 98 44 98 99zM365 157v31c0 53 -44 98 -98 98h-31c-54 0 -98 -44 -98 -98v-31c0 -53 43 -98 98 -98h31c53 0 98 44 98 98z" />
    <glyph glyph-name="nine" unicode="9" 
d="M435 157c0 -98 -70 -167 -178 -167h-30c-59 0 -98 18 -125 44c-14 13 -24 29 -33 46c-3 6 -2 10 4 13l53 27c6 3 10 1 13 -5c19 -37 50 -56 88 -56h30c53 0 99 44 99 98v110c0 11 -11 16 -18 7c-25 -31 -57 -44 -91 -44h-30c-93 0 -166 69 -166 167v76
c0 98 68 167 176 167h30c108 0 178 -68 178 -167v-316zM356 397v76c0 54 -45 98 -99 98h-30c-54 0 -98 -43 -98 -98v-76c0 -53 44 -99 98 -99h30c53 0 99 45 99 99z" />
    <glyph glyph-name="colon" unicode=":" horiz-adv-x="201" 
d="M156 315c0 -29 -24 -52 -53 -52c-28 0 -51 23 -51 52c0 28 22 52 51 52s53 -22 53 -52zM156 40c0 -29 -23 -52 -53 -52c-28 0 -51 23 -51 52c0 28 22 52 51 52s53 -22 53 -52z" />
    <glyph glyph-name="semicolon" unicode=";" horiz-adv-x="201" 
d="M156 315c0 -29 -24 -52 -53 -52c-28 0 -51 23 -51 52c0 28 22 52 51 52s53 -22 53 -52zM156 31c0 -47 -10 -82 -27 -108c-16 -24 -37 -41 -60 -54c-5 -3 -10 -1 -13 5l-12 22c-3 5 -2 10 2 13c22 18 37 41 39 95c0 7 -3 10 -10 10h-13c-7 0 -10 3 -10 10v66
c0 7 3 10 10 10h84c7 0 10 -3 10 -10v-59z" />
    <glyph glyph-name="less" unicode="&#x3c;" 
d="M410 56l-18 -27c-4 -5 -8 -7 -13 -4l-311 179c-3 2 -5 6 -5 9v54c0 3 2 7 5 9l311 181c6 3 10 2 14 -4l17 -28c4 -6 2 -11 -4 -14l-279 -161c-9 -5 -9 -13 0 -18l279 -161c6 -3 8 -9 4 -15z" />
    <glyph glyph-name="equal" unicode="=" 
d="M462 314c0 -7 -3 -10 -10 -10h-401c-7 0 -10 3 -10 10v33c0 7 3 10 10 10h401c7 0 10 -3 10 -10v-33zM462 130c0 -7 -3 -10 -10 -10h-401c-7 0 -10 3 -10 10v33c0 7 3 10 10 10h401c7 0 10 -3 10 -10v-33z" />
    <glyph glyph-name="greater" unicode="&#x3e;" 
d="M440 214c0 -3 -2 -7 -5 -9l-310 -180c-6 -3 -10 -2 -14 4l-17 28c-4 6 -2 11 4 14l278 161c9 5 9 13 0 18l-278 161c-6 3 -8 8 -4 14l17 28c4 6 8 7 14 4l310 -181c3 -2 5 -6 5 -9v-53z" />
    <glyph glyph-name="question" unicode="?" horiz-adv-x="478" 
d="M432 473c0 -111 -67 -137 -120 -162c-42 -20 -77 -39 -77 -91c0 -6 0 -13 2 -25c1 -7 -3 -11 -10 -11h-58c-6 0 -9 2 -10 8c-2 19 -3 32 -3 43c0 88 64 112 117 138c43 22 80 44 80 100c0 54 -44 98 -98 98h-39c-33 0 -68 -18 -89 -55c-3 -5 -7 -8 -13 -5l-53 27
c-6 3 -7 8 -4 14c11 21 25 41 46 56c26 19 62 32 113 32h39c108 0 177 -68 177 -167zM265 40c0 -29 -22 -52 -52 -52c-28 0 -52 23 -52 52c0 28 23 52 52 52s52 -22 52 -52z" />
    <glyph glyph-name="at" unicode="@" horiz-adv-x="705" 
d="M626 247c0 -53 -36 -90 -95 -90h-13c-30 0 -54 11 -71 28c-6 6 -11 5 -18 0c-20 -17 -53 -28 -75 -28c-78 0 -127 48 -127 120v81c0 71 50 120 127 120c18 0 42 -7 58 -17c7 -4 13 -1 13 6v3c0 5 3 8 9 8h38c7 0 10 -3 10 -10v-216c0 -21 15 -37 37 -37h12
c20 0 37 17 37 37v205c0 68 -49 115 -125 115h-176c-76 0 -125 -47 -125 -115v-283c0 -68 49 -115 125 -115h261c7 0 10 -3 10 -10v-39c0 -7 -3 -10 -10 -10h-261c-112 0 -183 72 -183 174v283c0 102 71 173 183 173h176c111 0 183 -71 183 -173v-210zM425 285v65
c0 38 -32 69 -71 69c-38 0 -69 -31 -69 -69v-65c0 -39 30 -70 69 -70c38 0 71 32 71 70z" />
    <glyph glyph-name="A" unicode="A" horiz-adv-x="455" 
d="M446 13c2 -8 -1 -13 -10 -13h-63c-5 0 -9 2 -10 7l-38 135c-1 5 -5 6 -10 6h-180c-5 0 -9 -1 -10 -6l-38 -135c-1 -5 -5 -7 -10 -7h-58c-9 0 -12 5 -10 13l186 610c1 5 5 7 10 7h46c5 0 9 -2 10 -7zM299 230l-57 222c-9 36 -14 72 -14 72h-3s-5 -35 -15 -72l-60 -222
c-2 -7 1 -13 10 -13h129c9 0 12 6 10 13z" />
    <glyph glyph-name="B" unicode="B" horiz-adv-x="511" 
d="M460 176c0 -108 -69 -176 -177 -176h-197c-7 0 -10 3 -10 10v610c0 7 3 10 10 10h197c108 0 177 -69 177 -177v-10c0 -39 -31 -93 -68 -115c-9 -5 -9 -12 -1 -17c34 -21 69 -71 69 -120v-15zM382 453v10c0 53 -44 98 -99 98h-119c-7 0 -10 -3 -10 -10v-187
c0 -7 3 -10 10 -10h119c54 0 99 44 99 99zM382 167v21c0 53 -44 97 -99 97h-119c-7 0 -10 -3 -10 -10v-196c0 -7 3 -10 10 -10h119c54 0 99 43 99 98z" />
    <glyph glyph-name="C" unicode="C" horiz-adv-x="459" 
d="M428 80c-9 -17 -20 -33 -35 -47c-27 -25 -66 -43 -124 -43h-31c-108 0 -177 68 -177 167v316c0 98 69 167 177 167h31c54 0 91 -15 118 -37c18 -15 31 -32 41 -51c3 -6 1 -11 -5 -14l-53 -26c-5 -3 -9 -1 -12 4c-21 35 -56 55 -89 55h-31c-54 0 -98 -43 -98 -98v-316
c0 -53 43 -98 98 -98h31c34 0 68 20 89 57c3 5 8 7 13 4l53 -27c6 -3 7 -7 4 -13z" />
    <glyph glyph-name="D" unicode="D" horiz-adv-x="521" 
d="M460 178c0 -109 -69 -178 -177 -178h-197c-7 0 -10 3 -10 10v610c0 7 3 10 10 10h197c108 0 177 -69 177 -177v-275zM382 167v296c0 53 -44 98 -99 98h-119c-7 0 -10 -3 -10 -10v-472c0 -7 3 -10 10 -10h119c54 0 99 43 99 98z" />
    <glyph glyph-name="E" unicode="E" horiz-adv-x="461" 
d="M430 10c0 -7 -3 -10 -10 -10h-334c-7 0 -10 3 -10 10v610c0 7 3 10 10 10h334c7 0 10 -3 10 -10v-49c0 -7 -3 -10 -10 -10h-256c-7 0 -10 -3 -10 -10v-187c0 -7 3 -10 10 -10h210c7 0 10 -3 10 -10v-49c0 -7 -3 -10 -10 -10h-210c-7 0 -10 -3 -10 -10v-196
c0 -7 3 -10 10 -10h256c7 0 10 -3 10 -10v-49z" />
    <glyph glyph-name="F" unicode="F" horiz-adv-x="431" 
d="M430 571c0 -7 -3 -10 -10 -10h-256c-7 0 -10 -3 -10 -10v-187c0 -7 3 -10 10 -10h210c7 0 10 -3 10 -10v-49c0 -7 -3 -10 -10 -10h-210c-7 0 -10 -3 -10 -10v-265c0 -7 -3 -10 -10 -10h-58c-7 0 -10 3 -10 10v610c0 7 3 10 10 10h334c7 0 10 -3 10 -10v-49z" />
    <glyph glyph-name="G" unicode="G" horiz-adv-x="505" 
d="M446 157c0 -98 -69 -167 -177 -167h-31c-108 0 -177 68 -177 167v316c0 98 69 167 177 167h49c55 0 93 -16 120 -39c17 -14 29 -31 39 -49c3 -6 1 -11 -5 -14l-53 -26c-5 -3 -9 -1 -12 4c-21 36 -56 55 -89 55h-49c-54 0 -98 -43 -98 -98v-316c0 -53 43 -98 98 -98h31
c53 0 98 44 98 98v73c0 7 -3 10 -10 10h-102c-7 0 -10 3 -10 10v49c0 7 3 10 10 10h181c7 0 10 -3 10 -10v-142z" />
    <glyph glyph-name="H" unicode="H" horiz-adv-x="552" 
d="M476 10c0 -7 -3 -10 -10 -10h-59c-7 0 -10 3 -10 10v265c0 7 -3 10 -10 10h-223c-7 0 -10 -3 -10 -10v-265c0 -7 -3 -10 -10 -10h-58c-7 0 -10 3 -10 10v610c0 7 3 10 10 10h58c7 0 10 -3 10 -10v-256c0 -7 3 -10 10 -10h223c7 0 10 3 10 10v256c0 7 3 10 10 10h59
c7 0 10 -3 10 -10v-610z" />
    <glyph glyph-name="I" unicode="I" horiz-adv-x="230" 
d="M154 10c0 -7 -3 -10 -10 -10h-58c-7 0 -10 3 -10 10v610c0 7 3 10 10 10h58c7 0 10 -3 10 -10v-610z" />
    <glyph glyph-name="J" unicode="J" horiz-adv-x="408" 
d="M337 167c0 -104 -72 -177 -177 -177c-51 0 -94 18 -126 48c-13 12 -24 26 -33 42c-4 7 -3 11 4 14l53 26c6 3 9 1 12 -4c20 -36 56 -57 90 -57c53 0 98 44 98 98v463c0 7 3 10 10 10h59c7 0 10 -3 10 -10v-453z" />
    <glyph glyph-name="K" unicode="K" horiz-adv-x="515" 
d="M509 15c5 -8 1 -15 -9 -15h-74c-3 0 -7 2 -9 5l-179 292c-4 6 -10 7 -14 1l-70 -89v-199c0 -7 -3 -10 -10 -10h-58c-7 0 -10 3 -10 10v610c0 7 3 10 10 10h58c7 0 10 -3 10 -10v-282c0 -12 11 -16 18 -6l224 294c2 2 5 4 8 4h68c11 0 15 -8 8 -16l-186 -230
c-6 -7 -6 -13 -1 -20z" />
    <glyph glyph-name="L" unicode="L" horiz-adv-x="436" 
d="M430 10c0 -7 -3 -10 -10 -10h-334c-7 0 -10 3 -10 10v610c0 7 3 10 10 10h58c7 0 10 -3 10 -10v-541c0 -7 3 -10 10 -10h256c7 0 10 -3 10 -10v-49z" />
    <glyph glyph-name="M" unicode="M" horiz-adv-x="644" 
d="M568 10c0 -7 -3 -10 -10 -10h-58c-7 0 -10 3 -10 10v206c0 95 4 181 9 232l-4 1c-4 -15 -15 -48 -25 -70l-126 -281c-2 -4 -5 -6 -9 -6h-27c-4 0 -7 2 -9 6l-125 281c-9 20 -20 50 -25 70l-4 -1c6 -53 9 -135 9 -232v-206c0 -7 -3 -10 -10 -10h-58c-7 0 -10 3 -10 10v610
c0 7 3 10 10 10h55c4 0 7 -2 9 -6l157 -369c3 -6 11 -32 13 -40h3c2 8 11 33 14 40l157 369c2 4 5 6 9 6h55c7 0 10 -3 10 -10v-610z" />
    <glyph glyph-name="N" unicode="N" horiz-adv-x="552" 
d="M476 10c0 -7 -3 -10 -10 -10h-56c-3 0 -7 2 -9 5l-228 414c-7 12 -15 33 -19 47h-3c2 -36 3 -138 3 -244v-212c0 -7 -3 -10 -10 -10h-58c-7 0 -10 3 -10 10v610c0 7 3 10 10 10h55c4 0 7 -2 9 -5l228 -417c5 -9 14 -30 18 -43h3c-1 41 -2 161 -2 240v215c0 7 3 10 10 10
h59c7 0 10 -3 10 -10v-610z" />
    <glyph glyph-name="O" unicode="O" horiz-adv-x="508" 
d="M447 157c0 -98 -69 -167 -177 -167h-31c-108 0 -177 68 -177 167v316c0 98 69 167 177 167h31c108 0 177 -68 177 -167v-316zM368 157v316c0 54 -44 98 -98 98h-31c-54 0 -98 -43 -98 -98v-316c0 -53 43 -98 98 -98h31c53 0 98 44 98 98z" />
    <glyph glyph-name="P" unicode="P" horiz-adv-x="466" 
d="M460 453c0 -95 -69 -168 -177 -168h-119c-7 0 -10 -3 -10 -10v-265c0 -7 -3 -10 -10 -10h-58c-7 0 -10 3 -10 10v610c0 7 3 10 10 10h197c108 0 177 -70 177 -177zM382 453v10c0 53 -44 98 -99 98h-119c-7 0 -10 -3 -10 -10v-187c0 -7 3 -10 10 -10h119c54 0 99 44 99 99
z" />
    <glyph glyph-name="Q" unicode="Q" horiz-adv-x="508" 
d="M447 157c0 -87 -57 -151 -150 -165c-6 -1 -8 -4 -8 -10v-64c0 -7 -3 -10 -10 -10h-49c-7 0 -10 3 -10 10v64c0 6 -4 9 -10 10c-94 14 -148 78 -148 165v316c0 98 69 167 177 167h31c108 0 177 -68 177 -167v-316zM368 157v316c0 54 -44 98 -98 98h-31
c-54 0 -98 -43 -98 -98v-316c0 -40 24 -76 65 -92c9 -4 14 0 14 9v45c0 7 3 10 10 10h49c7 0 10 -3 10 -10v-44c0 -9 5 -12 13 -9c43 16 66 51 66 91z" />
    <glyph glyph-name="R" unicode="R" 
d="M463 13c3 -8 0 -13 -9 -13h-66c-4 0 -8 3 -9 7l-94 272c-1 4 -4 6 -8 6h-113c-7 0 -10 -3 -10 -10v-265c0 -7 -3 -10 -10 -10h-58c-7 0 -10 3 -10 10v610c0 7 3 10 10 10h197c108 0 177 -69 177 -177v-10c0 -52 -47 -115 -91 -134c-5 -2 -7 -6 -5 -11zM382 453v10
c0 53 -44 98 -99 98h-119c-7 0 -10 -3 -10 -10v-187c0 -7 3 -10 10 -10h119c54 0 99 44 99 99z" />
    <glyph glyph-name="S" unicode="S" horiz-adv-x="472" 
d="M425 157c0 -98 -68 -167 -177 -167h-43c-52 0 -88 13 -114 34c-19 15 -33 34 -44 55c-3 6 -2 11 4 14l52 27c6 3 11 1 14 -5c20 -37 54 -56 88 -56h43c54 0 99 43 99 98c0 67 -61 96 -128 126c-77 35 -164 74 -164 190c0 96 71 167 177 167h16c59 0 99 -18 126 -44
c14 -13 24 -28 33 -44c3 -6 1 -11 -5 -14l-53 -26c-5 -3 -9 -1 -12 4c-21 36 -55 55 -89 55h-16c-60 0 -98 -40 -98 -98c0 -60 65 -87 136 -119c75 -34 155 -79 155 -197z" />
    <glyph glyph-name="T" unicode="T" horiz-adv-x="367" 
d="M361 571c0 -7 -3 -10 -10 -10h-118c-7 0 -10 -3 -10 -10v-541c0 -7 -3 -10 -10 -10h-59c-7 0 -10 3 -10 10v541c0 7 -3 10 -10 10h-118c-7 0 -10 3 -10 10v49c0 7 3 10 10 10h335c7 0 10 -3 10 -10v-49z" />
    <glyph glyph-name="U" unicode="U" horiz-adv-x="527" 
d="M456 157c0 -98 -69 -167 -177 -167h-31c-108 0 -177 68 -177 167v463c0 7 3 10 10 10h59c7 0 10 -3 10 -10v-463c0 -53 43 -98 98 -98h31c53 0 98 44 98 98v463c0 7 3 10 10 10h59c7 0 10 -3 10 -10v-463z" />
    <glyph glyph-name="V" unicode="V" horiz-adv-x="454" 
d="M446 617l-186 -610c-1 -5 -5 -7 -10 -7h-45c-5 0 -9 2 -10 7l-186 610c-2 8 1 13 10 13h63c5 0 9 -2 10 -7l124 -443c2 -7 8 -33 10 -41h5c2 8 8 33 10 40l122 444c1 5 5 7 10 7h63c9 0 12 -5 10 -13z" />
    <glyph glyph-name="W" unicode="W" horiz-adv-x="668" 
d="M656 618l-133 -610c-1 -5 -5 -8 -10 -8h-45c-5 0 -9 2 -10 7l-111 379c-6 21 -10 44 -11 54h-2c-1 -10 -6 -33 -12 -54l-112 -379c-1 -5 -5 -7 -10 -7h-45c-5 0 -9 3 -10 8l-132 610c-2 8 2 12 10 12h65c5 0 9 -3 10 -8l78 -408c5 -27 9 -50 10 -65h2c2 15 7 37 14 64
l113 412c1 5 5 7 10 7h23c5 0 9 -2 10 -7l113 -405c6 -23 11 -46 14 -68h2c3 25 7 53 10 69l74 401c1 5 5 8 10 8h65c8 0 12 -4 10 -12z" />
    <glyph glyph-name="X" unicode="X" horiz-adv-x="460" 
d="M438 14c4 -8 0 -14 -9 -14h-74c-4 0 -7 2 -9 6l-105 228c-5 10 -13 10 -18 0l-109 -228c-2 -3 -5 -6 -9 -6h-73c-10 0 -14 6 -9 15l152 289c5 9 4 15 1 21l-153 290c-5 9 -1 15 9 15h73c4 0 7 -3 9 -6l110 -227c5 -10 13 -10 18 0l105 227c2 4 5 6 9 6h73
c9 0 13 -6 9 -14l-150 -288c-4 -8 -4 -16 0 -24z" />
    <glyph glyph-name="Y" unicode="Y" horiz-adv-x="415" 
d="M420 615l-173 -325v-280c0 -7 -3 -10 -10 -10h-59c-7 0 -10 3 -10 10v280l-173 325c-5 9 -1 15 9 15h70c4 0 7 -3 9 -6l116 -240c5 -10 13 -10 18 0l116 240c2 3 5 6 9 6h69c10 0 14 -6 9 -15z" />
    <glyph glyph-name="Z" unicode="Z" horiz-adv-x="409" 
d="M388 10c0 -7 -3 -10 -10 -10h-344c-9 0 -13 6 -9 14l235 533c4 8 0 14 -9 14h-207c-7 0 -10 3 -10 10v49c0 7 3 10 10 10h322c9 0 13 -6 9 -14l-237 -533c-4 -8 0 -14 9 -14h231c7 0 10 -3 10 -10v-49z" />
    <glyph glyph-name="bracketleft" unicode="[" horiz-adv-x="329" 
d="M281 -173c0 -7 -3 -10 -10 -10h-150c-7 0 -10 3 -10 10v895c0 7 3 10 10 10h150c7 0 10 -3 10 -10v-49c0 -7 -3 -10 -10 -10h-71c-7 0 -10 -3 -10 -10v-758c0 -7 3 -10 10 -10h71c7 0 10 -3 10 -10v-48z" />
    <glyph glyph-name="backslash" unicode="\" horiz-adv-x="297" 
d="M310 14c4 -9 0 -14 -9 -14h-34c-4 0 -7 2 -9 6l-261 610c-4 9 0 14 9 14h34c4 0 7 -2 9 -6z" />
    <glyph glyph-name="bracketright" unicode="]" horiz-adv-x="329" 
d="M218 -173c0 -7 -3 -10 -10 -10h-150c-7 0 -10 3 -10 10v48c0 7 3 10 10 10h72c7 0 10 3 10 10v758c0 7 -3 10 -10 10h-72c-7 0 -10 3 -10 10v49c0 7 3 10 10 10h150c7 0 10 -3 10 -10v-895z" />
    <glyph glyph-name="asciicircum" unicode="^" 
d="M454 306h-64l-139 261h-3l-138 -261h-63l186 334h33z" />
    <glyph glyph-name="underscore" unicode="_" horiz-adv-x="192" 
d="M216 -215c0 -7 -3 -10 -10 -10h-210c-7 0 -10 3 -10 10v25c0 7 3 10 10 10h210c7 0 10 -3 10 -10v-25z" />
    <glyph glyph-name="quoteleft" unicode="&#x2018;" horiz-adv-x="156" 
d="M134 646c3 -5 1 -9 -3 -12c-22 -15 -35 -40 -37 -91c0 -7 3 -10 10 -10h11c7 0 10 -3 10 -10v-60c0 -7 -3 -10 -10 -10h-69c-7 0 -10 3 -10 10v55c0 41 7 73 19 97c13 26 32 44 55 57c6 3 11 1 14 -5z" />
    <glyph glyph-name="a" unicode="a" horiz-adv-x="445" 
d="M384 10c0 -7 -3 -10 -10 -10h-48c-7 0 -10 3 -10 10v28c0 11 -10 16 -18 8c-29 -29 -64 -46 -87 -46h-39c-72 0 -130 48 -130 121v6c0 73 58 120 130 120h123c7 0 10 3 10 10v34c0 54 -44 96 -99 96c-33 0 -66 -17 -88 -55c-3 -5 -8 -7 -14 -4l-51 27c-6 3 -8 8 -4 14
c11 18 24 35 41 48c28 23 66 38 116 38c108 0 178 -65 178 -164v-281zM305 148v31c0 7 -3 10 -10 10h-123c-29 0 -52 -23 -52 -52v-16c0 -28 23 -52 52 -52h39c43 0 82 39 94 79z" />
    <glyph glyph-name="b" unicode="b" horiz-adv-x="472" 
d="M421 167c0 -98 -70 -167 -178 -167c-25 0 -62 13 -91 44c-8 8 -17 5 -17 -7v-27c0 -7 -3 -10 -10 -10h-49c-7 0 -10 3 -10 10v610c0 7 3 10 10 10h59c7 0 10 -3 10 -10v-209c0 -11 10 -15 17 -7c27 30 62 42 91 42c93 0 168 -68 168 -166v-113zM342 167v113
c0 53 -45 98 -99 98s-98 -44 -98 -98v-113c0 -53 44 -98 98 -98c53 0 99 44 99 98z" />
    <glyph glyph-name="c" unicode="c" horiz-adv-x="418" 
d="M387 80c-10 -18 -22 -35 -38 -50c-27 -24 -65 -40 -121 -40c-108 0 -177 72 -177 167v133c0 95 69 166 177 166c56 0 94 -16 121 -39c16 -14 28 -30 38 -48c3 -6 1 -11 -5 -14l-53 -27c-5 -3 -9 -1 -12 4c-21 35 -55 56 -89 56c-62 0 -98 -44 -98 -98v-133
c0 -54 36 -98 98 -98c34 0 68 20 89 57c3 5 8 7 13 4l53 -27c6 -3 7 -7 4 -13z" />
    <glyph glyph-name="d" unicode="d" horiz-adv-x="471" 
d="M405 10c0 -7 -3 -10 -10 -10h-48c-7 0 -10 3 -10 10v28c0 11 -10 15 -18 7c-30 -32 -66 -45 -91 -45c-108 0 -177 69 -177 167v113c0 98 73 166 167 166c30 0 65 -12 91 -43c7 -9 17 -5 17 7v210c0 7 3 10 10 10h59c7 0 10 -3 10 -10v-610zM326 167v113
c0 53 -44 98 -98 98s-98 -44 -98 -98v-113c0 -53 44 -98 98 -98c53 0 98 44 98 98z" />
    <glyph glyph-name="e" unicode="e" horiz-adv-x="456" 
d="M405 224c0 -7 -3 -10 -10 -10h-255c-7 0 -10 -3 -10 -10v-47c0 -53 44 -98 98 -98c34 0 68 20 89 57c3 5 8 7 13 4l53 -27c6 -3 7 -7 4 -13c-9 -16 -19 -32 -33 -45c-27 -27 -66 -45 -126 -45c-108 0 -177 68 -177 167v133c0 95 69 166 177 166c106 0 177 -70 177 -166
v-66zM326 283v12c0 51 -41 93 -98 93c-62 0 -98 -44 -98 -98v-11c0 -5 5 -6 10 -6h176c7 0 10 3 10 10z" />
    <glyph glyph-name="f" unicode="f" horiz-adv-x="261" 
d="M303 625l-16 -48c-2 -5 -5 -7 -10 -7c-9 1 -14 1 -21 1c-54 0 -98 -43 -98 -98v-63c0 -7 3 -10 10 -10h72c7 0 10 -3 10 -10v-48c0 -7 -3 -10 -10 -10h-72c-7 0 -10 -3 -10 -10v-312c0 -7 -3 -10 -10 -10h-58c-7 0 -10 3 -10 10v312c0 7 -3 10 -10 10h-26
c-7 0 -10 3 -10 10v48c0 7 3 10 10 10h26c7 0 10 3 10 10v53c0 98 78 177 176 177c13 0 24 -1 39 -2c8 -1 11 -5 8 -13z" />
    <glyph glyph-name="g" unicode="g" horiz-adv-x="437" 
d="M436 -104c0 -74 -58 -121 -131 -121h-138c-72 0 -131 47 -131 121v8c0 39 24 69 59 94c5 4 7 8 4 13c-10 19 -16 34 -16 53c0 23 6 43 20 61c4 5 3 10 -2 14c-42 33 -65 77 -65 131v10c0 98 78 166 177 166c25 0 61 -12 91 -44c8 -8 18 -5 18 7v27c0 7 3 10 10 10h48
c7 0 10 -3 10 -10v-166c0 -98 -78 -167 -177 -167c-9 0 -22 1 -31 2c-16 -7 -31 -23 -31 -41s13 -37 31 -41h123c73 0 131 -46 131 -119v-8zM311 270v10c0 53 -44 98 -98 98s-98 -44 -98 -98v-10c0 -53 44 -98 98 -98c53 0 98 44 98 98zM357 -104v8c0 28 -24 50 -52 50h-138
c-28 0 -52 -21 -52 -50v-8c0 -29 22 -52 52 -52h138c30 0 52 23 52 52z" />
    <glyph glyph-name="h" unicode="h" horiz-adv-x="482" 
d="M421 10c0 -7 -3 -10 -10 -10h-59c-7 0 -10 3 -10 10v270c0 53 -45 98 -99 98s-98 -44 -98 -98v-270c0 -7 -3 -10 -10 -10h-59c-7 0 -10 3 -10 10v610c0 7 3 10 10 10h59c7 0 10 -3 10 -10v-209c0 -11 10 -15 17 -7c27 30 62 42 91 42c95 0 168 -68 168 -166v-270z" />
    <glyph glyph-name="i" unicode="i" horiz-adv-x="211" 
d="M155 591c0 -27 -22 -50 -50 -50s-49 22 -49 50c0 27 22 49 49 49c28 0 50 -21 50 -49zM145 10c0 -7 -3 -10 -10 -10h-59c-7 0 -10 3 -10 10v426c0 7 3 10 10 10h59c7 0 10 -3 10 -10v-426z" />
    <glyph glyph-name="j" unicode="j" horiz-adv-x="211" 
d="M155 591c0 -27 -22 -50 -50 -50s-49 22 -49 50c0 27 22 49 49 49c28 0 50 -21 50 -49zM145 -59c0 -69 -38 -127 -98 -157c-18 -9 -39 -16 -61 -19c-8 -1 -11 2 -11 10v49c0 5 3 9 8 10c51 10 83 50 83 97v505c0 7 3 10 10 10h59c7 0 10 -3 10 -10v-495z" />
    <glyph glyph-name="k" unicode="k" horiz-adv-x="434" 
d="M432 15c5 -9 1 -15 -9 -15h-74c-3 0 -7 2 -9 5l-132 217c-4 7 -10 8 -16 2l-47 -47v-167c0 -7 -3 -10 -10 -10h-59c-7 0 -10 3 -10 10v610c0 7 3 10 10 10h59c7 0 10 -3 10 -10v-328c0 -11 9 -15 17 -7l144 158c2 2 5 3 7 3h70c11 0 15 -9 7 -17l-126 -127
c-4 -4 -5 -8 -2 -12z" />
    <glyph glyph-name="l" unicode="l" horiz-adv-x="211" 
d="M145 10c0 -7 -3 -10 -10 -10h-59c-7 0 -10 3 -10 10v610c0 7 3 10 10 10h59c7 0 10 -3 10 -10v-610z" />
    <glyph glyph-name="m" unicode="m" horiz-adv-x="716" 
d="M655 10c0 -7 -3 -10 -10 -10h-59c-7 0 -10 3 -10 10v270c0 54 -46 98 -88 98c-39 0 -88 -43 -88 -98v-270c0 -7 -3 -10 -10 -10h-59c-7 0 -10 3 -10 10v270c0 54 -46 98 -88 98c-40 0 -88 -43 -88 -98v-270c0 -7 -3 -10 -10 -10h-59c-7 0 -10 3 -10 10v426
c0 7 3 10 10 10h49c7 0 10 -3 10 -10v-26c0 -11 8 -16 16 -8c28 31 62 44 92 44c36 0 81 -15 110 -52c5 -7 11 -6 16 0c32 36 74 52 119 52c95 0 167 -68 167 -166v-270z" />
    <glyph glyph-name="n" unicode="n" horiz-adv-x="482" 
d="M421 10c0 -7 -3 -10 -10 -10h-59c-7 0 -10 3 -10 10v270c0 53 -45 98 -99 98s-98 -44 -98 -98v-270c0 -7 -3 -10 -10 -10h-59c-7 0 -10 3 -10 10v426c0 7 3 10 10 10h49c7 0 10 -3 10 -10v-26c0 -11 10 -16 17 -7c27 32 60 43 91 43c108 0 178 -68 178 -166v-270z" />
    <glyph glyph-name="o" unicode="o" horiz-adv-x="456" 
d="M405 156c0 -95 -69 -166 -177 -166c-106 0 -177 70 -177 166v134c0 95 69 166 177 166c106 0 177 -70 177 -166v-134zM326 156v139c0 51 -41 93 -98 93c-62 0 -98 -44 -98 -98v-139c0 -51 41 -93 98 -93c62 0 98 44 98 98z" />
    <glyph glyph-name="p" unicode="p" horiz-adv-x="472" 
d="M421 167c0 -98 -74 -167 -168 -167c-25 0 -62 14 -91 44c-8 8 -17 4 -17 -8v-251c0 -7 -3 -10 -10 -10h-59c-7 0 -10 3 -10 10v651c0 7 3 10 10 10h49c7 0 10 -3 10 -10v-26c0 -11 10 -16 17 -7c26 32 60 43 91 43c108 0 178 -68 178 -166v-113zM342 167v113
c0 53 -45 98 -99 98s-98 -44 -98 -98v-113c0 -53 44 -98 98 -98c53 0 99 44 99 98z" />
    <glyph glyph-name="q" unicode="q" horiz-adv-x="471" 
d="M405 -215c0 -7 -3 -10 -10 -10h-59c-7 0 -10 3 -10 10v252c0 11 -9 15 -17 7c-29 -32 -66 -44 -91 -44c-93 0 -167 69 -167 167v113c0 98 69 166 177 166c31 0 64 -12 91 -43c7 -9 18 -6 18 6v27c0 7 3 10 10 10h48c7 0 10 -3 10 -10v-651zM326 167v113
c0 53 -44 98 -98 98s-98 -44 -98 -98v-113c0 -53 44 -98 98 -98c53 0 98 44 98 98z" />
    <glyph glyph-name="r" unicode="r" horiz-adv-x="274" 
d="M274 372c0 -8 -5 -12 -13 -9c-5 2 -12 3 -18 3c-55 0 -98 -37 -98 -96v-260c0 -7 -3 -10 -10 -10h-59c-7 0 -10 3 -10 10v426c0 7 3 10 10 10h49c7 0 10 -3 10 -10v-41c0 -11 10 -16 17 -7c26 37 60 58 91 58h22c7 0 9 -4 9 -11v-63z" />
    <glyph glyph-name="s" unicode="s" horiz-adv-x="429" 
d="M390 134c0 -79 -55 -144 -162 -144h-30c-56 0 -93 16 -119 39c-17 14 -29 32 -38 49c-3 6 -1 10 5 13l48 24c6 3 10 1 13 -4c18 -33 54 -56 91 -56h30c56 0 84 32 84 69c0 49 -65 56 -135 70c-66 13 -137 42 -137 126c0 91 68 136 158 136h30c52 0 89 -14 115 -35
c19 -15 32 -33 42 -51c3 -6 1 -11 -5 -14l-48 -24c-5 -3 -10 -1 -13 4c-20 33 -52 55 -91 55h-30c-58 0 -81 -28 -81 -61c0 -55 65 -60 133 -74c76 -16 140 -41 140 -122z" />
    <glyph glyph-name="t" unicode="t" horiz-adv-x="267" 
d="M248 1c0 -7 -4 -11 -11 -10c-41 4 -75 18 -101 38c-37 30 -58 74 -58 128v211c0 7 -3 10 -10 10h-56c-7 0 -10 3 -10 10v27l114 120c1 1 5 3 7 3h24c7 0 10 -3 10 -10v-72c0 -7 3 -10 10 -10h71c7 0 10 -3 10 -10v-48c0 -7 -3 -10 -10 -10h-71c-7 0 -10 -3 -10 -10v-211
c0 -46 32 -86 83 -96c5 -1 8 -4 8 -10v-50z" />
    <glyph glyph-name="u" unicode="u" horiz-adv-x="481" 
d="M415 10c0 -7 -3 -10 -10 -10h-48c-7 0 -10 3 -10 10v28c0 11 -11 16 -18 7c-26 -32 -60 -45 -91 -45c-108 0 -177 69 -177 167v269c0 7 3 10 10 10h59c7 0 10 -3 10 -10v-269c0 -53 44 -98 98 -98s99 43 99 98v269c0 7 3 10 10 10h58c7 0 10 -3 10 -10v-426z" />
    <glyph glyph-name="v" unicode="v" horiz-adv-x="423" 
d="M417 432l-172 -426c-2 -4 -5 -6 -9 -6h-48c-4 0 -7 2 -9 6l-173 426c-4 9 0 14 9 14h62c4 0 7 -2 9 -6l113 -286c2 -5 10 -30 11 -39h4c1 9 9 34 11 39l112 286c2 4 5 6 9 6h62c9 0 13 -5 9 -14z" />
    <glyph glyph-name="w" unicode="w" horiz-adv-x="599" 
d="M588 433l-130 -426c-1 -5 -5 -7 -10 -7h-45c-5 0 -9 2 -10 7l-82 282c-8 27 -10 50 -10 50h-3s-3 -23 -11 -50l-81 -282c-1 -5 -5 -7 -10 -7h-45c-5 0 -9 2 -10 7l-130 426c-2 8 1 13 10 13h64c5 0 9 -2 10 -7l68 -269c7 -27 10 -49 10 -49h3s3 22 11 49l78 269
c1 5 5 7 10 7h53c5 0 9 -2 10 -7l75 -260c8 -26 11 -55 11 -55h3s4 29 11 56l67 259c1 5 5 7 10 7h63c9 0 12 -5 10 -13z" />
    <glyph glyph-name="x" unicode="x" horiz-adv-x="420" 
d="M396 15c5 -8 2 -15 -8 -15h-69c-3 0 -7 2 -9 5l-94 153c-5 8 -12 8 -17 0l-94 -153c-2 -3 -6 -5 -9 -5h-64c-10 0 -13 7 -8 15l133 204c2 3 2 9 0 12l-132 200c-5 8 -2 15 8 15h68c3 0 6 -2 8 -5l94 -153c5 -7 11 -7 16 0l96 153c2 3 5 5 8 5h64c10 0 13 -7 8 -15
l-132 -201c-2 -3 -2 -7 0 -10z" />
    <glyph glyph-name="y" unicode="y" horiz-adv-x="481" 
d="M415 -57c0 -102 -59 -178 -177 -178c-58 0 -97 18 -125 44c-14 14 -25 29 -34 45c-3 6 -2 11 4 14l53 26c6 3 10 1 13 -4c20 -36 55 -56 89 -56c54 0 99 43 99 98v101c0 11 -11 16 -18 7c-22 -27 -51 -40 -81 -40c-108 0 -177 69 -177 167v269c0 7 3 10 10 10h59
c7 0 10 -3 10 -10v-269c0 -53 44 -98 98 -98c61 0 99 51 99 98v269c0 7 3 10 10 10h58c7 0 10 -3 10 -10v-493z" />
    <glyph glyph-name="z" unicode="z" horiz-adv-x="408" 
d="M382 10c0 -7 -3 -10 -10 -10h-337c-10 0 -14 6 -9 15l208 347c5 9 1 15 -9 15h-186c-7 0 -10 3 -10 10v48c0 7 3 10 10 10h317c10 0 14 -6 9 -15l-209 -346c-5 -9 -1 -15 9 -15h207c7 0 10 -3 10 -10v-49z" />
    <glyph glyph-name="braceleft" unicode="{" horiz-adv-x="388" 
d="M332 -172c0 -7 -4 -11 -11 -10c-36 4 -67 15 -91 31c-44 31 -68 81 -68 145v148c0 46 -33 86 -84 96c-5 1 -8 4 -8 10v53c0 5 3 9 8 10c51 10 84 49 84 96v148c0 62 23 112 66 143c25 18 56 29 93 33c7 1 11 -2 11 -10v-50c0 -5 -3 -9 -8 -10c-51 -10 -83 -49 -83 -96
v-168c0 -49 -33 -96 -73 -117c-4 -2 -3 -7 0 -10c41 -19 73 -69 73 -125v-161c0 -46 32 -87 83 -97c5 -1 8 -4 8 -10v-49z" />
    <glyph glyph-name="bar" unicode="|" horiz-adv-x="235" 
d="M144 750v-1000h-53v1000h53z" />
    <glyph glyph-name="braceright" unicode="}" horiz-adv-x="388" 
d="M318 248c0 -5 -3 -9 -8 -10c-51 -10 -83 -49 -83 -96v-148c0 -64 -25 -115 -70 -145c-24 -17 -55 -27 -90 -31c-7 -1 -11 2 -11 10v49c0 5 3 9 8 10c51 10 84 50 84 97v161c0 40 33 104 73 125c3 3 4 8 0 10c-40 20 -73 77 -73 117v168c0 46 -33 86 -84 96
c-5 1 -8 4 -8 10v50c0 7 4 11 11 10c37 -4 69 -15 94 -33c43 -31 66 -81 66 -143v-148c0 -46 32 -86 83 -96c5 -1 8 -4 8 -10v-53z" />
    <glyph glyph-name="asciitilde" unicode="~" 
d="M453 259c-26 -42 -62 -77 -113 -77c-36 0 -69 13 -97 31c-25 16 -53 30 -80 30c-30 0 -60 -24 -81 -61l-34 37c25 41 60 77 115 77c35 0 65 -12 95 -31c28 -18 53 -31 80 -31c29 0 60 24 81 62z" />
    <glyph glyph-name="exclamdown" unicode="&#xa1;" horiz-adv-x="289" 
d="M196 407c0 -29 -23 -52 -52 -52s-52 22 -52 52c0 28 23 52 52 52c28 0 52 -23 52 -52zM183 -173c0 -7 -3 -10 -10 -10h-59c-7 0 -10 3 -10 10v259l21 168c1 6 4 9 10 9h16c6 0 9 -3 10 -9l22 -168v-259z" />
    <glyph glyph-name="cent" unicode="&#xa2;" 
d="M417 102c-9 -17 -21 -34 -36 -47c-22 -21 -51 -36 -92 -41c-6 -1 -9 -4 -9 -11v-63c0 -7 -3 -10 -10 -10h-25c-7 0 -10 3 -10 10v62c0 9 -3 12 -12 13c-88 14 -142 80 -142 164v133c0 84 54 149 142 163c9 1 12 4 12 13v62c0 7 3 10 10 10h25c7 0 10 -3 10 -10v-63
c0 -7 4 -10 11 -11c36 -5 62 -17 83 -33c19 -14 32 -32 43 -52c3 -6 1 -11 -5 -14l-53 -27c-5 -3 -9 -1 -12 4c-14 24 -36 41 -58 50c-6 2 -9 -1 -9 -8v-301c0 -8 3 -11 10 -8c22 9 42 26 57 51c3 5 8 7 13 4l53 -27c6 -3 7 -7 4 -13zM235 94v302c0 8 -4 11 -11 9
c-41 -13 -64 -50 -64 -93v-133c0 -43 23 -80 64 -93c7 -2 11 0 11 8z" />
    <glyph glyph-name="sterling" unicode="&#xa3;" 
d="M472 552c3 -6 1 -11 -5 -14l-53 -26c-5 -3 -10 -1 -13 4c-21 36 -53 55 -88 55c-56 0 -98 -43 -98 -98v-109c0 -7 3 -10 10 -10h71c7 0 10 -3 10 -10v-48c0 -7 -3 -10 -10 -10h-71c-7 0 -10 -3 -10 -10v-119c0 -20 -10 -45 -27 -73c-5 -8 -1 -15 9 -15h237
c7 0 10 -3 10 -10v-49c0 -7 -3 -10 -10 -10h-426c-7 0 -10 3 -10 10v49c0 7 3 10 10 10h42c49 8 86 49 86 98v109c0 7 -3 10 -10 10h-26c-7 0 -10 3 -10 10v48c0 7 3 10 10 10h26c7 0 10 3 10 10v99c0 104 78 177 177 177c54 0 94 -17 122 -42c16 -13 28 -29 37 -46z" />
    <glyph glyph-name="fraction" unicode="&#x2044;" horiz-adv-x="155" 
d="M234 616l-261 -610c-2 -4 -5 -6 -9 -6h-24c-9 0 -13 5 -9 14l261 610c2 4 5 6 9 6h24c9 0 13 -5 9 -14z" />
    <glyph glyph-name="yen" unicode="&#xa5;" 
d="M464 102c0 -7 -3 -10 -10 -10h-153c-7 0 -10 -3 -10 -10v-72c0 -7 -3 -10 -10 -10h-59c-7 0 -10 3 -10 10v72c0 7 -3 10 -10 10h-153c-7 0 -10 3 -10 10v43c0 7 3 10 10 10h153c7 0 10 3 10 10v85c0 7 -3 10 -10 10h-153c-7 0 -10 3 -10 10v44c0 7 3 10 10 10h128
c10 0 14 6 9 15l-147 276c-5 9 -1 15 9 15h69c4 0 7 -3 9 -6l117 -240c5 -10 13 -10 18 0l115 240c2 3 5 6 9 6h70c10 0 14 -6 9 -15l-147 -276c-5 -9 -1 -15 9 -15h128c7 0 10 -3 10 -10v-44c0 -7 -3 -10 -10 -10h-153c-7 0 -10 -3 -10 -10v-85c0 -7 3 -10 10 -10h153
c7 0 10 -3 10 -10v-43z" />
    <glyph glyph-name="florin" unicode="&#x192;" 
d="M418 625l-16 -48c-2 -5 -5 -7 -10 -7c-9 1 -14 1 -21 1c-54 0 -98 -43 -98 -98v-109c0 -7 3 -10 10 -10h72c7 0 10 -3 10 -10v-48c0 -7 -3 -10 -10 -10h-72c-7 0 -10 -3 -10 -10v-334c0 -98 -78 -177 -176 -177c-13 0 -24 1 -39 2c-8 1 -11 5 -8 13l16 48c2 5 5 7 10 7
c9 -1 14 -1 21 -1c54 0 98 43 98 98v344c0 7 -3 10 -10 10h-26c-7 0 -10 3 -10 10v48c0 7 3 10 10 10h26c7 0 10 3 10 10v99c0 98 78 177 176 177c13 0 24 -1 39 -2c8 -1 11 -5 8 -13z" />
    <glyph glyph-name="section" unicode="&#xa7;" 
d="M440 -62c0 -98 -69 -167 -177 -167h-43c-55 0 -93 16 -120 39c-17 14 -29 31 -39 49c-3 6 -1 11 5 14l52 27c6 3 10 0 13 -5c21 -37 55 -56 89 -56h43c53 0 98 45 98 99c0 143 -291 99 -291 316c0 39 9 73 32 104c3 4 3 8 0 12c-21 28 -32 60 -32 103
c0 98 68 167 176 167h17c54 0 92 -15 119 -38c17 -14 30 -32 40 -50c3 -6 1 -11 -5 -14l-53 -26c-5 -3 -9 -1 -12 4c-21 35 -56 55 -89 55h-17c-54 0 -98 -43 -98 -98c0 -127 292 -87 292 -316c0 -38 -11 -71 -32 -99c-3 -3 -1 -7 1 -11c21 -31 31 -65 31 -109zM361 157
c0 83 -95 107 -184 153c-6 3 -11 3 -14 -3c-12 -18 -15 -34 -15 -53c0 -75 99 -95 188 -146c6 -3 11 -1 14 5c8 17 11 30 11 44z" />
    <glyph glyph-name="currency" unicode="&#xa4;" horiz-adv-x="613" 
d="M525 174c-13 -14 -26 -28 -40 -41c-22 22 -44 44 -67 66c-32 -25 -74 -39 -117 -39c-33 0 -79 9 -117 39c-22 -22 -44 -44 -67 -66c-13 13 -26 27 -40 41c22 21 45 43 68 64c-24 33 -39 73 -39 116s14 84 39 116c-23 22 -46 43 -68 65c14 14 27 28 40 41
c23 -22 45 -44 67 -66c40 29 84 38 117 38c37 0 83 -12 116 -38c23 22 46 44 68 66c14 -13 27 -27 40 -41c-22 -22 -45 -43 -67 -65c27 -36 38 -78 38 -116c0 -42 -13 -81 -38 -116c22 -21 45 -43 67 -64zM439 355c0 81 -68 137 -137 137c-80 0 -139 -64 -139 -137
c0 -75 62 -138 138 -138s138 62 138 138z" />
    <glyph glyph-name="quotesingle" unicode="'" horiz-adv-x="149" 
d="M119 621l-20 -155c-1 -6 -4 -9 -10 -9h-21c-6 0 -9 3 -10 9l-21 155c-1 7 3 11 10 11h62c7 0 11 -4 10 -11z" />
    <glyph glyph-name="quotedblleft" unicode="&#x201c;" horiz-adv-x="285" 
d="M267 646c3 -6 2 -10 -3 -13c-22 -15 -35 -38 -37 -89c0 -6 3 -11 10 -11h11c7 0 10 -3 10 -10v-60c0 -7 -3 -10 -10 -10h-68c-7 0 -10 3 -10 10v55c0 47 9 82 24 107c12 20 29 35 49 46c6 3 11 2 14 -4zM134 646c3 -5 1 -9 -3 -12c-22 -15 -35 -40 -37 -91
c0 -7 3 -10 10 -10h11c7 0 10 -3 10 -10v-60c0 -7 -3 -10 -10 -10h-69c-7 0 -10 3 -10 10v55c0 38 6 68 16 91c13 29 33 49 58 63c6 3 11 1 14 -5z" />
    <glyph glyph-name="guillemotleft" unicode="&#xab;" horiz-adv-x="548" 
d="M485 112c0 -11 -7 -14 -16 -8l-194 138c-2 2 -4 5 -4 8v57c0 3 2 6 4 8l194 138c9 6 16 3 16 -8v-50c0 -3 -2 -6 -4 -8l-140 -100c-7 -5 -7 -11 0 -16l140 -101c2 -2 4 -5 4 -8v-50zM265 112c0 -11 -7 -14 -16 -8l-193 138c-2 2 -4 5 -4 8v57c0 3 2 6 4 8l193 138
c9 6 16 3 16 -8v-50c0 -3 -2 -6 -4 -8l-140 -100c-7 -5 -7 -11 0 -16l140 -101c2 -2 4 -5 4 -8v-50z" />
    <glyph glyph-name="guilsinglleft" unicode="&#x2039;" horiz-adv-x="317" 
d="M265 112c0 -11 -7 -14 -16 -8l-193 138c-2 2 -4 5 -4 8v57c0 3 2 6 4 8l193 138c9 6 16 3 16 -8v-50c0 -3 -2 -6 -4 -8l-140 -100c-7 -5 -7 -11 0 -16l140 -101c2 -2 4 -5 4 -8v-50z" />
    <glyph glyph-name="guilsinglright" unicode="&#x203a;" horiz-adv-x="317" 
d="M277 250c0 -3 -2 -6 -4 -8l-194 -138c-9 -6 -16 -3 -16 8v50c0 3 2 6 4 8l140 101c7 5 7 11 0 16l-140 100c-2 2 -4 5 -4 8v50c0 11 7 14 16 8l194 -138c2 -2 4 -5 4 -8v-57z" />
    <glyph glyph-name="endash" unicode="&#x2013;" horiz-adv-x="559" 
d="M515 222c0 -7 -3 -10 -10 -10h-451c-7 0 -10 3 -10 10v33c0 7 3 10 10 10h451c7 0 10 -3 10 -10v-33z" />
    <glyph glyph-name="dagger" unicode="&#x2020;" horiz-adv-x="402" 
d="M397 400c0 -7 -4 -11 -11 -10l-152 12c-9 1 -12 -3 -11 -11l11 -72l-19 -534c0 -7 -3 -10 -10 -10h-15c-7 0 -10 3 -10 10l-20 534l12 72c1 8 -2 12 -11 11l-154 -12c-7 -1 -11 3 -11 10v55c0 7 4 11 11 10l155 -13c8 -1 12 3 11 11l-12 156c-1 7 3 11 10 11h53
c7 0 11 -4 10 -11l-13 -156c-1 -8 3 -12 11 -11l154 13c7 1 11 -3 11 -10v-55z" />
    <glyph glyph-name="daggerdbl" unicode="&#x2021;" horiz-adv-x="402" 
d="M397 185c0 -7 -4 -11 -11 -10l-148 13c-7 1 -11 -3 -11 -10l-12 -393c0 -7 -3 -10 -10 -10h-15c-7 0 -10 3 -10 10l-13 393c0 7 -4 11 -11 10l-149 -13c-7 -1 -11 3 -11 10v55c0 7 4 11 11 10l148 -13c8 -1 12 3 11 11l-6 72l12 71c1 8 -2 12 -11 11l-154 -12
c-7 -1 -11 3 -11 10v55c0 7 4 11 11 10l155 -13c8 -1 12 3 11 11l-12 156c-1 7 3 11 10 11h53c7 0 11 -4 10 -11l-13 -156c-1 -8 3 -12 11 -11l154 13c7 1 11 -3 11 -10v-55c0 -7 -4 -11 -11 -10l-152 12c-9 1 -12 -3 -11 -11l11 -70l-5 -73c-1 -8 3 -12 11 -11l146 13
c7 1 11 -3 11 -10v-55z" />
    <glyph glyph-name="periodcentered" unicode="&#xb7;" 
d="M303 238c0 -29 -24 -52 -53 -52c-28 0 -51 23 -51 52c0 28 22 52 51 52s53 -22 53 -52z" />
    <glyph glyph-name="paragraph" unicode="&#xb6;" horiz-adv-x="610" 
d="M536 -215c0 -7 -3 -10 -10 -10h-59c-7 0 -10 3 -10 10v766c0 7 -3 10 -10 10h-85c-7 0 -10 -3 -10 -10v-766c0 -7 -3 -10 -10 -10h-59c-7 0 -10 3 -10 10v297c0 7 -3 10 -10 10h-27c-108 0 -177 71 -177 167v194c0 107 69 177 177 177h290c7 0 10 -3 10 -10v-835z" />
    <glyph glyph-name="bullet" unicode="&#x2022;" horiz-adv-x="500" 
d="M399 305c0 -81 -57 -136 -146 -136h-4c-89 0 -148 55 -148 136v21c0 81 58 136 147 136h4c88 0 147 -55 147 -136v-21z" />
    <glyph glyph-name="quotesinglbase" unicode="&#x201a;" horiz-adv-x="156" 
d="M127 37c0 -49 -9 -83 -25 -108c-12 -19 -28 -33 -47 -45c-6 -4 -11 -2 -14 4l-11 21c-3 5 -1 9 3 12c21 15 35 40 37 90c0 6 -3 10 -10 10h-12c-7 0 -10 3 -10 10v61c0 7 3 10 10 10h69c7 0 10 -3 10 -10v-55z" />
    <glyph glyph-name="quotedblbase" unicode="&#x201e;" horiz-adv-x="285" 
d="M261 37c0 -48 -9 -82 -24 -107c-13 -20 -29 -35 -49 -46c-6 -3 -10 -2 -13 4l-11 21c-3 5 -2 9 2 12c21 17 35 39 37 90c0 6 -3 10 -10 10h-11c-7 0 -10 3 -10 10v61c0 7 3 10 10 10h69c7 0 10 -3 10 -10v-55zM127 37c0 -49 -9 -83 -25 -108c-12 -19 -28 -33 -47 -45
c-6 -4 -11 -2 -14 4l-11 21c-3 5 -1 9 3 12c21 15 35 40 37 90c0 6 -3 10 -10 10h-12c-7 0 -10 3 -10 10v61c0 7 3 10 10 10h69c7 0 10 -3 10 -10v-55z" />
    <glyph glyph-name="quotedblright" unicode="&#x201d;" horiz-adv-x="285" 
d="M261 567c0 -49 -9 -84 -26 -109c-12 -18 -28 -31 -46 -42c-5 -3 -11 -1 -14 4l-11 20c-3 5 -2 9 3 13c21 15 34 40 36 89c0 6 -3 10 -10 10h-11c-7 0 -10 3 -10 10v60c0 7 3 10 10 10h69c7 0 10 -3 10 -10v-55zM127 567c0 -48 -9 -82 -25 -107c-12 -19 -28 -33 -47 -44
c-6 -3 -11 -2 -14 4l-11 20c-3 5 -1 10 4 13c20 15 34 40 36 89c0 6 -3 10 -10 10h-12c-7 0 -10 3 -10 10v60c0 7 3 10 10 10h69c7 0 10 -3 10 -10v-55z" />
    <glyph glyph-name="guillemotright" unicode="&#xbb;" horiz-adv-x="548" 
d="M496 250c0 -3 -2 -6 -4 -8l-193 -138c-9 -6 -16 -3 -16 8v50c0 3 2 6 4 8l140 101c7 5 7 11 0 16l-140 100c-2 2 -4 5 -4 8v50c0 11 7 14 16 8l193 -138c2 -2 4 -5 4 -8v-57zM277 250c0 -3 -2 -6 -4 -8l-194 -138c-9 -6 -16 -3 -16 8v50c0 3 2 6 4 8l140 101
c7 5 7 11 0 16l-140 100c-2 2 -4 5 -4 8v50c0 11 7 14 16 8l194 -138c2 -2 4 -5 4 -8v-57z" />
    <glyph glyph-name="ellipsis" unicode="&#x2026;" horiz-adv-x="1020" 
d="M858 40c0 -29 -23 -52 -53 -52c-28 0 -51 23 -51 52c0 28 22 52 51 52s53 -22 53 -52zM562 40c0 -29 -23 -52 -53 -52c-28 0 -51 23 -51 52c0 28 22 52 51 52s53 -22 53 -52zM266 40c0 -29 -23 -52 -53 -52c-28 0 -51 23 -51 52c0 28 22 52 51 52s53 -22 53 -52z" />
    <glyph glyph-name="perthousand" unicode="&#x2030;" horiz-adv-x="714" 
d="M681 85c0 -50 -35 -85 -90 -85s-90 35 -90 85v100c0 50 35 85 90 85s90 -35 90 -85v-100zM224 445c0 -50 -35 -85 -90 -85s-90 35 -90 85v100c0 50 35 85 90 85s90 -35 90 -85v-100zM398 616l-261 -610c-2 -4 -5 -6 -9 -6h-24c-9 0 -13 5 -9 14l261 610c2 4 5 6 9 6h24
c9 0 13 -5 9 -14zM449 85c0 -50 -35 -85 -90 -85s-90 35 -90 85v100c0 50 35 85 90 85s90 -35 90 -85v-100zM629 85v100c0 20 -17 38 -38 38c-20 0 -37 -17 -37 -38v-100c0 -20 16 -37 37 -37c20 0 38 16 38 37zM172 445v100c0 20 -17 38 -38 38c-20 0 -37 -17 -37 -38v-100
c0 -20 16 -37 37 -37c20 0 38 16 38 37zM397 85v100c0 20 -17 38 -38 38c-20 0 -37 -17 -37 -38v-100c0 -20 16 -37 37 -37c20 0 38 16 38 37z" />
    <glyph glyph-name="questiondown" unicode="&#xbf;" horiz-adv-x="478" 
d="M317 407c0 -29 -23 -52 -52 -52c-28 0 -52 23 -52 52s23 52 52 52c28 0 52 -23 52 -52zM421 -105c-12 -23 -28 -44 -52 -60c-26 -18 -60 -29 -107 -29h-39c-108 0 -177 69 -177 168c0 111 66 137 119 162c42 20 78 40 78 91c0 6 0 13 -2 25c-1 7 3 11 10 11h58
c6 0 9 -3 10 -9c2 -19 3 -31 3 -42c0 -88 -64 -112 -117 -138c-43 -22 -80 -45 -80 -100c0 -54 43 -99 98 -99h39c34 0 68 21 89 57c3 5 7 7 13 4l52 -27c6 -3 8 -8 5 -14z" />
    <glyph glyph-name="grave" unicode="`" horiz-adv-x="492" 
d="M283 515c5 -8 3 -15 -8 -15h-27c-5 0 -12 2 -16 6l-117 110c-8 8 -4 17 7 17h76c4 0 10 -4 13 -8z" />
    <glyph glyph-name="acute" unicode="&#xb4;" horiz-adv-x="492" 
d="M382 616l-117 -110c-4 -4 -11 -6 -16 -6h-27c-11 0 -13 7 -8 15l72 110c3 4 9 8 13 8h76c11 0 15 -9 7 -17z" />
    <glyph glyph-name="circumflex" unicode="&#x2c6;" horiz-adv-x="492" 
d="M358 516c6 -9 3 -16 -8 -16h-41c-3 0 -6 2 -8 5l-44 65c-5 7 -11 7 -16 0l-45 -65c-2 -3 -5 -5 -8 -5h-41c-11 0 -14 8 -8 16l85 115c2 2 5 4 8 4h33c3 0 6 -2 8 -4z" />
    <glyph glyph-name="tilde" unicode="&#x2dc;" horiz-adv-x="492" 
d="M391 572c-24 -42 -52 -64 -83 -64c-19 0 -40 9 -62 25l-20 14c-12 9 -26 14 -39 14c-16 0 -32 -7 -50 -27c-4 -5 -8 -6 -13 -2l-16 12c-5 4 -6 8 -3 13c25 43 51 62 82 62c21 0 40 -6 61 -23l20 -16c11 -9 27 -13 40 -13c16 0 34 8 52 28c4 5 8 5 13 1l15 -11
c5 -4 6 -8 3 -13z" />
    <glyph glyph-name="macron" unicode="&#xaf;" horiz-adv-x="492" 
d="M357 548c0 -7 -3 -10 -10 -10h-202c-7 0 -10 3 -10 10v48c0 7 3 10 10 10h202c7 0 10 -3 10 -10v-48z" />
    <glyph glyph-name="breve" unicode="&#x2d8;" horiz-adv-x="492" 
d="M357 580c0 -47 -35 -80 -89 -80h-45c-54 0 -88 32 -88 80v45c0 7 3 10 10 10h18c7 0 10 -3 10 -10v-25c0 -25 22 -48 50 -48h45c27 0 51 22 51 48v25c0 7 3 10 10 10h18c7 0 10 -3 10 -10v-45z" />
    <glyph glyph-name="dotaccent" unicode="&#x2d9;" horiz-adv-x="492" 
d="M301 553c0 -30 -22 -50 -55 -50s-54 20 -54 50v30c0 30 20 50 54 50c32 0 55 -20 55 -50v-30z" />
    <glyph glyph-name="dieresis" unicode="&#xa8;" horiz-adv-x="492" 
d="M375 564c0 -25 -21 -48 -47 -48s-47 22 -47 48s21 46 47 46s47 -20 47 -46zM216 564c0 -26 -21 -48 -47 -48s-47 22 -47 48s21 46 47 46s47 -20 47 -46z" />
    <glyph glyph-name="ring" unicode="&#x2da;" horiz-adv-x="492" 
d="M334 581c0 -47 -34 -81 -86 -81s-85 33 -85 81v30c0 47 33 80 85 80c51 0 86 -32 86 -80v-30zM296 581v30c0 26 -21 45 -48 45s-47 -19 -47 -45v-30c0 -26 20 -46 47 -46s48 20 48 46z" />
    <glyph glyph-name="cedilla" unicode="&#xb8;" horiz-adv-x="492" 
d="M321 -141c0 -53 -43 -88 -97 -88h-42c-7 0 -10 3 -10 10v28c0 7 3 10 10 10h42c23 0 40 17 40 40v9c0 23 -18 34 -40 39l-14 3c-5 1 -8 6 -5 12l45 96c2 5 6 7 11 6l32 -6c8 -2 10 -7 7 -14l-26 -54c-3 -5 -1 -10 4 -13c30 -15 43 -36 43 -69v-9z" />
    <glyph glyph-name="hungarumlaut" unicode="&#x2dd;" horiz-adv-x="492" 
d="M349 620l-69 -115c-2 -3 -5 -5 -8 -5h-14c-9 0 -12 5 -9 13l40 115c1 4 5 7 9 7h42c10 0 14 -7 9 -15zM243 620l-69 -115c-2 -3 -5 -5 -8 -5h-14c-9 0 -12 5 -9 13l39 115c1 4 5 7 9 7h43c10 0 14 -7 9 -15z" />
    <glyph glyph-name="ogonek" unicode="&#x2db;" horiz-adv-x="492" 
d="M309 -217c0 -7 -3 -11 -11 -10c-68 13 -114 64 -114 129v119c0 7 3 10 10 10h37c7 0 10 -3 10 -10v-126c0 -35 22 -65 61 -74c5 -1 7 -5 7 -10v-28z" />
    <glyph glyph-name="caron" unicode="&#x2c7;" horiz-adv-x="492" 
d="M358 619l-85 -115c-2 -2 -5 -4 -8 -4h-33c-3 0 -6 2 -8 4l-85 115c-6 8 -3 16 8 16h42c3 0 6 -2 8 -5l44 -64c5 -7 11 -7 16 0l43 64c2 3 5 5 8 5h42c11 0 14 -7 8 -16z" />
    <glyph glyph-name="emdash" unicode="&#x2014;" horiz-adv-x="835" 
d="M791 222c0 -7 -3 -10 -10 -10h-727c-7 0 -10 3 -10 10v33c0 7 3 10 10 10h727c7 0 10 -3 10 -10v-33z" />
    <glyph glyph-name="AE" unicode="&#xc6;" horiz-adv-x="684" 
d="M653 10c0 -7 -3 -10 -10 -10h-334c-7 0 -10 3 -10 10v128c0 7 -3 10 -10 10h-178c-3 0 -8 -1 -10 -4l-77 -139c-2 -3 -6 -5 -9 -5h-60c-10 0 -14 6 -9 15l360 610c2 3 6 5 9 5h328c7 0 10 -3 10 -10v-49c0 -7 -3 -10 -10 -10h-255c-7 0 -10 -3 -10 -10v-187
c0 -7 3 -10 10 -10h209c7 0 10 -3 10 -10v-49c0 -7 -3 -10 -10 -10h-209c-7 0 -10 -3 -10 -10v-196c0 -7 3 -10 10 -10h255c7 0 10 -3 10 -10v-49zM302 495h-3s-8 -21 -27 -55l-119 -208c-5 -9 -1 -15 9 -15h127c7 0 10 3 10 10v153c0 82 3 115 3 115z" />
    <glyph glyph-name="ordfeminine" unicode="&#xaa;" horiz-adv-x="310" 
d="M279 324c0 -9 -3 -12 -12 -12h-34c-9 0 -12 3 -12 12v17c0 5 -5 5 -8 2c-19 -21 -38 -32 -60 -32h-28c-53 0 -95 36 -95 90v5c0 54 42 88 95 88h83c4 0 6 2 6 7v19c0 35 -29 63 -65 63c-23 0 -43 -11 -58 -36c-4 -7 -8 -9 -15 -5l-36 19c-7 4 -9 9 -5 16
c9 15 20 29 34 39c20 15 46 24 80 24c78 0 130 -48 130 -120v-196zM214 421v15c0 5 -3 7 -7 7h-82c-17 0 -31 -13 -31 -30v-12c0 -17 14 -31 31 -31h28c28 0 54 25 61 51z" />
    <glyph glyph-name="Lslash" unicode="&#x141;" horiz-adv-x="436" 
d="M430 10c0 -7 -3 -10 -10 -10h-334c-7 0 -10 3 -10 10v211c0 10 -5 12 -11 6l-19 -19c-4 -4 -10 -4 -14 0l-33 32c-4 4 -4 10 0 14l66 66c9 9 11 16 11 31v269c0 7 3 10 10 10h59c7 0 10 -3 10 -10v-194c0 -9 6 -11 13 -4l26 26c4 4 10 4 14 0l32 -31c4 -4 4 -11 0 -15
l-74 -74c-8 -8 -11 -16 -11 -29v-220c0 -7 3 -10 10 -10h255c7 0 10 -3 10 -10v-49z" />
    <glyph glyph-name="Oslash" unicode="&#xd8;" horiz-adv-x="508" 
d="M447 157c0 -98 -69 -167 -177 -167h-31c-108 0 -177 68 -177 167v316c0 98 69 167 177 167h31c108 0 177 -68 177 -167v-316zM329 542c2 5 1 9 -3 12c-15 12 -35 17 -56 17h-31c-54 0 -98 -43 -98 -98v-317c0 -5 1 -9 2 -12c3 -8 12 -5 15 2zM368 157v315c0 5 0 14 -2 20
c-2 8 -8 7 -11 1l-174 -405c-2 -5 -1 -9 3 -12c12 -9 31 -17 55 -17h31c53 0 98 44 98 98z" />
    <glyph glyph-name="OE" unicode="&#x152;" horiz-adv-x="753" 
d="M722 10c0 -7 -3 -10 -10 -10h-377c-19 -6 -41 -10 -65 -10h-31c-108 0 -177 68 -177 167v316c0 98 69 167 177 167h31c22 0 47 -4 66 -10h376c7 0 10 -3 10 -10v-49c0 -7 -3 -10 -10 -10h-272c-9 0 -13 -6 -9 -14c11 -27 16 -49 16 -74v-109c0 -7 3 -10 10 -10h210
c7 0 10 -3 10 -10v-49c0 -7 -3 -10 -10 -10h-210c-7 0 -10 -3 -10 -10v-118c0 -25 -5 -47 -16 -74c-4 -8 0 -14 9 -14h272c7 0 10 -3 10 -10v-49zM368 157v316c0 54 -44 98 -98 98h-31c-54 0 -98 -43 -98 -98v-316c0 -53 43 -98 98 -98h31c53 0 98 44 98 98z" />
    <glyph glyph-name="ordmasculine" unicode="&#xba;" horiz-adv-x="313" 
d="M286 426c0 -72 -50 -122 -129 -122c-78 0 -129 50 -129 122v93c0 72 50 121 129 121c78 0 129 -49 129 -121v-93zM221 426v93c0 34 -29 63 -64 63c-34 0 -64 -28 -64 -63v-93c0 -34 30 -64 64 -64s64 29 64 64z" />
    <glyph glyph-name="ae" unicode="&#xe6;" horiz-adv-x="710" 
d="M659 224c0 -7 -3 -10 -10 -10h-255c-7 0 -10 -3 -10 -10v-47c0 -53 44 -98 98 -98c34 0 68 20 89 57c3 5 8 7 13 4l53 -27c6 -3 7 -7 4 -13c-10 -20 -24 -38 -42 -53c-27 -22 -64 -37 -117 -37c-67 0 -118 26 -148 69c-4 5 -6 6 -11 0c-28 -34 -68 -69 -112 -69h-39
c-72 0 -130 48 -130 121v16c0 73 58 120 130 120h123c7 0 10 3 10 10v34c0 54 -44 96 -99 96c-33 0 -66 -17 -88 -55c-3 -5 -8 -7 -14 -4l-51 27c-6 3 -8 8 -4 14c13 22 30 41 51 56c27 18 62 30 106 30c57 0 104 -18 135 -50c5 -6 9 -6 14 -1c31 31 74 52 127 52
c106 0 177 -70 177 -166v-66zM580 283v12c0 51 -41 93 -98 93c-62 0 -98 -44 -98 -98v-11c0 -5 5 -6 10 -6h176c7 0 10 3 10 10zM305 148v31c0 7 -3 10 -10 10h-123c-29 0 -52 -23 -52 -52v-26c0 -28 23 -52 52 -52h39c43 0 82 49 94 89z" />
    <glyph glyph-name="dotlessi" unicode="&#x131;" horiz-adv-x="211" 
d="M145 10c0 -7 -3 -10 -10 -10h-59c-7 0 -10 3 -10 10v426c0 7 3 10 10 10h59c7 0 10 -3 10 -10v-426z" />
    <glyph glyph-name="lslash" unicode="&#x142;" horiz-adv-x="211" 
d="M229 402l-73 -73c-8 -8 -11 -16 -11 -29v-290c0 -7 -3 -10 -10 -10h-59c-7 0 -10 3 -10 10v212c0 10 -5 12 -11 6l-20 -20c-4 -4 -10 -4 -14 0l-33 32c-4 4 -4 10 0 14l67 67c9 9 11 16 11 31v268c0 7 3 10 10 10h59c7 0 10 -3 10 -10v-193c0 -9 6 -11 13 -4l26 25
c4 4 10 4 14 0l31 -31c4 -4 4 -11 0 -15z" />
    <glyph glyph-name="oslash" unicode="&#xf8;" horiz-adv-x="456" 
d="M405 156c0 -95 -69 -166 -177 -166c-106 0 -177 70 -177 166v134c0 95 69 166 177 166c106 0 177 -70 177 -166v-134zM326 156v139c0 20 -7 40 -17 53c-4 5 -8 4 -10 -1l-114 -270c-3 -6 -1 -10 4 -12c12 -5 25 -7 39 -7c62 0 98 44 98 98zM263 370c3 6 3 12 -4 14
c-10 3 -20 4 -31 4c-62 0 -98 -44 -98 -98v-139c0 -15 4 -29 10 -42c3 -6 7 -6 10 0z" />
    <glyph glyph-name="oe" unicode="&#x153;" horiz-adv-x="731" 
d="M680 224c0 -7 -3 -10 -10 -10h-255c-7 0 -10 -3 -10 -10v-47c0 -53 44 -98 98 -98c34 0 68 20 89 57c3 5 8 7 13 4l53 -27c6 -3 7 -7 4 -13c-12 -23 -29 -45 -53 -61c-26 -18 -60 -29 -106 -29c-55 0 -99 18 -130 48c-5 5 -10 5 -16 -1c-30 -29 -75 -47 -129 -47
c-108 0 -177 68 -177 167v133c0 98 69 166 177 166c56 0 102 -19 133 -50c7 -7 10 -6 18 1c30 29 73 49 124 49c106 0 177 -70 177 -166v-66zM601 283v12c0 51 -41 93 -98 93c-62 0 -98 -44 -98 -98v-11c0 -5 5 -6 10 -6h176c7 0 10 3 10 10zM326 157v133
c0 53 -44 98 -98 98s-98 -44 -98 -98v-133c0 -53 44 -98 98 -98c53 0 98 44 98 98z" />
    <glyph glyph-name="germandbls" unicode="&#xdf;" horiz-adv-x="479" 
d="M434 165c0 -62 -23 -111 -66 -141c-25 -18 -57 -29 -94 -33c-7 -1 -11 3 -11 10v50c0 5 3 9 8 10c51 10 84 49 84 96v31c0 46 -33 86 -84 96c-5 1 -8 4 -8 10v52c0 5 3 9 8 10c52 10 84 50 84 97v20c0 58 -42 98 -98 98c-61 0 -98 -39 -98 -98v-463c0 -7 -3 -10 -10 -10
h-59c-7 0 -10 3 -10 10v312c0 7 -3 10 -10 10h-26c-7 0 -10 3 -10 10v48c0 7 3 10 10 10h26c7 0 10 3 10 10v53c0 98 70 177 177 177c108 0 177 -69 177 -177v-20c0 -46 -32 -93 -69 -115c-9 -5 -9 -12 0 -17c42 -24 69 -68 69 -120v-26z" />
    <glyph glyph-name="onesuperior" unicode="&#xb9;" horiz-adv-x="300" 
d="M270 257c0 -4 -2 -6 -6 -6h-210c-4 0 -6 2 -6 6v42c0 4 2 6 6 6h67c5 0 7 2 7 7v148c0 6 -5 9 -10 4l-34 -32c-4 -3 -6 -3 -9 0l-30 28c-2 3 -3 6 0 9l108 105c1 0 4 2 6 2h25c4 0 6 -2 6 -7v-257c0 -5 2 -7 8 -7h66c4 0 6 -2 6 -6v-42z" />
    <glyph glyph-name="logicalnot" unicode="&#xac;" 
d="M462 130c0 -7 -3 -10 -10 -10h-41c-7 0 -10 3 -10 10v164c0 7 -3 10 -10 10h-340c-7 0 -10 3 -10 10v33c0 7 3 10 10 10h401c7 0 10 -3 10 -10v-217z" />
    <glyph glyph-name="mu" unicode="&#xb5;" horiz-adv-x="492" 
d="M420 10c0 -7 -3 -10 -10 -10h-48c-7 0 -10 3 -10 10v28c0 11 -11 16 -18 7c-26 -32 -60 -45 -91 -45c-32 0 -61 7 -86 18c-7 3 -12 0 -12 -7v-161c0 -7 -3 -10 -10 -10h-59c-7 0 -10 3 -10 10v586c0 7 3 10 10 10h59c7 0 10 -3 10 -10v-269c0 -53 44 -98 98 -98
s99 43 99 98v269c0 7 3 10 10 10h58c7 0 10 -3 10 -10v-426z" />
    <glyph glyph-name="trademark" unicode="&#x2122;" horiz-adv-x="380" 
d="M359 370c0 -7 -3 -10 -10 -10h-12c-7 0 -10 3 -10 10v72c0 13 -12 16 -19 5l-25 -41c-2 -3 -6 -5 -9 -5h-4c-3 0 -6 2 -8 5l-27 41c-7 10 -18 8 -18 -5v-72c0 -7 -3 -10 -10 -10h-12c-7 0 -10 3 -10 10v168c0 7 3 10 10 10h12c3 0 7 -2 9 -5l47 -81c5 -9 13 -9 18 0
l47 81c2 3 6 5 9 5h12c7 0 10 -3 10 -10v-168zM147 527c0 -7 -3 -10 -10 -10h-27c-7 0 -10 -3 -10 -10v-137c0 -7 -3 -10 -10 -10h-12c-7 0 -10 3 -10 10v137c0 7 -3 10 -10 10h-27c-7 0 -10 3 -10 10v11c0 7 3 10 10 10h106c7 0 10 -3 10 -10v-11z" />
    <glyph glyph-name="Eth" unicode="&#xd0;" horiz-adv-x="521" 
d="M460 178c0 -109 -70 -178 -178 -178h-197c-7 0 -10 3 -10 10v261c0 6 -3 9 -8 9h-42c-7 0 -10 3 -10 10v48c0 7 3 10 10 10h42c5 0 8 2 8 8v264c0 7 3 10 10 10h197c108 0 178 -69 178 -177v-275zM381 167v296c0 53 -44 98 -99 98h-118c-7 0 -10 -3 -10 -10v-194
c0 -6 2 -9 8 -9h73c7 0 10 -3 10 -10v-48c0 -7 -3 -10 -10 -10h-73c-6 0 -8 -3 -8 -8v-193c0 -7 3 -10 10 -10h118c54 0 99 43 99 98z" />
    <glyph glyph-name="onehalf" unicode="&#xbd;" horiz-adv-x="808" 
d="M732 218c0 -71 -63 -82 -111 -99c-39 -14 -69 -24 -69 -53v-7c0 -4 2 -5 7 -5h163c4 0 6 -1 6 -5v-43c0 -5 -2 -6 -6 -6h-228c-4 0 -6 1 -6 6v42c0 80 55 100 104 117c46 15 78 21 78 55c0 28 -19 51 -57 51h-25c-21 0 -42 -14 -57 -36c-1 -3 -4 -6 -8 -3l-43 20
c-5 2 -5 7 -4 9c11 20 24 35 40 45c19 13 42 19 71 19h26c75 0 119 -44 119 -107zM561 616l-261 -610c-2 -4 -5 -6 -9 -6h-24c-9 0 -13 5 -9 14l261 610c2 4 5 6 9 6h24c9 0 13 -5 9 -14zM276 257c0 -4 -2 -6 -6 -6h-209c-4 0 -7 2 -7 6v42c0 4 3 6 7 6h66c6 0 8 2 8 7v148
c0 6 -5 9 -10 4l-35 -32c-3 -3 -6 -3 -9 0l-29 28c-3 3 -3 6 0 9l108 105c1 0 4 2 6 2h25c3 0 6 -2 6 -7v-257c0 -5 2 -7 7 -7h66c4 0 6 -2 6 -6v-42z" />
    <glyph glyph-name="plusminus" unicode="&#xb1;" 
d="M462 300c0 -7 -3 -10 -10 -10h-164c-7 0 -10 -3 -10 -10v-164c0 -7 -3 -10 -10 -10h-33c-7 0 -10 3 -10 10v164c0 7 -3 10 -10 10h-164c-7 0 -10 3 -10 10v33c0 7 3 10 10 10h164c7 0 10 3 10 10v164c0 7 3 10 10 10h33c7 0 10 -3 10 -10v-164c0 -7 3 -10 10 -10h164
c7 0 10 -3 10 -10v-33zM462 10c0 -7 -3 -10 -10 -10h-401c-7 0 -10 3 -10 10v33c0 7 3 10 10 10h401c7 0 10 -3 10 -10v-33z" />
    <glyph glyph-name="Thorn" unicode="&#xde;" horiz-adv-x="466" 
d="M460 333c0 -95 -69 -168 -177 -168h-119c-7 0 -10 -3 -10 -10v-145c0 -7 -3 -10 -10 -10h-58c-7 0 -10 3 -10 10v610c0 7 3 10 10 10h58c7 0 10 -3 10 -10v-101c0 -6 3 -9 10 -9h119c108 0 177 -70 177 -177zM382 333v10c0 53 -44 98 -99 98h-119c-7 0 -10 -3 -10 -10
v-187c0 -7 3 -10 10 -10h119c54 0 99 44 99 99z" />
    <glyph glyph-name="onequarter" unicode="&#xbc;" horiz-adv-x="808" 
d="M561 616l-261 -610c-2 -4 -5 -6 -9 -6h-24c-9 0 -13 5 -9 14l261 610c2 4 5 6 9 6h24c9 0 13 -5 9 -14zM737 12c0 -4 -2 -6 -6 -6h-47c-5 0 -6 -2 -6 -7v-84c0 -5 -2 -6 -7 -6h-50c-4 0 -6 1 -6 6v84c0 4 -2 7 -7 7h-166c-5 0 -7 2 -7 6v47l178 256c1 1 4 2 7 2h51
c4 0 7 -1 7 -6v-244c0 -5 1 -7 6 -7h47c4 0 6 -3 6 -6v-42zM276 257c0 -4 -2 -6 -6 -6h-209c-4 0 -7 2 -7 6v42c0 4 3 6 7 6h66c6 0 8 2 8 7v148c0 6 -5 9 -10 4l-35 -32c-3 -3 -6 -3 -9 0l-29 28c-3 3 -3 6 0 9l108 105c1 0 4 2 6 2h25c3 0 6 -2 6 -7v-257c0 -5 2 -7 7 -7
h66c4 0 6 -2 6 -6v-42zM615 63v162c0 4 -7 6 -9 3l-105 -161c-4 -6 -1 -10 5 -10h102c5 0 7 2 7 6z" />
    <glyph glyph-name="divide" unicode="&#xf7;" 
d="M303 397c0 -29 -24 -52 -53 -52c-28 0 -51 23 -51 52c0 28 22 52 51 52s53 -22 53 -52zM462 222c0 -7 -3 -10 -10 -10h-401c-7 0 -10 3 -10 10v33c0 7 3 10 10 10h401c7 0 10 -3 10 -10v-33zM303 80c0 -29 -24 -52 -53 -52c-28 0 -51 23 -51 52c0 28 22 52 51 52
s53 -22 53 -52z" />
    <glyph glyph-name="brokenbar" unicode="&#xa6;" horiz-adv-x="235" 
d="M144 367h-53v365h53v-365zM144 -183h-53v365h53v-365z" />
    <glyph glyph-name="degree" unicode="&#xb0;" horiz-adv-x="268" 
d="M224 455c0 -50 -35 -85 -90 -85s-90 35 -90 85v100c0 50 35 85 90 85s90 -35 90 -85v-100zM172 455v100c0 20 -17 38 -38 38c-20 0 -37 -17 -37 -38v-100c0 -20 16 -37 37 -37c20 0 38 16 38 37z" />
    <glyph glyph-name="thorn" unicode="&#xfe;" horiz-adv-x="472" 
d="M421 167c0 -98 -74 -167 -168 -167c-25 0 -62 14 -91 44c-8 8 -17 4 -17 -8v-251c0 -7 -3 -10 -10 -10h-59c-7 0 -10 3 -10 10v835c0 7 3 10 10 10h49c7 0 10 -3 10 -10v-210c0 -12 10 -16 17 -7c26 32 60 43 91 43c108 0 178 -68 178 -166v-113zM342 167v113
c0 53 -45 98 -99 98s-98 -44 -98 -98v-113c0 -53 44 -98 98 -98c53 0 99 44 99 98z" />
    <glyph glyph-name="threequarters" unicode="&#xbe;" horiz-adv-x="808" 
d="M561 616l-261 -610c-2 -4 -5 -6 -9 -6h-24c-9 0 -13 5 -9 14l261 610c2 4 5 6 9 6h24c9 0 13 -5 9 -14zM737 12c0 -4 -2 -6 -6 -6h-47c-5 0 -6 -2 -6 -7v-84c0 -5 -2 -6 -7 -6h-50c-4 0 -6 1 -6 6v84c0 4 -2 7 -7 7h-166c-5 0 -7 2 -7 6v47l178 256c1 1 4 2 7 2h51
c4 0 7 -1 7 -6v-244c0 -5 1 -7 6 -7h47c4 0 6 -3 6 -6v-42zM300 328c0 -72 -48 -117 -122 -117h-19c-37 0 -63 9 -82 26c-11 10 -20 23 -28 37c-2 4 -2 9 2 11l43 20c4 2 7 0 9 -3c15 -24 35 -37 57 -37h18c33 0 59 26 59 58v23c0 31 -25 56 -59 56h-52c-4 0 -7 2 -7 7v41
c0 4 3 6 7 6h52c35 0 59 26 59 58v10c0 32 -26 57 -59 57h-18c-22 0 -42 -12 -57 -36c-2 -4 -6 -5 -9 -3l-43 21c-4 2 -4 6 -2 9c9 17 20 32 34 42c18 14 43 22 76 22h19c74 0 122 -47 122 -118v-11c0 -36 -27 -65 -51 -74c-2 -1 -2 -3 0 -4c20 -10 51 -40 51 -81v-20z
M615 63v162c0 4 -7 6 -9 3l-105 -161c-4 -6 -1 -10 5 -10h102c5 0 7 2 7 6z" />
    <glyph glyph-name="twosuperior" unicode="&#xb2;" horiz-adv-x="300" 
d="M274 469c0 -71 -63 -82 -112 -99c-38 -14 -68 -24 -68 -53v-7c0 -4 2 -5 7 -5h163c4 0 6 -1 6 -5v-43c0 -5 -2 -6 -6 -6h-228c-4 0 -6 1 -6 6v42c0 80 55 100 104 117c46 15 78 21 78 55c0 28 -19 51 -57 51h-26c-20 0 -41 -14 -56 -36c-1 -3 -5 -6 -8 -3l-44 20
c-4 2 -4 7 -3 9c9 16 20 30 33 40c19 16 44 24 78 24h26c75 0 119 -44 119 -107z" />
    <glyph glyph-name="registered" unicode="&#xae;" horiz-adv-x="412" 
d="M393 440c0 -100 -70 -170 -180 -170h-4c-110 0 -180 70 -180 170v20c0 100 70 170 180 170h4c110 0 180 -70 180 -170v-20zM363 440v20c0 83 -59 140 -150 140h-4c-91 0 -150 -57 -150 -140v-20c0 -83 59 -140 150 -140h4c91 0 150 57 150 140zM285 481
c0 -16 -13 -35 -26 -45c-4 -3 -5 -7 -3 -12l25 -50c4 -8 0 -14 -9 -14h-16c-4 0 -7 2 -9 6l-23 53c-2 4 -5 6 -9 6h-25c-7 0 -10 -3 -10 -10v-45c0 -7 -3 -10 -10 -10h-11c-7 0 -10 3 -10 10v168c0 7 3 10 10 10h63c38 0 63 -25 63 -63v-4zM253 485v3c0 18 -13 32 -31 32
h-32c-7 0 -10 -3 -10 -10v-47c0 -7 3 -10 10 -10h32c18 0 31 14 31 32z" />
    <glyph glyph-name="minus" unicode="&#x2212;" 
d="M462 222c0 -7 -3 -10 -10 -10h-401c-7 0 -10 3 -10 10v33c0 7 3 10 10 10h401c7 0 10 -3 10 -10v-33z" />
    <glyph glyph-name="eth" unicode="&#xf0;" horiz-adv-x="456" 
d="M405 156c0 -95 -69 -166 -177 -166c-106 0 -177 70 -177 166v134c0 92 65 162 167 166l-51 51l-94 -40c-7 -3 -14 0 -14 5v22c0 7 1 14 6 16l69 30l-76 77c-6 7 1 13 10 13h61c6 0 6 -3 10 -7l56 -56l102 44c5 2 14 0 14 -6v-25c0 -5 -3 -11 -8 -13l-75 -33l144 -143
c21 -27 33 -62 33 -101v-134zM326 156v139c0 51 -41 93 -98 93c-62 0 -98 -44 -98 -98v-139c0 -51 41 -93 98 -93c62 0 98 44 98 98z" />
    <glyph glyph-name="multiply" unicode="&#xd7;" 
d="M426 87l-23 -23c-5 -5 -9 -5 -14 0l-130 130c-5 5 -10 5 -15 0l-130 -130c-5 -5 -9 -5 -14 0l-23 23c-5 5 -5 9 0 14l130 130c5 5 5 10 0 15l-130 130c-5 5 -5 9 0 14l23 23c5 5 9 5 14 0l130 -130c5 -5 10 -5 15 0l130 130c5 5 9 5 14 0l23 -23c5 -5 5 -9 0 -14
l-130 -130c-5 -5 -5 -10 0 -15l130 -130c5 -5 5 -9 0 -14z" />
    <glyph glyph-name="threesuperior" unicode="&#xb3;" horiz-adv-x="300" 
d="M267 328c0 -72 -47 -117 -121 -117h-20c-35 0 -61 9 -80 25c-12 10 -22 23 -30 38c-2 4 -2 9 2 11l44 20c3 2 6 0 8 -3c15 -24 36 -37 58 -37h18c33 0 58 26 58 58v23c0 31 -25 56 -58 56h-53c-4 0 -6 2 -6 7v41c0 4 2 6 6 6h53c34 0 58 26 58 58v10c0 32 -25 57 -58 57
h-18c-22 0 -43 -12 -58 -36c-2 -4 -6 -5 -9 -3l-43 21c-4 2 -4 6 -2 9c8 16 18 29 30 39c19 16 45 25 80 25h20c74 0 121 -47 121 -118v-11c0 -36 -27 -65 -51 -74c-2 -1 -1 -3 0 -4c20 -10 51 -40 51 -81v-20z" />
    <glyph glyph-name="copyright" unicode="&#xa9;" horiz-adv-x="692" 
d="M621 100c0 -100 -70 -170 -180 -170h-180c-110 0 -180 70 -180 170v290c0 100 70 170 180 170h180c110 0 180 -70 180 -170v-290zM576 100v290c0 74 -53 125 -135 125h-180c-82 0 -135 -51 -135 -125v-290c0 -74 53 -125 135 -125h180c82 0 135 51 135 125zM462 140
c-8 -12 -18 -23 -30 -32c-21 -16 -48 -26 -82 -26c-77 0 -127 49 -127 120v99c0 71 50 118 127 118c36 0 64 -12 85 -29c10 -8 19 -17 25 -27c4 -6 3 -11 -3 -14l-29 -15c-5 -3 -10 -2 -13 3c-18 25 -41 37 -65 37c-46 0 -74 -28 -74 -73v-99c0 -44 31 -74 74 -74
c26 0 48 13 66 39c3 5 8 6 13 3l29 -16c6 -3 8 -8 4 -14z" />
    <glyph glyph-name="Aacute" unicode="&#xc1;" horiz-adv-x="455" 
d="M367 785l-122 -93c-5 -4 -8 -5 -14 -5h-38c-7 0 -9 5 -5 11l70 93c3 4 6 6 13 6h93c7 0 9 -7 3 -12zM446 13c2 -8 -1 -13 -10 -13h-63c-5 0 -9 2 -10 7l-38 135c-1 5 -5 6 -10 6h-180c-5 0 -9 -1 -10 -6l-38 -135c-1 -5 -5 -7 -10 -7h-58c-9 0 -12 5 -10 13l186 610
c1 5 5 7 10 7h46c5 0 9 -2 10 -7zM299 230l-57 222c-9 36 -14 72 -14 72h-3s-5 -35 -15 -72l-60 -222c-2 -7 1 -13 10 -13h129c9 0 12 6 10 13z" />
    <glyph glyph-name="Acircumflex" unicode="&#xc2;" horiz-adv-x="455" 
d="M335 695c4 -6 1 -10 -6 -10h-48c-4 0 -7 2 -9 5l-36 56c-3 5 -10 5 -13 0l-36 -56c-2 -3 -6 -5 -10 -5h-48c-7 0 -9 4 -5 10l73 101c2 3 5 5 9 5h46c4 0 8 -2 10 -5zM446 13c2 -8 -1 -13 -10 -13h-63c-5 0 -9 2 -10 7l-38 135c-1 5 -5 6 -10 6h-180c-5 0 -9 -1 -10 -6
l-38 -135c-1 -5 -5 -7 -10 -7h-58c-9 0 -12 5 -10 13l186 610c1 5 5 7 10 7h46c5 0 9 -2 10 -7zM299 230l-57 222c-9 36 -14 72 -14 72h-3s-5 -35 -15 -72l-60 -222c-2 -7 1 -13 10 -13h129c9 0 12 6 10 13z" />
    <glyph glyph-name="Adieresis" unicode="&#xc4;" horiz-adv-x="455" 
d="M349 741c0 -24 -20 -46 -45 -46c-26 0 -44 21 -44 46c0 24 19 45 44 45c26 0 45 -20 45 -45zM199 741c0 -24 -21 -46 -46 -46c-26 0 -43 21 -43 46c0 24 17 45 43 45s46 -20 46 -45zM446 13c2 -8 -1 -13 -10 -13h-63c-5 0 -9 2 -10 7l-38 135c-1 5 -5 6 -10 6h-180
c-5 0 -9 -1 -10 -6l-38 -135c-1 -5 -5 -7 -10 -7h-58c-9 0 -12 5 -10 13l186 610c1 5 5 7 10 7h46c5 0 9 -2 10 -7zM299 230l-57 222c-9 36 -14 72 -14 72h-3s-5 -35 -15 -72l-60 -222c-2 -7 1 -13 10 -13h129c9 0 12 6 10 13z" />
    <glyph glyph-name="Agrave" unicode="&#xc0;" horiz-adv-x="455" 
d="M271 698c4 -6 2 -11 -5 -11h-38c-6 0 -9 1 -14 5l-122 93c-6 5 -4 12 3 12h93c7 0 10 -2 13 -6zM446 13c2 -8 -1 -13 -10 -13h-63c-5 0 -9 2 -10 7l-38 135c-1 5 -5 6 -10 6h-180c-5 0 -9 -1 -10 -6l-38 -135c-1 -5 -5 -7 -10 -7h-58c-9 0 -12 5 -10 13l186 610
c1 5 5 7 10 7h46c5 0 9 -2 10 -7zM299 230l-57 222c-9 36 -14 72 -14 72h-3s-5 -35 -15 -72l-60 -222c-2 -7 1 -13 10 -13h129c9 0 12 6 10 13z" />
    <glyph glyph-name="Aring" unicode="&#xc5;" horiz-adv-x="455" 
d="M446 13c2 -8 -1 -13 -10 -13h-63c-5 0 -9 2 -10 7l-38 135c-1 5 -5 6 -10 6h-180c-5 0 -9 -1 -10 -6l-38 -135c-1 -5 -5 -7 -10 -7h-58c-9 0 -12 5 -10 13l176 576c2 6 0 10 -5 13c-23 14 -37 39 -37 69v30c0 47 33 80 85 80c51 0 86 -32 86 -80v-30
c0 -30 -14 -55 -38 -69c-5 -3 -7 -6 -5 -12zM276 671v30c0 26 -21 45 -48 45s-47 -19 -47 -45v-30c0 -26 20 -46 47 -46s48 20 48 46zM299 230l-57 222c-9 36 -14 72 -14 72h-3s-5 -35 -15 -72l-60 -222c-2 -7 1 -13 10 -13h129c9 0 12 6 10 13z" />
    <glyph glyph-name="Atilde" unicode="&#xc3;" horiz-adv-x="455" 
d="M358 752c-28 -44 -53 -59 -82 -59c-40 0 -64 36 -96 36c-14 0 -29 -7 -46 -27c-5 -5 -9 -5 -12 -2l-21 18c-4 3 -4 6 -1 11c27 43 50 56 79 56c42 0 64 -33 96 -33c15 0 27 5 46 26c5 5 10 7 16 2l18 -14c5 -4 6 -9 3 -14zM446 13c2 -8 -1 -13 -10 -13h-63
c-5 0 -9 2 -10 7l-38 135c-1 5 -5 6 -10 6h-180c-5 0 -9 -1 -10 -6l-38 -135c-1 -5 -5 -7 -10 -7h-58c-9 0 -12 5 -10 13l186 610c1 5 5 7 10 7h46c5 0 9 -2 10 -7zM299 230l-57 222c-9 36 -14 72 -14 72h-3s-5 -35 -15 -72l-60 -222c-2 -7 1 -13 10 -13h129c9 0 12 6 10 13
z" />
    <glyph glyph-name="Ccedilla" unicode="&#xc7;" horiz-adv-x="459" 
d="M428 80c-11 -19 -24 -38 -42 -53c-26 -21 -61 -36 -111 -37c-7 0 -12 -2 -15 -8l-15 -32c-3 -5 -1 -10 4 -13c30 -15 43 -36 43 -69v-9c0 -53 -43 -88 -97 -88h-42c-7 0 -10 3 -10 10v28c0 7 3 10 10 10h42c23 0 40 17 40 40v9c0 23 -18 34 -40 39l-14 3c-5 1 -8 6 -5 12
l28 59c3 6 3 11 -5 12c-85 15 -138 78 -138 164v316c0 98 69 167 177 167h31c56 0 95 -16 122 -40c16 -14 28 -31 37 -48c3 -6 1 -11 -5 -14l-53 -26c-5 -3 -9 -1 -12 4c-21 35 -56 55 -89 55h-31c-54 0 -98 -43 -98 -98v-316c0 -53 43 -98 98 -98h31c34 0 68 20 89 57
c3 5 8 7 13 4l53 -27c6 -3 7 -7 4 -13z" />
    <glyph glyph-name="Eacute" unicode="&#xc9;" horiz-adv-x="461" 
d="M389 785l-122 -93c-5 -4 -8 -5 -14 -5h-38c-7 0 -9 5 -5 11l70 93c3 4 6 6 13 6h93c7 0 9 -7 3 -12zM430 10c0 -7 -3 -10 -10 -10h-334c-7 0 -10 3 -10 10v610c0 7 3 10 10 10h334c7 0 10 -3 10 -10v-49c0 -7 -3 -10 -10 -10h-256c-7 0 -10 -3 -10 -10v-187
c0 -7 3 -10 10 -10h210c7 0 10 -3 10 -10v-49c0 -7 -3 -10 -10 -10h-210c-7 0 -10 -3 -10 -10v-196c0 -7 3 -10 10 -10h256c7 0 10 -3 10 -10v-49z" />
    <glyph glyph-name="Ecircumflex" unicode="&#xca;" horiz-adv-x="461" 
d="M357 695c4 -6 1 -10 -6 -10h-48c-4 0 -7 2 -9 5l-36 56c-3 5 -10 5 -13 0l-36 -56c-2 -3 -6 -5 -10 -5h-48c-7 0 -9 4 -5 10l73 101c2 3 5 5 9 5h46c4 0 8 -2 10 -5zM430 10c0 -7 -3 -10 -10 -10h-334c-7 0 -10 3 -10 10v610c0 7 3 10 10 10h334c7 0 10 -3 10 -10v-49
c0 -7 -3 -10 -10 -10h-256c-7 0 -10 -3 -10 -10v-187c0 -7 3 -10 10 -10h210c7 0 10 -3 10 -10v-49c0 -7 -3 -10 -10 -10h-210c-7 0 -10 -3 -10 -10v-196c0 -7 3 -10 10 -10h256c7 0 10 -3 10 -10v-49z" />
    <glyph glyph-name="Edieresis" unicode="&#xcb;" horiz-adv-x="461" 
d="M371 741c0 -24 -20 -46 -45 -46c-26 0 -44 21 -44 46c0 24 19 45 44 45c26 0 45 -20 45 -45zM221 741c0 -24 -21 -46 -46 -46c-26 0 -43 21 -43 46c0 24 17 45 43 45s46 -20 46 -45zM430 10c0 -7 -3 -10 -10 -10h-334c-7 0 -10 3 -10 10v610c0 7 3 10 10 10h334
c7 0 10 -3 10 -10v-49c0 -7 -3 -10 -10 -10h-256c-7 0 -10 -3 -10 -10v-187c0 -7 3 -10 10 -10h210c7 0 10 -3 10 -10v-49c0 -7 -3 -10 -10 -10h-210c-7 0 -10 -3 -10 -10v-196c0 -7 3 -10 10 -10h256c7 0 10 -3 10 -10v-49z" />
    <glyph glyph-name="Egrave" unicode="&#xc8;" horiz-adv-x="461" 
d="M293 698c4 -6 2 -11 -5 -11h-38c-6 0 -9 1 -14 5l-122 93c-6 5 -4 12 3 12h93c7 0 10 -2 13 -6zM430 10c0 -7 -3 -10 -10 -10h-334c-7 0 -10 3 -10 10v610c0 7 3 10 10 10h334c7 0 10 -3 10 -10v-49c0 -7 -3 -10 -10 -10h-256c-7 0 -10 -3 -10 -10v-187
c0 -7 3 -10 10 -10h210c7 0 10 -3 10 -10v-49c0 -7 -3 -10 -10 -10h-210c-7 0 -10 -3 -10 -10v-196c0 -7 3 -10 10 -10h256c7 0 10 -3 10 -10v-49z" />
    <glyph glyph-name="Iacute" unicode="&#xcd;" horiz-adv-x="230" 
d="M253 785l-122 -93c-5 -4 -8 -5 -14 -5h-38c-7 0 -9 5 -5 11l70 93c3 4 6 6 13 6h93c7 0 9 -7 3 -12zM154 10c0 -7 -3 -10 -10 -10h-58c-7 0 -10 3 -10 10v610c0 7 3 10 10 10h58c7 0 10 -3 10 -10v-610z" />
    <glyph glyph-name="Icircumflex" unicode="&#xce;" horiz-adv-x="230" 
d="M221 695c4 -6 1 -10 -6 -10h-48c-4 0 -7 2 -9 5l-36 56c-3 5 -10 5 -13 0l-36 -56c-2 -3 -6 -5 -10 -5h-48c-7 0 -9 4 -5 10l73 101c2 3 5 5 9 5h46c4 0 8 -2 10 -5zM154 10c0 -7 -3 -10 -10 -10h-58c-7 0 -10 3 -10 10v610c0 7 3 10 10 10h58c7 0 10 -3 10 -10v-610z
" />
    <glyph glyph-name="Idieresis" unicode="&#xcf;" horiz-adv-x="230" 
d="M235 741c0 -24 -20 -46 -45 -46c-26 0 -44 21 -44 46c0 24 19 45 44 45c26 0 45 -20 45 -45zM85 741c0 -24 -21 -46 -46 -46c-26 0 -43 21 -43 46c0 24 17 45 43 45s46 -20 46 -45zM154 10c0 -7 -3 -10 -10 -10h-58c-7 0 -10 3 -10 10v610c0 7 3 10 10 10h58
c7 0 10 -3 10 -10v-610z" />
    <glyph glyph-name="Igrave" unicode="&#xcc;" horiz-adv-x="230" 
d="M157 698c4 -6 2 -11 -5 -11h-38c-6 0 -9 1 -14 5l-122 93c-6 5 -4 12 3 12h93c7 0 10 -2 13 -6zM154 10c0 -7 -3 -10 -10 -10h-58c-7 0 -10 3 -10 10v610c0 7 3 10 10 10h58c7 0 10 -3 10 -10v-610z" />
    <glyph glyph-name="Ntilde" unicode="&#xd1;" horiz-adv-x="552" 
d="M403 752c-28 -44 -53 -59 -82 -59c-40 0 -64 36 -96 36c-14 0 -29 -7 -46 -27c-5 -5 -9 -5 -12 -2l-21 18c-4 3 -4 6 -1 11c27 43 50 56 79 56c42 0 64 -33 96 -33c15 0 27 5 46 26c5 5 10 7 16 2l18 -14c5 -4 6 -9 3 -14zM476 10c0 -7 -3 -10 -10 -10h-56
c-3 0 -7 2 -9 5l-228 414c-7 12 -15 33 -19 47h-3c2 -36 3 -138 3 -244v-212c0 -7 -3 -10 -10 -10h-58c-7 0 -10 3 -10 10v610c0 7 3 10 10 10h55c4 0 7 -2 9 -5l228 -417c5 -9 14 -30 18 -43h3c-1 41 -2 161 -2 240v215c0 7 3 10 10 10h59c7 0 10 -3 10 -10v-610z" />
    <glyph glyph-name="Oacute" unicode="&#xd3;" horiz-adv-x="508" 
d="M392 785l-122 -93c-5 -4 -8 -5 -14 -5h-38c-7 0 -9 5 -5 11l70 93c3 4 6 6 13 6h93c7 0 9 -7 3 -12zM447 157c0 -98 -69 -167 -177 -167h-31c-108 0 -177 68 -177 167v316c0 98 69 167 177 167h31c108 0 177 -68 177 -167v-316zM368 157v316c0 54 -44 98 -98 98h-31
c-54 0 -98 -43 -98 -98v-316c0 -53 43 -98 98 -98h31c53 0 98 44 98 98z" />
    <glyph glyph-name="Ocircumflex" unicode="&#xd4;" horiz-adv-x="508" 
d="M360 695c4 -6 1 -10 -6 -10h-48c-4 0 -7 2 -9 5l-36 56c-3 5 -10 5 -13 0l-36 -56c-2 -3 -6 -5 -10 -5h-48c-7 0 -9 4 -5 10l73 101c2 3 5 5 9 5h46c4 0 8 -2 10 -5zM447 157c0 -98 -69 -167 -177 -167h-31c-108 0 -177 68 -177 167v316c0 98 69 167 177 167h31
c108 0 177 -68 177 -167v-316zM368 157v316c0 54 -44 98 -98 98h-31c-54 0 -98 -43 -98 -98v-316c0 -53 43 -98 98 -98h31c53 0 98 44 98 98z" />
    <glyph glyph-name="Odieresis" unicode="&#xd6;" horiz-adv-x="508" 
d="M374 741c0 -24 -20 -46 -45 -46c-26 0 -44 21 -44 46c0 24 19 45 44 45c26 0 45 -20 45 -45zM224 741c0 -24 -21 -46 -46 -46c-26 0 -43 21 -43 46c0 24 17 45 43 45s46 -20 46 -45zM447 157c0 -98 -69 -167 -177 -167h-31c-108 0 -177 68 -177 167v316
c0 98 69 167 177 167h31c108 0 177 -68 177 -167v-316zM368 157v316c0 54 -44 98 -98 98h-31c-54 0 -98 -43 -98 -98v-316c0 -53 43 -98 98 -98h31c53 0 98 44 98 98z" />
    <glyph glyph-name="Ograve" unicode="&#xd2;" horiz-adv-x="508" 
d="M296 698c4 -6 2 -11 -5 -11h-38c-6 0 -9 1 -14 5l-122 93c-6 5 -4 12 3 12h93c7 0 10 -2 13 -6zM447 157c0 -98 -69 -167 -177 -167h-31c-108 0 -177 68 -177 167v316c0 98 69 167 177 167h31c108 0 177 -68 177 -167v-316zM368 157v316c0 54 -44 98 -98 98h-31
c-54 0 -98 -43 -98 -98v-316c0 -53 43 -98 98 -98h31c53 0 98 44 98 98z" />
    <glyph glyph-name="Otilde" unicode="&#xd5;" horiz-adv-x="508" 
d="M383 752c-28 -44 -53 -59 -82 -59c-40 0 -64 36 -96 36c-14 0 -29 -7 -46 -27c-5 -5 -9 -5 -12 -2l-21 18c-4 3 -4 6 -1 11c27 43 50 56 79 56c42 0 64 -33 96 -33c15 0 27 5 46 26c5 5 10 7 16 2l18 -14c5 -4 6 -9 3 -14zM447 157c0 -98 -69 -167 -177 -167h-31
c-108 0 -177 68 -177 167v316c0 98 69 167 177 167h31c108 0 177 -68 177 -167v-316zM368 157v316c0 54 -44 98 -98 98h-31c-54 0 -98 -43 -98 -98v-316c0 -53 43 -98 98 -98h31c53 0 98 44 98 98z" />
    <glyph glyph-name="Scaron" unicode="&#x160;" horiz-adv-x="472" 
d="M342 791l-73 -101c-2 -4 -5 -5 -9 -5h-46c-4 0 -8 1 -10 5l-73 101c-4 6 -1 10 6 10h48c4 0 7 -2 9 -5l36 -56c3 -6 10 -5 13 0l36 56c2 3 6 5 10 5h48c7 0 9 -4 5 -10zM425 157c0 -98 -68 -167 -177 -167h-43c-53 0 -90 14 -116 35c-18 15 -32 34 -42 54
c-3 6 -2 11 4 14l52 27c6 3 11 1 14 -5c20 -37 54 -56 88 -56h43c54 0 99 43 99 98c0 67 -61 96 -128 126c-77 35 -164 74 -164 190c0 96 71 167 177 167h16c50 0 87 -13 113 -33c20 -15 35 -35 46 -55c3 -6 1 -11 -5 -14l-53 -26c-5 -3 -9 -1 -12 4c-21 36 -55 55 -89 55
h-16c-60 0 -98 -40 -98 -98c0 -60 65 -87 136 -119c75 -34 155 -79 155 -197z" />
    <glyph glyph-name="Uacute" unicode="&#xda;" horiz-adv-x="527" 
d="M402 785l-122 -93c-5 -4 -8 -5 -14 -5h-38c-7 0 -9 5 -5 11l70 93c3 4 6 6 13 6h93c7 0 9 -7 3 -12zM456 157c0 -98 -69 -167 -177 -167h-31c-108 0 -177 68 -177 167v463c0 7 3 10 10 10h59c7 0 10 -3 10 -10v-463c0 -53 43 -98 98 -98h31c53 0 98 44 98 98v463
c0 7 3 10 10 10h59c7 0 10 -3 10 -10v-463z" />
    <glyph glyph-name="Ucircumflex" unicode="&#xdb;" horiz-adv-x="527" 
d="M370 695c4 -6 1 -10 -6 -10h-48c-4 0 -7 2 -9 5l-36 56c-3 5 -10 5 -13 0l-36 -56c-2 -3 -6 -5 -10 -5h-48c-7 0 -9 4 -5 10l73 101c2 3 5 5 9 5h46c4 0 8 -2 10 -5zM456 157c0 -98 -69 -167 -177 -167h-31c-108 0 -177 68 -177 167v463c0 7 3 10 10 10h59
c7 0 10 -3 10 -10v-463c0 -53 43 -98 98 -98h31c53 0 98 44 98 98v463c0 7 3 10 10 10h59c7 0 10 -3 10 -10v-463z" />
    <glyph glyph-name="Udieresis" unicode="&#xdc;" horiz-adv-x="527" 
d="M384 741c0 -24 -20 -46 -45 -46c-26 0 -44 21 -44 46c0 24 19 45 44 45c26 0 45 -20 45 -45zM234 741c0 -24 -21 -46 -46 -46c-26 0 -43 21 -43 46c0 24 17 45 43 45s46 -20 46 -45zM456 157c0 -98 -69 -167 -177 -167h-31c-108 0 -177 68 -177 167v463c0 7 3 10 10 10
h59c7 0 10 -3 10 -10v-463c0 -53 43 -98 98 -98h31c53 0 98 44 98 98v463c0 7 3 10 10 10h59c7 0 10 -3 10 -10v-463z" />
    <glyph glyph-name="Ugrave" unicode="&#xd9;" horiz-adv-x="527" 
d="M306 698c4 -6 2 -11 -5 -11h-38c-6 0 -9 1 -14 5l-122 93c-6 5 -4 12 3 12h93c7 0 10 -2 13 -6zM456 157c0 -98 -69 -167 -177 -167h-31c-108 0 -177 68 -177 167v463c0 7 3 10 10 10h59c7 0 10 -3 10 -10v-463c0 -53 43 -98 98 -98h31c53 0 98 44 98 98v463
c0 7 3 10 10 10h59c7 0 10 -3 10 -10v-463z" />
    <glyph glyph-name="Yacute" unicode="&#xdd;" horiz-adv-x="415" 
d="M346 785l-122 -93c-5 -4 -8 -5 -14 -5h-38c-7 0 -9 5 -5 11l70 93c3 4 6 6 13 6h93c7 0 9 -7 3 -12zM420 615l-173 -325v-280c0 -7 -3 -10 -10 -10h-59c-7 0 -10 3 -10 10v280l-173 325c-5 9 -1 15 9 15h70c4 0 7 -3 9 -6l116 -240c5 -10 13 -10 18 0l116 240
c2 3 5 6 9 6h69c10 0 14 -6 9 -15z" />
    <glyph glyph-name="Ydieresis" unicode="&#x178;" horiz-adv-x="415" 
d="M328 731c0 -24 -20 -46 -45 -46c-26 0 -44 21 -44 46c0 24 19 45 44 45c26 0 45 -20 45 -45zM178 731c0 -24 -21 -46 -46 -46c-26 0 -43 21 -43 46c0 24 17 45 43 45s46 -20 46 -45zM420 615l-173 -325v-280c0 -7 -3 -10 -10 -10h-59c-7 0 -10 3 -10 10v280l-173 325
c-5 9 -1 15 9 15h70c4 0 7 -3 9 -6l116 -240c5 -10 13 -10 18 0l116 240c2 3 5 6 9 6h69c10 0 14 -6 9 -15z" />
    <glyph glyph-name="Zcaron" unicode="&#x17d;" horiz-adv-x="409" 
d="M301 791l-73 -101c-2 -4 -5 -5 -9 -5h-46c-4 0 -8 1 -10 5l-73 101c-4 6 -1 10 6 10h48c4 0 7 -2 9 -5l36 -56c3 -6 10 -5 13 0l36 56c2 3 6 5 10 5h48c7 0 9 -4 5 -10zM388 10c0 -7 -3 -10 -10 -10h-344c-9 0 -13 6 -9 14l235 533c4 8 0 14 -9 14h-207
c-7 0 -10 3 -10 10v49c0 7 3 10 10 10h322c9 0 13 -6 9 -14l-237 -533c-4 -8 0 -14 9 -14h231c7 0 10 -3 10 -10v-49z" />
    <glyph glyph-name="aacute" unicode="&#xe1;" horiz-adv-x="445" 
d="M350 616l-117 -110c-4 -4 -11 -6 -16 -6h-27c-11 0 -13 7 -8 15l72 110c3 4 9 8 13 8h76c11 0 15 -9 7 -17zM384 10c0 -7 -3 -10 -10 -10h-48c-7 0 -10 3 -10 10v28c0 11 -10 16 -18 8c-29 -29 -64 -46 -87 -46h-39c-72 0 -130 48 -130 121v6c0 73 58 120 130 120h123
c7 0 10 3 10 10v34c0 54 -44 96 -99 96c-33 0 -66 -17 -88 -55c-3 -5 -8 -7 -14 -4l-51 27c-6 3 -8 8 -4 14c11 18 24 35 41 48c28 23 66 38 116 38c108 0 178 -65 178 -164v-281zM305 148v31c0 7 -3 10 -10 10h-123c-29 0 -52 -23 -52 -52v-16c0 -28 23 -52 52 -52h39
c43 0 82 39 94 79z" />
    <glyph glyph-name="acircumflex" unicode="&#xe2;" horiz-adv-x="445" 
d="M326 516c6 -9 3 -16 -8 -16h-41c-3 0 -6 2 -8 5l-44 65c-5 7 -11 7 -16 0l-45 -65c-2 -3 -5 -5 -8 -5h-41c-11 0 -14 8 -8 16l85 115c2 2 5 4 8 4h33c3 0 6 -2 8 -4zM384 10c0 -7 -3 -10 -10 -10h-48c-7 0 -10 3 -10 10v28c0 11 -10 16 -18 8c-29 -29 -64 -46 -87 -46
h-39c-72 0 -130 48 -130 121v6c0 73 58 120 130 120h123c7 0 10 3 10 10v34c0 54 -44 96 -99 96c-33 0 -66 -17 -88 -55c-3 -5 -8 -7 -14 -4l-51 27c-6 3 -8 8 -4 14c11 18 24 35 41 48c28 23 66 38 116 38c108 0 178 -65 178 -164v-281zM305 148v31c0 7 -3 10 -10 10h-123
c-29 0 -52 -23 -52 -52v-16c0 -28 23 -52 52 -52h39c43 0 82 39 94 79z" />
    <glyph glyph-name="adieresis" unicode="&#xe4;" horiz-adv-x="445" 
d="M343 564c0 -25 -21 -48 -47 -48s-47 22 -47 48s21 46 47 46s47 -20 47 -46zM184 564c0 -26 -21 -48 -47 -48s-47 22 -47 48s21 46 47 46s47 -20 47 -46zM384 10c0 -7 -3 -10 -10 -10h-48c-7 0 -10 3 -10 10v28c0 11 -10 16 -18 8c-29 -29 -64 -46 -87 -46h-39
c-72 0 -130 48 -130 121v6c0 73 58 120 130 120h123c7 0 10 3 10 10v34c0 54 -44 96 -99 96c-33 0 -66 -17 -88 -55c-3 -5 -8 -7 -14 -4l-51 27c-6 3 -8 8 -4 14c11 18 24 35 41 48c28 23 66 38 116 38c108 0 178 -65 178 -164v-281zM305 148v31c0 7 -3 10 -10 10h-123
c-29 0 -52 -23 -52 -52v-16c0 -28 23 -52 52 -52h39c43 0 82 39 94 79z" />
    <glyph glyph-name="agrave" unicode="&#xe0;" horiz-adv-x="445" 
d="M251 515c5 -8 3 -15 -8 -15h-27c-5 0 -12 2 -16 6l-117 110c-8 8 -4 17 7 17h76c4 0 10 -4 13 -8zM384 10c0 -7 -3 -10 -10 -10h-48c-7 0 -10 3 -10 10v28c0 11 -10 16 -18 8c-29 -29 -64 -46 -87 -46h-39c-72 0 -130 48 -130 121v6c0 73 58 120 130 120h123
c7 0 10 3 10 10v34c0 54 -44 96 -99 96c-33 0 -66 -17 -88 -55c-3 -5 -8 -7 -14 -4l-51 27c-6 3 -8 8 -4 14c11 18 24 35 41 48c28 23 66 38 116 38c108 0 178 -65 178 -164v-281zM305 148v31c0 7 -3 10 -10 10h-123c-29 0 -52 -23 -52 -52v-16c0 -28 23 -52 52 -52h39
c43 0 82 39 94 79z" />
    <glyph glyph-name="aring" unicode="&#xe5;" horiz-adv-x="445" 
d="M302 581c0 -47 -34 -81 -86 -81s-85 33 -85 81v30c0 47 33 80 85 80c51 0 86 -32 86 -80v-30zM384 10c0 -7 -3 -10 -10 -10h-48c-7 0 -10 3 -10 10v28c0 11 -10 16 -18 8c-29 -29 -64 -46 -87 -46h-39c-72 0 -130 48 -130 121v6c0 73 58 120 130 120h123c7 0 10 3 10 10
v34c0 54 -44 96 -99 96c-33 0 -66 -17 -88 -55c-3 -5 -8 -7 -14 -4l-51 27c-6 3 -8 8 -4 14c11 18 24 35 41 48c28 23 66 38 116 38c108 0 178 -65 178 -164v-281zM264 581v30c0 26 -21 45 -48 45s-47 -19 -47 -45v-30c0 -26 20 -46 47 -46s48 20 48 46zM305 148v31
c0 7 -3 10 -10 10h-123c-29 0 -52 -23 -52 -52v-16c0 -28 23 -52 52 -52h39c43 0 82 39 94 79z" />
    <glyph glyph-name="atilde" unicode="&#xe3;" horiz-adv-x="445" 
d="M359 572c-24 -42 -52 -64 -83 -64c-19 0 -40 9 -62 25l-20 14c-12 9 -26 14 -39 14c-16 0 -32 -7 -50 -27c-4 -5 -8 -6 -13 -2l-16 12c-5 4 -6 8 -3 13c25 43 51 62 82 62c21 0 40 -6 61 -23l20 -16c11 -9 27 -13 40 -13c16 0 34 8 52 28c4 5 8 5 13 1l15 -11
c5 -4 6 -8 3 -13zM384 10c0 -7 -3 -10 -10 -10h-48c-7 0 -10 3 -10 10v28c0 11 -10 16 -18 8c-29 -29 -64 -46 -87 -46h-39c-72 0 -130 48 -130 121v6c0 73 58 120 130 120h123c7 0 10 3 10 10v34c0 54 -44 96 -99 96c-33 0 -66 -17 -88 -55c-3 -5 -8 -7 -14 -4l-51 27
c-6 3 -8 8 -4 14c11 18 24 35 41 48c28 23 66 38 116 38c108 0 178 -65 178 -164v-281zM305 148v31c0 7 -3 10 -10 10h-123c-29 0 -52 -23 -52 -52v-16c0 -28 23 -52 52 -52h39c43 0 82 39 94 79z" />
    <glyph glyph-name="ccedilla" unicode="&#xe7;" horiz-adv-x="418" 
d="M387 80c-11 -21 -26 -41 -46 -56c-21 -17 -49 -29 -85 -33c-6 -1 -14 -4 -17 -11l-14 -30c-2 -5 -1 -10 4 -13c30 -15 43 -36 43 -69v-9c0 -53 -43 -88 -97 -88h-42c-7 0 -10 3 -10 10v28c0 7 3 10 10 10h42c23 0 40 17 40 40v9c0 23 -18 34 -40 39l-14 3
c-5 1 -8 6 -5 12l28 59c3 6 2 13 -6 15c-79 19 -127 82 -127 161v133c0 95 69 166 177 166c53 0 89 -14 116 -35c19 -14 32 -33 43 -52c3 -6 1 -11 -5 -14l-53 -27c-5 -3 -9 -1 -12 4c-21 35 -55 56 -89 56c-62 0 -98 -44 -98 -98v-133c0 -54 36 -98 98 -98
c34 0 68 20 89 57c3 5 8 7 13 4l53 -27c6 -3 7 -7 4 -13z" />
    <glyph glyph-name="eacute" unicode="&#xe9;" horiz-adv-x="456" 
d="M360 616l-117 -110c-4 -4 -11 -6 -16 -6h-27c-11 0 -13 7 -8 15l72 110c3 4 9 8 13 8h76c11 0 15 -9 7 -17zM405 224c0 -7 -3 -10 -10 -10h-255c-7 0 -10 -3 -10 -10v-47c0 -53 44 -98 98 -98c34 0 68 20 89 57c3 5 8 7 13 4l53 -27c6 -3 7 -7 4 -13
c-11 -21 -26 -41 -46 -56c-26 -21 -62 -34 -113 -34c-108 0 -177 68 -177 167v133c0 95 69 166 177 166c106 0 177 -70 177 -166v-66zM326 283v12c0 51 -41 93 -98 93c-62 0 -98 -44 -98 -98v-11c0 -5 5 -6 10 -6h176c7 0 10 3 10 10z" />
    <glyph glyph-name="ecircumflex" unicode="&#xea;" horiz-adv-x="456" 
d="M336 516c6 -9 3 -16 -8 -16h-41c-3 0 -6 2 -8 5l-44 65c-5 7 -11 7 -16 0l-45 -65c-2 -3 -5 -5 -8 -5h-41c-11 0 -14 8 -8 16l85 115c2 2 5 4 8 4h33c3 0 6 -2 8 -4zM405 224c0 -7 -3 -10 -10 -10h-255c-7 0 -10 -3 -10 -10v-47c0 -53 44 -98 98 -98c34 0 68 20 89 57
c3 5 8 7 13 4l53 -27c6 -3 7 -7 4 -13c-11 -21 -26 -41 -46 -56c-26 -21 -62 -34 -113 -34c-108 0 -177 68 -177 167v133c0 95 69 166 177 166c106 0 177 -70 177 -166v-66zM326 283v12c0 51 -41 93 -98 93c-62 0 -98 -44 -98 -98v-11c0 -5 5 -6 10 -6h176c7 0 10 3 10 10z
" />
    <glyph glyph-name="edieresis" unicode="&#xeb;" horiz-adv-x="456" 
d="M353 564c0 -25 -21 -48 -47 -48s-47 22 -47 48s21 46 47 46s47 -20 47 -46zM194 564c0 -26 -21 -48 -47 -48s-47 22 -47 48s21 46 47 46s47 -20 47 -46zM405 224c0 -7 -3 -10 -10 -10h-255c-7 0 -10 -3 -10 -10v-47c0 -53 44 -98 98 -98c34 0 68 20 89 57c3 5 8 7 13 4
l53 -27c6 -3 7 -7 4 -13c-11 -21 -26 -41 -46 -56c-26 -21 -62 -34 -113 -34c-108 0 -177 68 -177 167v133c0 95 69 166 177 166c106 0 177 -70 177 -166v-66zM326 283v12c0 51 -41 93 -98 93c-62 0 -98 -44 -98 -98v-11c0 -5 5 -6 10 -6h176c7 0 10 3 10 10z" />
    <glyph glyph-name="egrave" unicode="&#xe8;" horiz-adv-x="456" 
d="M261 515c5 -8 3 -15 -8 -15h-27c-5 0 -12 2 -16 6l-117 110c-8 8 -4 17 7 17h76c4 0 10 -4 13 -8zM405 224c0 -7 -3 -10 -10 -10h-255c-7 0 -10 -3 -10 -10v-47c0 -53 44 -98 98 -98c34 0 68 20 89 57c3 5 8 7 13 4l53 -27c6 -3 7 -7 4 -13c-11 -21 -26 -41 -46 -56
c-26 -21 -62 -34 -113 -34c-108 0 -177 68 -177 167v133c0 95 69 166 177 166c106 0 177 -70 177 -166v-66zM326 283v12c0 51 -41 93 -98 93c-62 0 -98 -44 -98 -98v-11c0 -5 5 -6 10 -6h176c7 0 10 3 10 10z" />
    <glyph glyph-name="iacute" unicode="&#xed;" horiz-adv-x="211" 
d="M239 616l-117 -110c-4 -4 -11 -6 -16 -6h-27c-11 0 -13 7 -8 15l72 110c3 4 9 8 13 8h76c11 0 15 -9 7 -17zM145 10c0 -7 -3 -10 -10 -10h-59c-7 0 -10 3 -10 10v426c0 7 3 10 10 10h59c7 0 10 -3 10 -10v-426z" />
    <glyph glyph-name="icircumflex" unicode="&#xee;" horiz-adv-x="211" 
d="M215 516c6 -9 3 -16 -8 -16h-41c-3 0 -6 2 -8 5l-44 65c-5 7 -11 7 -16 0l-45 -65c-2 -3 -5 -5 -8 -5h-41c-11 0 -14 8 -8 16l85 115c2 2 5 4 8 4h33c3 0 6 -2 8 -4zM145 10c0 -7 -3 -10 -10 -10h-59c-7 0 -10 3 -10 10v426c0 7 3 10 10 10h59c7 0 10 -3 10 -10v-426z
" />
    <glyph glyph-name="idieresis" unicode="&#xef;" horiz-adv-x="211" 
d="M232 564c0 -25 -21 -48 -47 -48s-47 22 -47 48s21 46 47 46s47 -20 47 -46zM73 564c0 -26 -21 -48 -47 -48s-47 22 -47 48s21 46 47 46s47 -20 47 -46zM145 10c0 -7 -3 -10 -10 -10h-59c-7 0 -10 3 -10 10v426c0 7 3 10 10 10h59c7 0 10 -3 10 -10v-426z" />
    <glyph glyph-name="igrave" unicode="&#xec;" horiz-adv-x="211" 
d="M140 515c5 -8 3 -15 -8 -15h-27c-5 0 -12 2 -16 6l-117 110c-8 8 -4 17 7 17h76c4 0 10 -4 13 -8zM145 10c0 -7 -3 -10 -10 -10h-59c-7 0 -10 3 -10 10v426c0 7 3 10 10 10h59c7 0 10 -3 10 -10v-426z" />
    <glyph glyph-name="ntilde" unicode="&#xf1;" horiz-adv-x="482" 
d="M394 572c-24 -42 -52 -64 -83 -64c-19 0 -40 9 -62 25l-20 14c-12 9 -26 14 -39 14c-16 0 -32 -7 -50 -27c-4 -5 -8 -6 -13 -2l-16 12c-5 4 -6 8 -3 13c25 43 51 62 82 62c21 0 40 -6 61 -23l20 -16c11 -9 27 -13 40 -13c16 0 34 8 52 28c4 5 8 5 13 1l15 -11
c5 -4 6 -8 3 -13zM421 10c0 -7 -3 -10 -10 -10h-59c-7 0 -10 3 -10 10v270c0 53 -45 98 -99 98s-98 -44 -98 -98v-270c0 -7 -3 -10 -10 -10h-59c-7 0 -10 3 -10 10v426c0 7 3 10 10 10h49c7 0 10 -3 10 -10v-26c0 -11 10 -16 17 -7c27 32 60 43 91 43
c108 0 178 -68 178 -166v-270z" />
    <glyph glyph-name="oacute" unicode="&#xf3;" horiz-adv-x="456" 
d="M363 616l-117 -110c-4 -4 -11 -6 -16 -6h-27c-11 0 -13 7 -8 15l72 110c3 4 9 8 13 8h76c11 0 15 -9 7 -17zM405 156c0 -95 -69 -166 -177 -166c-106 0 -177 70 -177 166v134c0 95 69 166 177 166c106 0 177 -70 177 -166v-134zM326 156v139c0 51 -41 93 -98 93
c-62 0 -98 -44 -98 -98v-139c0 -51 41 -93 98 -93c62 0 98 44 98 98z" />
    <glyph glyph-name="ocircumflex" unicode="&#xf4;" horiz-adv-x="456" 
d="M339 516c6 -9 3 -16 -8 -16h-41c-3 0 -6 2 -8 5l-44 65c-5 7 -11 7 -16 0l-45 -65c-2 -3 -5 -5 -8 -5h-41c-11 0 -14 8 -8 16l85 115c2 2 5 4 8 4h33c3 0 6 -2 8 -4zM405 156c0 -95 -69 -166 -177 -166c-106 0 -177 70 -177 166v134c0 95 69 166 177 166
c106 0 177 -70 177 -166v-134zM326 156v139c0 51 -41 93 -98 93c-62 0 -98 -44 -98 -98v-139c0 -51 41 -93 98 -93c62 0 98 44 98 98z" />
    <glyph glyph-name="odieresis" unicode="&#xf6;" horiz-adv-x="456" 
d="M356 564c0 -25 -21 -48 -47 -48s-47 22 -47 48s21 46 47 46s47 -20 47 -46zM197 564c0 -26 -21 -48 -47 -48s-47 22 -47 48s21 46 47 46s47 -20 47 -46zM405 156c0 -95 -69 -166 -177 -166c-106 0 -177 70 -177 166v134c0 95 69 166 177 166c106 0 177 -70 177 -166v-134
zM326 156v139c0 51 -41 93 -98 93c-62 0 -98 -44 -98 -98v-139c0 -51 41 -93 98 -93c62 0 98 44 98 98z" />
    <glyph glyph-name="ograve" unicode="&#xf2;" horiz-adv-x="456" 
d="M264 515c5 -8 3 -15 -8 -15h-27c-5 0 -12 2 -16 6l-117 110c-8 8 -4 17 7 17h76c4 0 10 -4 13 -8zM405 156c0 -95 -69 -166 -177 -166c-106 0 -177 70 -177 166v134c0 95 69 166 177 166c106 0 177 -70 177 -166v-134zM326 156v139c0 51 -41 93 -98 93
c-62 0 -98 -44 -98 -98v-139c0 -51 41 -93 98 -93c62 0 98 44 98 98z" />
    <glyph glyph-name="otilde" unicode="&#xf5;" horiz-adv-x="456" 
d="M372 572c-24 -42 -52 -64 -83 -64c-19 0 -40 9 -62 25l-20 14c-12 9 -26 14 -39 14c-16 0 -32 -7 -50 -27c-4 -5 -8 -6 -13 -2l-16 12c-5 4 -6 8 -3 13c25 43 51 62 82 62c21 0 40 -6 61 -23l20 -16c11 -9 27 -13 40 -13c16 0 34 8 52 28c4 5 8 5 13 1l15 -11
c5 -4 6 -8 3 -13zM405 156c0 -95 -69 -166 -177 -166c-106 0 -177 70 -177 166v134c0 95 69 166 177 166c106 0 177 -70 177 -166v-134zM326 156v139c0 51 -41 93 -98 93c-62 0 -98 -44 -98 -98v-139c0 -51 41 -93 98 -93c62 0 98 44 98 98z" />
    <glyph glyph-name="scaron" unicode="&#x161;" horiz-adv-x="429" 
d="M325 619l-85 -115c-2 -2 -5 -4 -8 -4h-33c-3 0 -6 2 -8 4l-85 115c-6 8 -3 16 8 16h42c3 0 6 -2 8 -5l44 -64c5 -7 11 -7 16 0l43 64c2 3 5 5 8 5h42c11 0 14 -7 8 -16zM390 134c0 -79 -55 -144 -162 -144h-30c-56 0 -93 16 -119 39c-17 14 -29 32 -38 49
c-3 6 -1 10 5 13l48 24c6 3 10 1 13 -4c18 -33 54 -56 91 -56h30c56 0 84 32 84 69c0 49 -65 56 -135 70c-66 13 -137 42 -137 126c0 91 68 136 158 136h30c51 0 87 -14 113 -33c20 -15 34 -34 44 -53c3 -6 1 -11 -5 -14l-48 -24c-5 -3 -10 -1 -13 4c-20 33 -52 55 -91 55
h-30c-58 0 -81 -28 -81 -61c0 -55 65 -60 133 -74c76 -16 140 -41 140 -122z" />
    <glyph glyph-name="uacute" unicode="&#xfa;" horiz-adv-x="481" 
d="M372 616l-117 -110c-4 -4 -11 -6 -16 -6h-27c-11 0 -13 7 -8 15l72 110c3 4 9 8 13 8h76c11 0 15 -9 7 -17zM415 10c0 -7 -3 -10 -10 -10h-48c-7 0 -10 3 -10 10v28c0 11 -11 16 -18 7c-26 -32 -60 -45 -91 -45c-108 0 -177 69 -177 167v269c0 7 3 10 10 10h59
c7 0 10 -3 10 -10v-269c0 -53 44 -98 98 -98s99 43 99 98v269c0 7 3 10 10 10h58c7 0 10 -3 10 -10v-426z" />
    <glyph glyph-name="ucircumflex" unicode="&#xfb;" horiz-adv-x="481" 
d="M348 516c6 -9 3 -16 -8 -16h-41c-3 0 -6 2 -8 5l-44 65c-5 7 -11 7 -16 0l-45 -65c-2 -3 -5 -5 -8 -5h-41c-11 0 -14 8 -8 16l85 115c2 2 5 4 8 4h33c3 0 6 -2 8 -4zM415 10c0 -7 -3 -10 -10 -10h-48c-7 0 -10 3 -10 10v28c0 11 -11 16 -18 7c-26 -32 -60 -45 -91 -45
c-108 0 -177 69 -177 167v269c0 7 3 10 10 10h59c7 0 10 -3 10 -10v-269c0 -53 44 -98 98 -98s99 43 99 98v269c0 7 3 10 10 10h58c7 0 10 -3 10 -10v-426z" />
    <glyph glyph-name="udieresis" unicode="&#xfc;" horiz-adv-x="481" 
d="M365 564c0 -25 -21 -48 -47 -48s-47 22 -47 48s21 46 47 46s47 -20 47 -46zM206 564c0 -26 -21 -48 -47 -48s-47 22 -47 48s21 46 47 46s47 -20 47 -46zM415 10c0 -7 -3 -10 -10 -10h-48c-7 0 -10 3 -10 10v28c0 11 -11 16 -18 7c-26 -32 -60 -45 -91 -45
c-108 0 -177 69 -177 167v269c0 7 3 10 10 10h59c7 0 10 -3 10 -10v-269c0 -53 44 -98 98 -98s99 43 99 98v269c0 7 3 10 10 10h58c7 0 10 -3 10 -10v-426z" />
    <glyph glyph-name="ugrave" unicode="&#xf9;" horiz-adv-x="481" 
d="M273 515c5 -8 3 -15 -8 -15h-27c-5 0 -12 2 -16 6l-117 110c-8 8 -4 17 7 17h76c4 0 10 -4 13 -8zM415 10c0 -7 -3 -10 -10 -10h-48c-7 0 -10 3 -10 10v28c0 11 -11 16 -18 7c-26 -32 -60 -45 -91 -45c-108 0 -177 69 -177 167v269c0 7 3 10 10 10h59c7 0 10 -3 10 -10
v-269c0 -53 44 -98 98 -98s99 43 99 98v269c0 7 3 10 10 10h58c7 0 10 -3 10 -10v-426z" />
    <glyph glyph-name="yacute" unicode="&#xfd;" horiz-adv-x="481" 
d="M372 616l-117 -110c-4 -4 -11 -6 -16 -6h-27c-11 0 -13 7 -8 15l72 110c3 4 9 8 13 8h76c11 0 15 -9 7 -17zM415 -57c0 -102 -59 -178 -177 -178c-61 0 -101 20 -129 48c-12 12 -22 26 -30 41c-3 6 -2 11 4 14l53 26c6 3 10 1 13 -4c20 -36 55 -56 89 -56
c54 0 99 43 99 98v101c0 11 -11 16 -18 7c-22 -27 -51 -40 -81 -40c-108 0 -177 69 -177 167v269c0 7 3 10 10 10h59c7 0 10 -3 10 -10v-269c0 -53 44 -98 98 -98c61 0 99 51 99 98v269c0 7 3 10 10 10h58c7 0 10 -3 10 -10v-493z" />
    <glyph glyph-name="ydieresis" unicode="&#xff;" horiz-adv-x="481" 
d="M365 564c0 -25 -21 -48 -47 -48s-47 22 -47 48s21 46 47 46s47 -20 47 -46zM206 564c0 -26 -21 -48 -47 -48s-47 22 -47 48s21 46 47 46s47 -20 47 -46zM415 -57c0 -102 -59 -178 -177 -178c-58 0 -97 18 -125 44c-14 14 -25 29 -34 45c-3 6 -2 11 4 14l53 26
c6 3 10 1 13 -4c20 -36 55 -56 89 -56c54 0 99 43 99 98v101c0 11 -11 16 -18 7c-22 -27 -51 -40 -81 -40c-108 0 -177 69 -177 167v269c0 7 3 10 10 10h59c7 0 10 -3 10 -10v-269c0 -53 44 -98 98 -98c61 0 99 51 99 98v269c0 7 3 10 10 10h58c7 0 10 -3 10 -10v-493z" />
    <glyph glyph-name="zcaron" unicode="&#x17e;" horiz-adv-x="408" 
d="M298 619l-85 -115c-2 -2 -5 -4 -8 -4h-33c-3 0 -6 2 -8 4l-85 115c-6 8 -3 16 8 16h42c3 0 6 -2 8 -5l44 -64c5 -7 11 -7 16 0l43 64c2 3 5 5 8 5h42c11 0 14 -7 8 -16zM382 10c0 -7 -3 -10 -10 -10h-337c-10 0 -14 6 -9 15l208 347c5 9 1 15 -9 15h-186
c-7 0 -10 3 -10 10v48c0 7 3 10 10 10h317c10 0 14 -6 9 -15l-209 -346c-5 -9 -1 -15 9 -15h207c7 0 10 -3 10 -10v-49z" />
    <glyph glyph-name="Euro" unicode="&#x20ac;" 
d="M468 80c-11 -20 -24 -39 -43 -54c-27 -22 -63 -36 -116 -36h-31c-108 0 -177 68 -177 167v32c0 6 -4 10 -10 10h-60c-7 0 -10 3 -10 10v43c0 7 3 10 10 10h60c6 0 10 4 10 10v85c0 6 -4 10 -10 10h-60c-7 0 -10 3 -10 10v44c0 7 3 10 10 10h60c6 0 10 4 10 10v32
c0 98 69 167 177 167h31c54 0 92 -15 119 -38c17 -14 30 -32 40 -50c3 -6 1 -11 -5 -14l-53 -26c-5 -3 -9 -1 -12 4c-21 35 -56 55 -89 55h-31c-54 0 -98 -43 -98 -98v-32c0 -6 4 -10 10 -10h149c7 0 10 -3 10 -10v-44c0 -7 -3 -10 -10 -10h-149c-6 0 -10 -4 -10 -10v-85
c0 -6 4 -10 10 -10h149c7 0 10 -3 10 -10v-43c0 -7 -3 -10 -10 -10h-149c-6 0 -10 -4 -10 -10v-32c0 -53 43 -98 98 -98h31c34 0 68 20 89 57c3 5 8 7 13 4l53 -27c6 -3 7 -7 4 -13z" />
    <glyph glyph-name="A.sc" unicode="&#xe000;" horiz-adv-x="414" 
d="M390 10c2 -6 0 -10 -7 -10h-64c-4 0 -6 1 -7 5l-30 90c-1 3 -4 4 -8 4h-134c-5 0 -7 -1 -8 -4l-30 -90c-1 -4 -4 -5 -8 -5h-62c-7 0 -10 4 -8 10l153 461c1 4 4 5 7 5h46c4 0 7 -1 7 -5zM263 164l-44 154c-3 16 -8 45 -10 49h-3c0 -4 -5 -32 -10 -49l-46 -154
c-1 -5 1 -9 8 -9h98c6 0 9 4 7 9z" />
    <glyph glyph-name="AE.sc" unicode="&#xe001;" horiz-adv-x="601" 
d="M544 7c0 -5 -3 -7 -8 -7h-268c-5 0 -8 2 -8 7v94c0 5 -2 7 -8 7h-122c-3 0 -7 -1 -9 -4l-58 -99c-1 -4 -5 -5 -8 -5h-61c-8 0 -11 5 -7 11l281 461c2 3 6 4 9 4h259c5 0 8 -2 8 -7v-48c0 -5 -3 -7 -8 -7h-193c-5 0 -8 -3 -8 -8v-125c0 -5 2 -8 8 -8h158c5 0 8 -2 8 -7
v-48c0 -5 -3 -7 -8 -7h-158c-5 0 -8 -3 -8 -8v-133c0 -5 2 -7 8 -7h193c5 0 8 -3 8 -8v-48zM263 361h-3c-1 -3 -11 -25 -14 -32l-85 -152c-4 -7 -1 -11 6 -11h86c5 0 7 3 7 7v51c0 48 2 124 3 137z" />
    <glyph glyph-name="Aacute.sc" unicode="&#xe002;" horiz-adv-x="414" 
d="M331 649l-117 -110c-4 -4 -11 -6 -16 -6h-27c-11 0 -13 7 -8 15l72 110c3 4 9 8 13 8h76c11 0 15 -9 7 -17zM390 10c2 -6 0 -10 -7 -10h-64c-4 0 -6 1 -7 5l-30 90c-1 3 -4 4 -8 4h-134c-5 0 -7 -1 -8 -4l-30 -90c-1 -4 -4 -5 -8 -5h-62c-7 0 -10 4 -8 10l153 461
c1 4 4 5 7 5h46c4 0 7 -1 7 -5zM263 164l-44 154c-3 16 -8 45 -10 49h-3c0 -4 -5 -32 -10 -49l-46 -154c-1 -5 1 -9 8 -9h98c6 0 9 4 7 9z" />
    <glyph glyph-name="Acircumflex.sc" unicode="&#xe003;" horiz-adv-x="414" 
d="M316 548c6 -9 3 -16 -8 -16h-41c-3 0 -6 2 -8 5l-44 65c-5 7 -11 7 -16 0l-45 -65c-2 -3 -5 -5 -8 -5h-41c-11 0 -14 8 -8 16l85 115c2 2 5 4 8 4h33c3 0 6 -2 8 -4zM390 10c2 -6 0 -10 -7 -10h-64c-4 0 -6 1 -7 5l-30 90c-1 3 -4 4 -8 4h-134c-5 0 -7 -1 -8 -4l-30 -90
c-1 -4 -4 -5 -8 -5h-62c-7 0 -10 4 -8 10l153 461c1 4 4 5 7 5h46c4 0 7 -1 7 -5zM263 164l-44 154c-3 16 -8 45 -10 49h-3c0 -4 -5 -32 -10 -49l-46 -154c-1 -5 1 -9 8 -9h98c6 0 9 4 7 9z" />
    <glyph glyph-name="Adieresis.sc" unicode="&#xe004;" horiz-adv-x="414" 
d="M336 601c0 -25 -21 -48 -47 -48s-47 22 -47 48s21 46 47 46s47 -20 47 -46zM177 601c0 -26 -21 -48 -47 -48s-47 22 -47 48s21 46 47 46s47 -20 47 -46zM390 10c2 -6 0 -10 -7 -10h-64c-4 0 -6 1 -7 5l-30 90c-1 3 -4 4 -8 4h-134c-5 0 -7 -1 -8 -4l-30 -90
c-1 -4 -4 -5 -8 -5h-62c-7 0 -10 4 -8 10l153 461c1 4 4 5 7 5h46c4 0 7 -1 7 -5zM263 164l-44 154c-3 16 -8 45 -10 49h-3c0 -4 -5 -32 -10 -49l-46 -154c-1 -5 1 -9 8 -9h98c6 0 9 4 7 9z" />
    <glyph glyph-name="Agrave.sc" unicode="&#xe005;" horiz-adv-x="414" 
d="M246 548c5 -8 3 -15 -8 -15h-27c-5 0 -12 2 -16 6l-117 110c-8 8 -4 17 7 17h76c4 0 10 -4 13 -8zM390 10c2 -6 0 -10 -7 -10h-64c-4 0 -6 1 -7 5l-30 90c-1 3 -4 4 -8 4h-134c-5 0 -7 -1 -8 -4l-30 -90c-1 -4 -4 -5 -8 -5h-62c-7 0 -10 4 -8 10l153 461c1 4 4 5 7 5h46
c4 0 7 -1 7 -5zM263 164l-44 154c-3 16 -8 45 -10 49h-3c0 -4 -5 -32 -10 -49l-46 -154c-1 -5 1 -9 8 -9h98c6 0 9 4 7 9z" />
    <glyph glyph-name="Aring.sc" unicode="&#xe006;" horiz-adv-x="414" 
d="M390 10c2 -6 0 -10 -7 -10h-64c-4 0 -6 1 -7 5l-30 90c-1 3 -4 4 -8 4h-134c-5 0 -7 -1 -8 -4l-30 -90c-1 -4 -4 -5 -8 -5h-62c-7 0 -10 4 -8 10l148 445c-31 11 -50 39 -50 75v30c0 47 33 80 85 80c51 0 86 -32 86 -80v-30c0 -35 -19 -63 -51 -75zM255 530v30
c0 26 -21 45 -48 45s-47 -19 -47 -45v-30c0 -26 20 -46 47 -46s48 20 48 46zM263 164l-44 154c-3 16 -8 45 -10 49h-3c0 -4 -5 -32 -10 -49l-46 -154c-1 -5 1 -9 8 -9h98c6 0 9 4 7 9z" />
    <glyph glyph-name="Atilde.sc" unicode="&#xe007;" horiz-adv-x="414" 
d="M350 606c-24 -42 -52 -64 -83 -64c-19 0 -40 9 -62 25l-20 14c-12 9 -26 14 -39 14c-16 0 -32 -7 -50 -27c-4 -5 -8 -6 -13 -2l-16 12c-5 4 -6 8 -3 13c25 43 51 62 82 62c21 0 40 -6 61 -23l20 -16c11 -9 27 -13 40 -13c16 0 34 8 52 28c4 5 8 5 13 1l15 -11
c5 -4 6 -8 3 -13zM390 10c2 -6 0 -10 -7 -10h-64c-4 0 -6 1 -7 5l-30 90c-1 3 -4 4 -8 4h-134c-5 0 -7 -1 -8 -4l-30 -90c-1 -4 -4 -5 -8 -5h-62c-7 0 -10 4 -8 10l153 461c1 4 4 5 7 5h46c4 0 7 -1 7 -5zM263 164l-44 154c-3 16 -8 45 -10 49h-3c0 -4 -5 -32 -10 -49
l-46 -154c-1 -5 1 -9 8 -9h98c6 0 9 4 7 9z" />
    <glyph glyph-name="B.sc" unicode="&#xe008;" horiz-adv-x="487" 
d="M416 133c0 -80 -54 -133 -142 -133h-177c-5 0 -8 2 -8 7v462c0 5 3 7 8 7h177c88 0 142 -49 142 -132v-12c0 -31 -22 -69 -52 -84c-7 -4 -8 -9 -1 -13c28 -14 53 -47 53 -88v-14zM342 337v9c0 37 -29 68 -68 68h-102c-6 0 -8 -3 -8 -8v-128c0 -5 2 -7 8 -7h102
c40 0 68 29 68 66zM342 130v17c0 35 -29 66 -68 66h-102c-6 0 -8 -2 -8 -8v-135c0 -5 2 -7 8 -7h102c38 0 68 31 68 67z" />
    <glyph glyph-name="C.sc" unicode="&#xe009;" horiz-adv-x="441" 
d="M393 64c-27 -47 -62 -74 -130 -74h-43c-87 0 -142 52 -142 129v238c0 77 55 130 142 130h43c67 0 103 -28 130 -74c2 -4 1 -9 -4 -11l-51 -25c-4 -2 -8 0 -11 3c-18 27 -42 44 -66 44h-41c-39 0 -68 -30 -68 -67v-238c0 -36 29 -68 68 -68h41c24 0 49 19 66 46
c3 4 7 6 11 3l51 -24c5 -2 6 -8 4 -12z" />
    <glyph glyph-name="Ccedilla.sc" unicode="&#xe00a;" horiz-adv-x="441" 
d="M393 64c-27 -47 -64 -74 -130 -74c-5 0 -7 -3 -10 -10l-14 -30c-2 -5 -1 -10 4 -13c30 -15 43 -36 43 -69v-9c0 -53 -43 -88 -97 -88h-42c-7 0 -10 3 -10 10v28c0 7 3 10 10 10h42c23 0 40 17 40 40v9c0 23 -18 34 -40 39l-14 3c-5 1 -8 6 -5 12l26 55c4 8 2 13 -6 15
c-62 12 -112 50 -112 127v238c0 77 55 130 142 130h43c67 0 103 -28 130 -74c2 -4 1 -9 -4 -11l-51 -25c-4 -2 -8 0 -11 3c-18 27 -42 44 -66 44h-41c-39 0 -68 -30 -68 -67v-238c0 -36 29 -68 68 -68h41c24 0 49 19 66 46c3 4 7 6 11 3l51 -24c5 -2 6 -8 4 -12z" />
    <glyph glyph-name="D.sc" unicode="&#xe00b;" horiz-adv-x="494" 
d="M416 138c0 -85 -56 -138 -142 -138h-177c-5 0 -8 2 -8 7v462c0 5 3 7 8 7h177c86 0 142 -53 142 -137v-201zM342 130v216c0 36 -30 68 -68 68h-102c-6 0 -8 -3 -8 -8v-336c0 -5 2 -7 8 -7h102c38 0 68 31 68 67z" />
    <glyph glyph-name="Eth.sc" unicode="&#xe00c;" horiz-adv-x="494" 
d="M416 138c0 -85 -56 -138 -142 -138h-177c-5 0 -8 2 -8 7v192c0 7 -2 10 -8 10h-40c-7 0 -10 3 -10 10v44c0 7 3 10 10 10h40c5 0 8 5 8 10v186c0 5 3 7 8 7h177c86 0 142 -53 142 -137v-201zM342 130v216c0 36 -30 68 -68 68h-102c-6 0 -8 -3 -8 -8v-124c0 -6 4 -9 9 -9
h76c7 0 10 -3 10 -10v-44c0 -7 -3 -10 -10 -10h-76c-7 0 -9 -4 -9 -9v-130c0 -5 2 -7 8 -7h102c38 0 68 31 68 67z" />
    <glyph glyph-name="E.sc" unicode="&#xe00d;" horiz-adv-x="441" 
d="M384 7c0 -5 -3 -7 -8 -7h-279c-5 0 -8 2 -8 7v462c0 5 3 7 8 7h279c5 0 8 -2 8 -7v-48c0 -5 -3 -7 -8 -7h-204c-6 0 -8 -3 -8 -8v-125c0 -5 2 -8 8 -8h169c5 0 8 -2 8 -7v-48c0 -5 -3 -7 -8 -7h-169c-6 0 -8 -3 -8 -8v-133c0 -5 2 -7 8 -7h204c5 0 8 -3 8 -8v-48z" />
    <glyph glyph-name="Eacute.sc" unicode="&#xe00e;" horiz-adv-x="441" 
d="M361 649l-117 -110c-4 -4 -11 -6 -16 -6h-27c-11 0 -13 7 -8 15l72 110c3 4 9 8 13 8h76c11 0 15 -9 7 -17zM384 7c0 -5 -3 -7 -8 -7h-279c-5 0 -8 2 -8 7v462c0 5 3 7 8 7h279c5 0 8 -2 8 -7v-48c0 -5 -3 -7 -8 -7h-204c-6 0 -8 -3 -8 -8v-125c0 -5 2 -8 8 -8h169
c5 0 8 -2 8 -7v-48c0 -5 -3 -7 -8 -7h-169c-6 0 -8 -3 -8 -8v-133c0 -5 2 -7 8 -7h204c5 0 8 -3 8 -8v-48z" />
    <glyph glyph-name="Ecircumflex.sc" unicode="&#xe00f;" horiz-adv-x="441" 
d="M347 548c6 -9 3 -16 -8 -16h-41c-3 0 -6 2 -8 5l-44 65c-5 7 -11 7 -16 0l-45 -65c-2 -3 -5 -5 -8 -5h-41c-11 0 -14 8 -8 16l85 115c2 2 5 4 8 4h33c3 0 6 -2 8 -4zM384 7c0 -5 -3 -7 -8 -7h-279c-5 0 -8 2 -8 7v462c0 5 3 7 8 7h279c5 0 8 -2 8 -7v-48
c0 -5 -3 -7 -8 -7h-204c-6 0 -8 -3 -8 -8v-125c0 -5 2 -8 8 -8h169c5 0 8 -2 8 -7v-48c0 -5 -3 -7 -8 -7h-169c-6 0 -8 -3 -8 -8v-133c0 -5 2 -7 8 -7h204c5 0 8 -3 8 -8v-48z" />
    <glyph glyph-name="Edieresis.sc" unicode="&#xe010;" horiz-adv-x="441" 
d="M364 601c0 -25 -21 -48 -47 -48s-47 22 -47 48s21 46 47 46s47 -20 47 -46zM205 601c0 -26 -21 -48 -47 -48s-47 22 -47 48s21 46 47 46s47 -20 47 -46zM384 7c0 -5 -3 -7 -8 -7h-279c-5 0 -8 2 -8 7v462c0 5 3 7 8 7h279c5 0 8 -2 8 -7v-48c0 -5 -3 -7 -8 -7h-204
c-6 0 -8 -3 -8 -8v-125c0 -5 2 -8 8 -8h169c5 0 8 -2 8 -7v-48c0 -5 -3 -7 -8 -7h-169c-6 0 -8 -3 -8 -8v-133c0 -5 2 -7 8 -7h204c5 0 8 -3 8 -8v-48z" />
    <glyph glyph-name="Egrave.sc" unicode="&#xe011;" horiz-adv-x="441" 
d="M288 548c5 -8 3 -15 -8 -15h-27c-5 0 -12 2 -16 6l-117 110c-8 8 -4 17 7 17h76c4 0 10 -4 13 -8zM384 7c0 -5 -3 -7 -8 -7h-279c-5 0 -8 2 -8 7v462c0 5 3 7 8 7h279c5 0 8 -2 8 -7v-48c0 -5 -3 -7 -8 -7h-204c-6 0 -8 -3 -8 -8v-125c0 -5 2 -8 8 -8h169c5 0 8 -2 8 -7
v-48c0 -5 -3 -7 -8 -7h-169c-6 0 -8 -3 -8 -8v-133c0 -5 2 -7 8 -7h204c5 0 8 -3 8 -8v-48z" />
    <glyph glyph-name="F.sc" unicode="&#xe012;" horiz-adv-x="423" 
d="M384 421c0 -5 -3 -7 -8 -7h-204c-6 0 -8 -3 -8 -8v-125c0 -5 2 -8 8 -8h169c5 0 8 -2 8 -7v-48c0 -5 -3 -7 -8 -7h-169c-6 0 -8 -3 -8 -8v-196c0 -5 -3 -7 -8 -7h-59c-5 0 -8 2 -8 7v462c0 5 3 7 8 7h279c5 0 8 -2 8 -7v-48z" />
    <glyph glyph-name="G.sc" unicode="&#xe013;" horiz-adv-x="477" 
d="M405 119c0 -78 -55 -129 -142 -129h-43c-88 0 -142 52 -142 129v238c0 77 55 130 142 130h55c67 0 103 -27 129 -74c3 -4 2 -9 -3 -11l-52 -25c-3 -2 -7 -1 -10 3c-17 28 -42 44 -66 44h-53c-39 0 -68 -30 -68 -67v-238c0 -36 30 -67 68 -67h43c37 0 67 31 67 67v54
c0 5 -3 7 -8 7h-83c-5 0 -7 2 -7 8v43c0 5 2 7 7 7h159c5 0 7 -2 7 -7v-112z" />
    <glyph glyph-name="H.sc" unicode="&#xe014;" horiz-adv-x="517" 
d="M428 7c0 -5 -2 -7 -8 -7h-60c-4 0 -7 2 -7 7v196c0 5 -2 8 -8 8h-173c-6 0 -8 -3 -8 -8v-196c0 -5 -3 -7 -8 -7h-59c-5 0 -8 2 -8 7v462c0 5 3 7 8 7h59c4 0 8 -2 8 -7v-188c0 -5 2 -8 8 -8h173c6 0 8 3 8 8v188c0 5 3 7 7 7h60c6 0 8 -2 8 -7v-462z" />
    <glyph glyph-name="I.sc" unicode="&#xe015;" horiz-adv-x="253" 
d="M164 7c0 -5 -3 -7 -8 -7h-59c-5 0 -8 2 -8 7v462c0 5 3 7 8 7h59c4 0 8 -2 8 -7v-462z" />
    <glyph glyph-name="Iacute.sc" unicode="&#xe016;" horiz-adv-x="253" 
d="M263 649l-117 -110c-4 -4 -11 -6 -16 -6h-27c-11 0 -13 7 -8 15l72 110c3 4 9 8 13 8h76c11 0 15 -9 7 -17zM164 7c0 -5 -3 -7 -8 -7h-59c-5 0 -8 2 -8 7v462c0 5 3 7 8 7h59c4 0 8 -2 8 -7v-462z" />
    <glyph glyph-name="Icircumflex.sc" unicode="&#xe017;" horiz-adv-x="253" 
d="M235 548c6 -9 3 -16 -8 -16h-41c-3 0 -6 2 -8 5l-44 65c-5 7 -11 7 -16 0l-45 -65c-2 -3 -5 -5 -8 -5h-41c-11 0 -14 8 -8 16l85 115c2 2 5 4 8 4h33c3 0 6 -2 8 -4zM164 7c0 -5 -3 -7 -8 -7h-59c-5 0 -8 2 -8 7v462c0 5 3 7 8 7h59c4 0 8 -2 8 -7v-462z" />
    <glyph glyph-name="Idieresis.sc" unicode="&#xe018;" horiz-adv-x="253" 
d="M252 601c0 -25 -21 -48 -47 -48s-47 22 -47 48s21 46 47 46s47 -20 47 -46zM93 601c0 -26 -21 -48 -47 -48s-47 22 -47 48s21 46 47 46s47 -20 47 -46zM164 7c0 -5 -3 -7 -8 -7h-59c-5 0 -8 2 -8 7v462c0 5 3 7 8 7h59c4 0 8 -2 8 -7v-462z" />
    <glyph glyph-name="Igrave.sc" unicode="&#xe019;" horiz-adv-x="253" 
d="M160 548c5 -8 3 -15 -8 -15h-27c-5 0 -12 2 -16 6l-117 110c-8 8 -4 17 7 17h76c4 0 10 -4 13 -8zM164 7c0 -5 -3 -7 -8 -7h-59c-5 0 -8 2 -8 7v462c0 5 3 7 8 7h59c4 0 8 -2 8 -7v-462z" />
    <glyph glyph-name="J.sc" unicode="&#xe01a;" horiz-adv-x="369" 
d="M291 129c0 -81 -59 -138 -143 -138c-55 0 -103 30 -130 76c-3 4 -2 8 3 11l54 24c5 3 7 1 10 -3c15 -28 39 -45 65 -45c37 0 66 30 66 66v349c0 5 3 7 8 7h60c5 0 7 -2 7 -7v-340z" />
    <glyph glyph-name="K.sc" unicode="&#xe01b;" horiz-adv-x="468" 
d="M439 11c4 -6 1 -11 -6 -11h-78c-3 0 -6 1 -8 5l-127 204c-4 6 -8 6 -13 1l-43 -54v-149c0 -5 -3 -7 -8 -7h-59c-5 0 -8 2 -8 7v462c0 5 3 7 8 7h59c4 0 8 -2 8 -7v-189c0 -12 4 -21 6 -20l166 212c2 3 5 4 7 4h71c8 0 11 -6 6 -12l-151 -179c-2 -3 -2 -5 0 -8z" />
    <glyph glyph-name="L.sc" unicode="&#xe01c;" horiz-adv-x="405" 
d="M384 7c0 -5 -3 -7 -8 -7h-279c-5 0 -8 2 -8 7v462c0 5 3 7 8 7h59c5 0 8 -2 8 -7v-399c0 -5 2 -7 8 -7h204c5 0 8 -3 8 -8v-48z" />
    <glyph glyph-name="Lslash.sc" unicode="&#xe01d;" horiz-adv-x="405" 
d="M384 7c0 -5 -2 -7 -7 -7h-279c-5 0 -8 2 -8 7v146c0 11 -4 13 -11 6l-26 -27c-5 -4 -11 -4 -15 0l-31 30c-4 5 -4 10 0 14l73 72c8 8 10 14 10 25v196c0 5 3 7 8 7h59c5 0 7 -2 7 -7v-121c0 -8 6 -11 12 -5l28 29c4 4 10 4 13 0l31 -31c4 -4 4 -10 0 -14l-73 -72
c-7 -7 -11 -15 -11 -25v-160c0 -5 2 -7 9 -7h204c5 0 7 -3 7 -8v-48z" />
    <glyph glyph-name="M.sc" unicode="&#xe01e;" horiz-adv-x="588" 
d="M491 7c0 -5 -2 -7 -7 -7h-57c-5 0 -8 2 -8 7v155c0 63 6 151 7 163l-3 1c-2 -4 -13 -43 -20 -58l-88 -196c-1 -4 -4 -5 -8 -5h-34c-3 0 -7 1 -8 5l-87 197c-7 15 -18 53 -20 57l-3 -1c1 -12 7 -99 7 -163v-155c0 -5 -2 -7 -8 -7h-57c-5 0 -8 2 -8 7v462c0 5 3 7 8 7h59
c3 0 5 -1 7 -4l117 -271c4 -8 8 -26 10 -30h2c1 4 8 22 11 30l115 271c2 3 4 4 7 4h59c5 0 7 -2 7 -7v-462z" />
    <glyph glyph-name="N.sc" unicode="&#xe01f;" horiz-adv-x="504" 
d="M415 7c0 -5 -3 -7 -8 -7h-54c-3 0 -6 2 -7 5l-169 294c-5 9 -13 25 -14 29l-3 -1c1 -12 3 -98 3 -158v-162c0 -5 -3 -7 -8 -7h-58c-5 0 -8 2 -8 7v462c0 5 3 7 8 7h53c4 0 6 -1 8 -4l168 -298c5 -9 13 -27 15 -31l3 1c-1 13 -3 98 -3 160v165c0 5 2 7 7 7h59
c5 0 8 -2 8 -7v-462z" />
    <glyph glyph-name="Ntilde.sc" unicode="&#xe020;" horiz-adv-x="504" 
d="M391 606c-24 -42 -52 -64 -83 -64c-19 0 -40 9 -62 25l-20 14c-12 9 -26 14 -39 14c-16 0 -32 -7 -50 -27c-4 -5 -8 -6 -13 -2l-16 12c-5 4 -6 8 -3 13c25 43 51 62 82 62c21 0 40 -6 61 -23l20 -16c11 -9 27 -13 40 -13c16 0 34 8 52 28c4 5 8 5 13 1l15 -11
c5 -4 6 -8 3 -13zM415 7c0 -5 -3 -7 -8 -7h-54c-3 0 -6 2 -7 5l-169 294c-5 9 -13 25 -14 29l-3 -1c1 -12 3 -98 3 -158v-162c0 -5 -3 -7 -8 -7h-58c-5 0 -8 2 -8 7v462c0 5 3 7 8 7h53c4 0 6 -1 8 -4l168 -298c5 -9 13 -27 15 -31l3 1c-1 13 -3 98 -3 160v165c0 5 2 7 7 7
h59c5 0 8 -2 8 -7v-462z" />
    <glyph glyph-name="O.sc" unicode="&#xe021;" horiz-adv-x="482" 
d="M404 119c0 -77 -57 -129 -142 -129h-42c-86 0 -142 52 -142 129v238c0 77 56 130 142 130h42c85 0 142 -53 142 -130v-238zM329 117v242c0 37 -30 65 -67 65h-42c-38 0 -68 -29 -68 -65v-242c0 -36 29 -65 68 -65h42c37 0 67 29 67 65z" />
    <glyph glyph-name="OE.sc" unicode="&#xe022;" horiz-adv-x="671" 
d="M614 7c0 -5 -2 -7 -7 -7h-290c-15 -5 -34 -8 -54 -8h-43c-86 0 -142 53 -142 129v234c0 77 57 130 142 130h43c19 0 40 -4 56 -9h288c4 0 7 -2 7 -7v-48c0 -5 -2 -7 -7 -7h-206c-6 0 -9 -4 -7 -10c8 -18 12 -40 12 -53v-70c0 -5 2 -8 8 -8h158c5 0 8 -2 8 -7v-48
c0 -5 -3 -7 -8 -7h-158c-6 0 -8 -3 -8 -8v-79c0 -12 -4 -34 -12 -52c-2 -6 1 -9 7 -9h206c5 0 7 -3 7 -8v-48zM330 119v238c0 37 -30 65 -67 65h-43c-38 0 -67 -29 -67 -65v-238c0 -36 28 -65 67 -65h43c38 0 67 30 67 65z" />
    <glyph glyph-name="Oacute.sc" unicode="&#xe023;" horiz-adv-x="482" 
d="M369 649l-117 -110c-4 -4 -11 -6 -16 -6h-27c-11 0 -13 7 -8 15l72 110c3 4 9 8 13 8h76c11 0 15 -9 7 -17zM404 119c0 -77 -57 -129 -142 -129h-42c-86 0 -142 52 -142 129v238c0 77 56 130 142 130h42c85 0 142 -53 142 -130v-238zM329 117v242c0 37 -30 65 -67 65h-42
c-38 0 -68 -29 -68 -65v-242c0 -36 29 -65 68 -65h42c37 0 67 29 67 65z" />
    <glyph glyph-name="Ocircumflex.sc" unicode="&#xe024;" horiz-adv-x="482" 
d="M351 548c6 -9 3 -16 -8 -16h-41c-3 0 -6 2 -8 5l-44 65c-5 7 -11 7 -16 0l-45 -65c-2 -3 -5 -5 -8 -5h-41c-11 0 -14 8 -8 16l85 115c2 2 5 4 8 4h33c3 0 6 -2 8 -4zM404 119c0 -77 -57 -129 -142 -129h-42c-86 0 -142 52 -142 129v238c0 77 56 130 142 130h42
c85 0 142 -53 142 -130v-238zM329 117v242c0 37 -30 65 -67 65h-42c-38 0 -68 -29 -68 -65v-242c0 -36 29 -65 68 -65h42c37 0 67 29 67 65z" />
    <glyph glyph-name="Odieresis.sc" unicode="&#xe025;" horiz-adv-x="482" 
d="M366 601c0 -25 -21 -48 -47 -48s-47 22 -47 48s21 46 47 46s47 -20 47 -46zM207 601c0 -26 -21 -48 -47 -48s-47 22 -47 48s21 46 47 46s47 -20 47 -46zM404 119c0 -77 -57 -129 -142 -129h-42c-86 0 -142 52 -142 129v238c0 77 56 130 142 130h42c85 0 142 -53 142 -130
v-238zM329 117v242c0 37 -30 65 -67 65h-42c-38 0 -68 -29 -68 -65v-242c0 -36 29 -65 68 -65h42c37 0 67 29 67 65z" />
    <glyph glyph-name="Ograve.sc" unicode="&#xe026;" horiz-adv-x="482" 
d="M276 548c5 -8 3 -15 -8 -15h-27c-5 0 -12 2 -16 6l-117 110c-8 8 -4 17 7 17h76c4 0 10 -4 13 -8zM404 119c0 -77 -57 -129 -142 -129h-42c-86 0 -142 52 -142 129v238c0 77 56 130 142 130h42c85 0 142 -53 142 -130v-238zM329 117v242c0 37 -30 65 -67 65h-42
c-38 0 -68 -29 -68 -65v-242c0 -36 29 -65 68 -65h42c37 0 67 29 67 65z" />
    <glyph glyph-name="Oslash.sc" unicode="&#xe027;" horiz-adv-x="482" 
d="M404 121c0 -76 -57 -129 -142 -129h-42c-86 0 -142 53 -142 129v234c0 77 56 130 142 130h42c85 0 142 -53 142 -130v-234zM292 405c2 3 0 7 -4 8c-8 6 -24 9 -35 9h-33c-38 0 -68 -29 -68 -65v-213c0 -3 0 -11 1 -13c1 -8 9 -9 12 -2zM329 119v212v17c-2 8 -8 9 -12 1
l-128 -275c-2 -4 -1 -8 3 -9c8 -6 24 -11 37 -11h33c37 0 67 30 67 65z" />
    <glyph glyph-name="Otilde.sc" unicode="&#xe028;" horiz-adv-x="482" 
d="M387 606c-24 -42 -52 -64 -83 -64c-19 0 -40 9 -62 25l-20 14c-12 9 -26 14 -39 14c-16 0 -32 -7 -50 -27c-4 -5 -8 -6 -13 -2l-16 12c-5 4 -6 8 -3 13c25 43 51 62 82 62c21 0 40 -6 61 -23l20 -16c11 -9 27 -13 40 -13c16 0 34 8 52 28c4 5 8 5 13 1l15 -11
c5 -4 6 -8 3 -13zM404 119c0 -77 -57 -129 -142 -129h-42c-86 0 -142 52 -142 129v238c0 77 56 130 142 130h42c85 0 142 -53 142 -130v-238zM329 117v242c0 37 -30 65 -67 65h-42c-38 0 -68 -29 -68 -65v-242c0 -36 29 -65 68 -65h42c37 0 67 29 67 65z" />
    <glyph glyph-name="P.sc" unicode="&#xe029;" horiz-adv-x="441" 
d="M407 334c0 -72 -57 -123 -143 -123h-92c-6 0 -8 -3 -8 -8v-196c0 -5 -3 -7 -8 -7h-59c-5 0 -8 2 -8 7v462c0 5 3 7 8 7h167c85 0 143 -50 143 -129v-13zM334 336v12c0 35 -29 66 -68 66h-94c-6 0 -8 -3 -8 -8v-127c0 -5 2 -8 8 -8h94c39 0 68 29 68 65z" />
    <glyph glyph-name="Thorn.sc" unicode="&#xe02a;" horiz-adv-x="441" 
d="M407 272c0 -72 -57 -123 -142 -123h-93c-6 0 -8 -3 -8 -8v-134c0 -5 -3 -7 -8 -7h-59c-5 0 -8 2 -8 7v462c0 5 4 7 8 7h60c4 0 7 -2 7 -7v-47c0 -5 2 -8 9 -8h92c85 0 142 -50 142 -128v-14zM334 274v12c0 36 -30 66 -68 66h-94c-6 0 -8 -3 -8 -8v-127c0 -5 2 -8 8 -8h94
c38 0 68 29 68 65z" />
    <glyph glyph-name="Q.sc" unicode="&#xe02b;" horiz-adv-x="482" 
d="M404 117c0 -72 -50 -116 -124 -128c-4 0 -5 -2 -5 -7v-66c0 -5 -4 -8 -9 -8h-52c-5 0 -7 3 -7 8v66c0 5 -3 7 -7 7c-75 12 -122 59 -122 128v238c0 77 56 130 142 130h43c85 0 141 -53 141 -130v-238zM329 113v244c0 37 -29 65 -66 65h-43c-38 0 -68 -29 -68 -65v-244
c0 -27 21 -50 48 -59c5 -2 9 0 10 5v63c1 5 4 7 8 7h44c5 0 9 -2 10 -7v-62c1 -6 4 -6 9 -4c28 4 48 32 48 57z" />
    <glyph glyph-name="R.sc" unicode="&#xe02c;" horiz-adv-x="485" 
d="M429 10c2 -6 0 -10 -8 -10h-65c-3 0 -5 2 -6 5l-80 201c0 3 -2 5 -6 5h-92c-6 0 -8 -3 -8 -8v-196c0 -5 -3 -7 -8 -7h-59c-5 0 -8 2 -8 7v462c0 5 3 7 8 7h177c86 0 142 -53 142 -137v-7c0 -41 -31 -84 -67 -101c-4 -2 -5 -6 -4 -11zM342 337v9c0 38 -29 68 -68 68h-102
c-6 0 -8 -3 -8 -8v-128c0 -5 2 -7 8 -7h102c38 0 68 28 68 66z" />
    <glyph glyph-name="S.sc" unicode="&#xe02d;" horiz-adv-x="423" 
d="M363 123c0 -79 -54 -133 -143 -133h-39c-67 0 -106 28 -128 68c-3 5 -3 9 2 12l47 28c4 3 9 2 11 -3c17 -26 41 -43 67 -43h40c38 0 68 33 68 70c0 48 -54 68 -106 90c-66 28 -126 55 -126 141c0 79 55 134 143 134h21c67 0 105 -28 129 -68c3 -5 2 -10 -3 -13l-47 -27
c-4 -3 -8 -3 -10 2c-18 27 -43 43 -68 43h-22c-38 0 -67 -32 -67 -70c0 -42 58 -64 109 -85c66 -26 122 -58 122 -146z" />
    <glyph glyph-name="Scaron.sc" unicode="&#xe02e;" horiz-adv-x="423" 
d="M316 651l-85 -115c-2 -2 -5 -4 -8 -4h-33c-3 0 -6 2 -8 4l-85 115c-6 8 -3 16 8 16h42c3 0 6 -2 8 -5l44 -64c5 -7 11 -7 16 0l43 64c2 3 5 5 8 5h42c11 0 14 -7 8 -16zM363 123c0 -79 -54 -133 -143 -133h-39c-67 0 -106 28 -128 68c-3 5 -3 9 2 12l47 28c4 3 9 2 11 -3
c17 -26 41 -43 67 -43h40c38 0 68 33 68 70c0 48 -54 68 -106 90c-66 28 -126 55 -126 141c0 79 55 134 143 134h21c67 0 105 -28 129 -68c3 -5 2 -10 -3 -13l-47 -27c-4 -3 -8 -3 -10 2c-18 27 -43 43 -68 43h-22c-38 0 -67 -32 -67 -70c0 -42 58 -64 109 -85
c66 -26 122 -58 122 -146z" />
    <glyph glyph-name="T.sc" unicode="&#xe02f;" horiz-adv-x="348" 
d="M328 421c0 -5 -2 -7 -7 -7h-102c-6 0 -8 -3 -8 -8v-399c0 -5 -2 -7 -7 -7h-59c-6 0 -8 2 -8 7v399c0 5 -2 8 -8 8h-101c-5 0 -8 2 -8 7v48c0 5 3 7 8 7h293c4 0 7 -2 7 -7v-48z" />
    <glyph glyph-name="U.sc" unicode="&#xe030;" horiz-adv-x="487" 
d="M407 119c0 -77 -57 -129 -142 -129h-43c-86 0 -142 52 -142 129v350c0 5 3 7 8 7h59c5 0 7 -2 7 -7v-352c0 -36 28 -65 68 -65h43c38 0 67 29 67 65v352c0 5 3 7 8 7h60c5 0 7 -2 7 -7v-350z" />
    <glyph glyph-name="Uacute.sc" unicode="&#xe031;" horiz-adv-x="487" 
d="M369 649l-117 -110c-4 -4 -11 -6 -16 -6h-27c-11 0 -13 7 -8 15l72 110c3 4 9 8 13 8h76c11 0 15 -9 7 -17zM407 119c0 -77 -57 -129 -142 -129h-43c-86 0 -142 52 -142 129v350c0 5 3 7 8 7h59c5 0 7 -2 7 -7v-352c0 -36 28 -65 68 -65h43c38 0 67 29 67 65v352
c0 5 3 7 8 7h60c5 0 7 -2 7 -7v-350z" />
    <glyph glyph-name="Ucircumflex.sc" unicode="&#xe032;" horiz-adv-x="487" 
d="M351 548c6 -9 3 -16 -8 -16h-41c-3 0 -6 2 -8 5l-44 65c-5 7 -11 7 -16 0l-45 -65c-2 -3 -5 -5 -8 -5h-41c-11 0 -14 8 -8 16l85 115c2 2 5 4 8 4h33c3 0 6 -2 8 -4zM407 119c0 -77 -57 -129 -142 -129h-43c-86 0 -142 52 -142 129v350c0 5 3 7 8 7h59c5 0 7 -2 7 -7
v-352c0 -36 28 -65 68 -65h43c38 0 67 29 67 65v352c0 5 3 7 8 7h60c5 0 7 -2 7 -7v-350z" />
    <glyph glyph-name="Udieresis.sc" unicode="&#xe033;" horiz-adv-x="487" 
d="M368 601c0 -25 -21 -48 -47 -48s-47 22 -47 48s21 46 47 46s47 -20 47 -46zM209 601c0 -26 -21 -48 -47 -48s-47 22 -47 48s21 46 47 46s47 -20 47 -46zM407 119c0 -77 -57 -129 -142 -129h-43c-86 0 -142 52 -142 129v350c0 5 3 7 8 7h59c5 0 7 -2 7 -7v-352
c0 -36 28 -65 68 -65h43c38 0 67 29 67 65v352c0 5 3 7 8 7h60c5 0 7 -2 7 -7v-350z" />
    <glyph glyph-name="Ugrave.sc" unicode="&#xe034;" horiz-adv-x="487" 
d="M276 548c5 -8 3 -15 -8 -15h-27c-5 0 -12 2 -16 6l-117 110c-8 8 -4 17 7 17h76c4 0 10 -4 13 -8zM407 119c0 -77 -57 -129 -142 -129h-43c-86 0 -142 52 -142 129v350c0 5 3 7 8 7h59c5 0 7 -2 7 -7v-352c0 -36 28 -65 68 -65h43c38 0 67 29 67 65v352c0 5 3 7 8 7h60
c5 0 7 -2 7 -7v-350z" />
    <glyph glyph-name="V.sc" unicode="&#xe035;" horiz-adv-x="398" 
d="M382 467l-153 -462c-1 -4 -4 -5 -8 -5h-44c-4 0 -7 1 -7 5l-154 462c-2 6 1 9 8 9h63c5 0 7 -1 8 -5l95 -307c4 -12 8 -31 9 -41h4c1 10 5 29 9 41l91 307c0 4 3 5 7 5h65c7 0 9 -4 7 -9z" />
    <glyph glyph-name="W.sc" unicode="&#xe036;" horiz-adv-x="584" 
d="M552 467l-111 -461c-1 -4 -4 -6 -8 -6h-46c-5 0 -7 1 -8 5l-78 281c-3 10 -6 32 -8 36h-3c0 -4 -4 -27 -7 -36l-79 -281c-1 -4 -4 -5 -7 -5h-47c-4 0 -7 2 -8 6l-110 461c-2 6 1 9 7 9h64c4 0 6 -2 7 -6l63 -294c2 -9 5 -33 7 -37h3c1 4 5 28 7 36l80 296c0 4 3 6 7 6h32
c5 0 8 -2 8 -5l75 -297c2 -9 7 -33 8 -37h3c1 4 5 28 6 38l64 294c1 4 4 6 8 6h63c6 0 9 -3 8 -9z" />
    <glyph glyph-name="X.sc" unicode="&#xe037;" horiz-adv-x="435" 
d="M390 11c3 -6 0 -11 -7 -11h-68c-5 0 -7 2 -9 6l-81 158c-3 7 -8 7 -12 0l-84 -158c-2 -3 -5 -6 -10 -6h-67c-7 0 -9 5 -6 11l123 222c2 4 2 6 0 10l-124 222c-4 7 0 11 6 11h68c4 0 7 -2 9 -5l85 -161c4 -6 9 -6 12 0l82 161c1 4 4 5 8 5h68c7 0 10 -4 7 -10l-124 -223
c-1 -3 -1 -6 0 -10z" />
    <glyph glyph-name="Y.sc" unicode="&#xe038;" horiz-adv-x="365" 
d="M361 465l-141 -247v-211c0 -5 -3 -7 -8 -7h-60c-5 0 -7 2 -7 7v211l-141 247c-3 7 -1 11 7 11h69c3 0 6 -2 9 -5l87 -166c4 -7 10 -7 14 0l87 166c3 3 5 5 9 5h68c9 0 11 -4 7 -11z" />
    <glyph glyph-name="Yacute.sc" unicode="&#xe039;" horiz-adv-x="365" 
d="M311 649l-117 -110c-4 -4 -11 -6 -16 -6h-27c-11 0 -13 7 -8 15l72 110c3 4 9 8 13 8h76c11 0 15 -9 7 -17zM361 465l-141 -247v-211c0 -5 -3 -7 -8 -7h-60c-5 0 -7 2 -7 7v211l-141 247c-3 7 -1 11 7 11h69c3 0 6 -2 9 -5l87 -166c4 -7 10 -7 14 0l87 166c3 3 5 5 9 5
h68c9 0 11 -4 7 -11z" />
    <glyph glyph-name="Ydieresis.sc" unicode="&#xe03a;" horiz-adv-x="365" 
d="M308 601c0 -25 -21 -48 -47 -48s-47 22 -47 48s21 46 47 46s47 -20 47 -46zM149 601c0 -26 -21 -48 -47 -48s-47 22 -47 48s21 46 47 46s47 -20 47 -46zM361 465l-141 -247v-211c0 -5 -3 -7 -8 -7h-60c-5 0 -7 2 -7 7v211l-141 247c-3 7 -1 11 7 11h69c3 0 6 -2 9 -5
l87 -166c4 -7 10 -7 14 0l87 166c3 3 5 5 9 5h68c9 0 11 -4 7 -11z" />
    <glyph glyph-name="Z.sc" unicode="&#xe03b;" horiz-adv-x="398" 
d="M348 7c0 -5 -3 -7 -8 -7h-292c-7 0 -10 4 -7 10l192 393c3 6 0 11 -8 11h-164c-5 0 -7 2 -7 7v48c0 5 2 7 7 7h276c8 0 10 -4 7 -10l-192 -393c-4 -6 -1 -10 6 -10h182c5 0 8 -3 8 -8v-48z" />
    <glyph glyph-name="Zcaron.sc" unicode="&#xe03c;" horiz-adv-x="398" 
d="M308 651l-85 -115c-2 -2 -5 -4 -8 -4h-33c-3 0 -6 2 -8 4l-85 115c-6 8 -3 16 8 16h42c3 0 6 -2 8 -5l44 -64c5 -7 11 -7 16 0l43 64c2 3 5 5 8 5h42c11 0 14 -7 8 -16zM348 7c0 -5 -3 -7 -8 -7h-292c-7 0 -10 4 -7 10l192 393c3 6 0 11 -8 11h-164c-5 0 -7 2 -7 7v48
c0 5 2 7 7 7h276c8 0 10 -4 7 -10l-192 -393c-4 -6 -1 -10 6 -10h182c5 0 8 -3 8 -8v-48z" />
    <glyph glyph-name="germandbls.sc" unicode="&#xe03d;" horiz-adv-x="862" 
d="M802 123c0 -79 -54 -133 -143 -133h-39c-67 0 -106 28 -128 68c-3 5 -3 9 2 12l47 28c4 3 9 2 11 -3c17 -26 41 -43 67 -43h40c38 0 68 33 68 70c0 48 -54 68 -106 90c-66 28 -126 55 -126 141c0 79 55 134 143 134h21c67 0 105 -28 129 -68c3 -5 2 -10 -3 -13l-47 -27
c-4 -3 -8 -3 -10 2c-18 27 -43 43 -68 43h-22c-38 0 -67 -32 -67 -70c0 -42 58 -64 109 -85c66 -26 122 -58 122 -146zM371 123c0 -79 -54 -133 -143 -133h-39c-67 0 -106 28 -128 68c-3 5 -3 9 2 12l47 28c4 3 9 2 11 -3c17 -26 41 -43 67 -43h40c38 0 68 33 68 70
c0 48 -54 68 -106 90c-66 28 -126 55 -126 141c0 79 55 134 143 134h21c67 0 105 -28 129 -68c3 -5 2 -10 -3 -13l-47 -27c-4 -3 -8 -3 -10 2c-18 27 -43 43 -68 43h-22c-38 0 -67 -32 -67 -70c0 -42 58 -64 109 -85c66 -26 122 -58 122 -146z" />
    <glyph glyph-name="f_i.sc" unicode="&#xe03e;" horiz-adv-x="676" 
d="M587 7c0 -5 -3 -7 -8 -7h-59c-5 0 -8 2 -8 7v462c0 5 3 7 8 7h59c4 0 8 -2 8 -7v-462zM384 421c0 -5 -3 -7 -8 -7h-204c-6 0 -8 -3 -8 -8v-125c0 -5 2 -8 8 -8h169c5 0 8 -2 8 -7v-48c0 -5 -3 -7 -8 -7h-169c-6 0 -8 -3 -8 -8v-196c0 -5 -3 -7 -8 -7h-59c-5 0 -8 2 -8 7
v462c0 5 3 7 8 7h279c5 0 8 -2 8 -7v-48z" />
    <glyph glyph-name="f_l.sc" unicode="&#xe03f;" horiz-adv-x="828" 
d="M807 7c0 -5 -3 -7 -8 -7h-279c-5 0 -8 2 -8 7v462c0 5 3 7 8 7h59c5 0 8 -2 8 -7v-399c0 -5 2 -7 8 -7h204c5 0 8 -3 8 -8v-48zM384 421c0 -5 -3 -7 -8 -7h-204c-6 0 -8 -3 -8 -8v-125c0 -5 2 -8 8 -8h169c5 0 8 -2 8 -7v-48c0 -5 -3 -7 -8 -7h-169c-6 0 -8 -3 -8 -8
v-196c0 -5 -3 -7 -8 -7h-59c-5 0 -8 2 -8 7v462c0 5 3 7 8 7h279c5 0 8 -2 8 -7v-48z" />
    <glyph glyph-name="f_f.sc" unicode="&#xe040;" horiz-adv-x="846" 
d="M807 421c0 -5 -3 -7 -8 -7h-204c-6 0 -8 -3 -8 -8v-125c0 -5 2 -8 8 -8h169c5 0 8 -2 8 -7v-48c0 -5 -3 -7 -8 -7h-169c-6 0 -8 -3 -8 -8v-196c0 -5 -3 -7 -8 -7h-59c-5 0 -8 2 -8 7v462c0 5 3 7 8 7h279c5 0 8 -2 8 -7v-48zM384 421c0 -5 -3 -7 -8 -7h-204
c-6 0 -8 -3 -8 -8v-125c0 -5 2 -8 8 -8h169c5 0 8 -2 8 -7v-48c0 -5 -3 -7 -8 -7h-169c-6 0 -8 -3 -8 -8v-196c0 -5 -3 -7 -8 -7h-59c-5 0 -8 2 -8 7v462c0 5 3 7 8 7h279c5 0 8 -2 8 -7v-48z" />
    <glyph glyph-name="f_f_i.sc" unicode="&#xe041;" horiz-adv-x="1099" 
d="M1010 7c0 -5 -3 -7 -8 -7h-59c-5 0 -8 2 -8 7v462c0 5 3 7 8 7h59c4 0 8 -2 8 -7v-462zM807 421c0 -5 -3 -7 -8 -7h-204c-6 0 -8 -3 -8 -8v-125c0 -5 2 -8 8 -8h169c5 0 8 -2 8 -7v-48c0 -5 -3 -7 -8 -7h-169c-6 0 -8 -3 -8 -8v-196c0 -5 -3 -7 -8 -7h-59c-5 0 -8 2 -8 7
v462c0 5 3 7 8 7h279c5 0 8 -2 8 -7v-48zM384 421c0 -5 -3 -7 -8 -7h-204c-6 0 -8 -3 -8 -8v-125c0 -5 2 -8 8 -8h169c5 0 8 -2 8 -7v-48c0 -5 -3 -7 -8 -7h-169c-6 0 -8 -3 -8 -8v-196c0 -5 -3 -7 -8 -7h-59c-5 0 -8 2 -8 7v462c0 5 3 7 8 7h279c5 0 8 -2 8 -7v-48z" />
    <glyph glyph-name="f_f_l.sc" unicode="&#xe042;" horiz-adv-x="1251" 
d="M1230 7c0 -5 -3 -7 -8 -7h-279c-5 0 -8 2 -8 7v462c0 5 3 7 8 7h59c5 0 8 -2 8 -7v-399c0 -5 2 -7 8 -7h204c5 0 8 -3 8 -8v-48zM807 421c0 -5 -3 -7 -8 -7h-204c-6 0 -8 -3 -8 -8v-125c0 -5 2 -8 8 -8h169c5 0 8 -2 8 -7v-48c0 -5 -3 -7 -8 -7h-169c-6 0 -8 -3 -8 -8
v-196c0 -5 -3 -7 -8 -7h-59c-5 0 -8 2 -8 7v462c0 5 3 7 8 7h279c5 0 8 -2 8 -7v-48zM384 421c0 -5 -3 -7 -8 -7h-204c-6 0 -8 -3 -8 -8v-125c0 -5 2 -8 8 -8h169c5 0 8 -2 8 -7v-48c0 -5 -3 -7 -8 -7h-169c-6 0 -8 -3 -8 -8v-196c0 -5 -3 -7 -8 -7h-59c-5 0 -8 2 -8 7v462
c0 5 3 7 8 7h279c5 0 8 -2 8 -7v-48z" />
    <glyph glyph-name="E.alt" unicode="&#xe043;" horiz-adv-x="442" 
d="M418 80c-9 -17 -20 -33 -34 -47c-27 -26 -66 -43 -125 -43h-30c-108 0 -178 67 -178 175v31c0 54 45 107 79 124c3 3 4 8 0 10c-37 17 -79 66 -79 118v15c0 108 70 177 178 177h30c58 0 98 -17 125 -42c14 -14 25 -29 34 -46c3 -6 2 -11 -4 -14l-53 -27
c-6 -3 -10 0 -13 5c-21 37 -55 55 -89 55h-30c-53 0 -99 -43 -99 -98v-15c0 -54 44 -99 99 -99h75c7 0 10 -3 10 -10v-48c0 -7 -3 -10 -10 -10h-75c-53 0 -99 -44 -99 -98v-36c0 -53 45 -98 99 -98h30c34 0 69 19 89 56c3 6 7 8 13 5l52 -27c6 -3 8 -7 5 -13z" />
    <glyph glyph-name="zero.oldstyle" unicode="&#xf730;" horiz-adv-x="513" 
d="M448 157c0 -98 -69 -167 -177 -167h-31c-108 0 -177 68 -177 167v163c0 98 69 167 177 167h31c108 0 177 -68 177 -167v-163zM369 157v163c0 54 -44 98 -98 98h-31c-54 0 -98 -43 -98 -98v-163c0 -53 43 -98 98 -98h31c53 0 98 44 98 98z" />
    <glyph glyph-name="one.oldstyle" unicode="&#xf731;" horiz-adv-x="513" 
d="M430 10c0 -7 -3 -10 -10 -10h-304c-7 0 -10 3 -10 10v49c0 7 3 10 10 10h103c7 0 10 3 10 10v249c0 11 -9 15 -17 7l-57 -58c-5 -5 -9 -5 -14 0l-35 36c-5 5 -5 9 0 14l157 157c1 1 5 3 7 3h27c7 0 10 -3 10 -10v-398c0 -7 3 -10 10 -10h103c7 0 10 -3 10 -10v-49z" />
    <glyph glyph-name="two.oldstyle" unicode="&#xf732;" horiz-adv-x="513" 
d="M444 332c0 -105 -90 -122 -166 -152c-67 -26 -117 -41 -117 -93v-11c0 -5 3 -7 10 -7h259c6 0 10 -3 10 -8v-49c0 -6 -3 -12 -10 -12h-338c-6 0 -10 2 -10 8v60c0 107 82 140 156 168c78 30 130 39 130 98c0 48 -37 84 -99 84h-40c-34 0 -62 -20 -86 -56
c-2 -4 -7 -6 -12 -4l-52 26c-8 4 -8 10 -6 14c11 22 27 41 47 56c27 21 63 33 108 33h41c111 0 175 -62 175 -155z" />
    <glyph glyph-name="three.oldstyle" unicode="&#xf733;" horiz-adv-x="513" 
d="M433 13c0 -108 -70 -175 -178 -175h-30c-58 0 -97 17 -124 42c-15 14 -26 31 -35 48c-3 6 -1 10 5 13l52 27c6 3 10 1 13 -5c20 -37 55 -56 89 -56h30c53 0 99 44 99 98v36c0 53 -45 98 -99 98h-75c-7 0 -10 3 -10 10v48c0 7 3 10 10 10h75c54 0 99 44 99 99v14
c0 54 -45 98 -99 98h-30c-33 0 -68 -18 -89 -55c-3 -5 -7 -8 -13 -5l-53 27c-6 3 -7 8 -4 14c11 21 25 40 45 55c26 20 63 33 114 33h30c108 0 178 -69 178 -177v-14c0 -51 -42 -101 -79 -118c-4 -2 -3 -7 0 -10c34 -17 79 -69 79 -124v-31z" />
    <glyph glyph-name="four.oldstyle" unicode="&#xf734;" horiz-adv-x="513" 
d="M486 10c0 -7 -3 -10 -10 -10h-72c-7 0 -10 -3 -10 -10v-133c0 -7 -3 -10 -10 -10h-59c-7 0 -10 3 -10 10v133c0 7 -3 10 -10 10h-254c-7 0 -10 3 -10 10v64l267 398c2 2 5 4 8 4h68c7 0 10 -3 10 -10v-387c0 -7 3 -10 10 -10h72c7 0 10 -3 10 -10v-49zM319 383l-3 1
s-9 -24 -19 -40l-173 -259c-6 -9 -2 -16 8 -16h173c7 0 10 3 10 10v259c0 19 4 45 4 45z" />
    <glyph glyph-name="five.oldstyle" unicode="&#xf735;" horiz-adv-x="513" 
d="M443 12c0 -108 -69 -175 -177 -175h-31c-52 0 -89 14 -115 34c-19 16 -33 34 -43 55c-3 6 -2 11 4 14l52 27c6 3 11 1 14 -5c20 -37 54 -56 88 -56h31c53 0 98 44 98 98v36c0 53 -44 98 -98 98h-157c-7 0 -10 3 -10 10v318c0 7 3 10 10 10h314c7 0 10 -3 10 -10v-49
c0 -7 -3 -10 -10 -10h-235c-7 0 -10 -3 -10 -10v-181c0 -7 3 -10 10 -10h78c108 0 177 -66 177 -174v-20z" />
    <glyph glyph-name="six.oldstyle" unicode="&#xf736;" horiz-adv-x="513" 
d="M455 157c0 -98 -70 -167 -178 -167h-30c-108 0 -176 68 -176 167v316c0 98 68 167 176 167h30c49 0 85 -13 112 -32c21 -15 37 -35 48 -56c3 -6 1 -11 -5 -14l-52 -26c-5 -3 -10 -2 -13 4c-20 36 -52 55 -90 55h-30c-54 0 -98 -43 -98 -98v-144c0 -11 9 -15 17 -7
c27 30 60 43 92 43h30c93 0 167 -69 167 -167v-41zM376 157v41c0 53 -45 98 -99 98h-30c-54 0 -98 -44 -98 -98v-41c0 -53 44 -98 98 -98h30c54 0 99 44 99 98z" />
    <glyph glyph-name="seven.oldstyle" unicode="&#xf737;" horiz-adv-x="513" 
d="M441 364c0 -127 -84 -176 -153 -222c-57 -38 -102 -78 -102 -139v-147c0 -7 -3 -10 -10 -10h-59c-7 0 -10 3 -10 10v147c0 107 68 154 131 197c64 43 124 83 124 164v33c0 7 -3 10 -10 10h-255c-7 0 -10 3 -10 10v49c0 7 3 10 10 10h334c7 0 10 -3 10 -10v-102z" />
    <glyph glyph-name="eight.oldstyle" unicode="&#xf738;" horiz-adv-x="513" 
d="M448 165c0 -108 -69 -175 -177 -175h-31c-108 0 -177 67 -177 175v26c0 52 39 101 81 123c4 2 4 8 0 10c-34 17 -81 63 -81 119v20c0 108 69 177 177 177h31c108 0 177 -69 177 -177v-20c0 -51 -42 -100 -79 -118c-4 -2 -4 -8 0 -10c33 -18 79 -69 79 -124v-26zM369 453
v20c0 54 -44 98 -98 98h-31c-54 0 -98 -43 -98 -98v-20c0 -54 43 -99 98 -99h31c54 0 98 44 98 99zM369 157v31c0 53 -44 98 -98 98h-31c-54 0 -98 -44 -98 -98v-31c0 -53 43 -98 98 -98h31c53 0 98 44 98 98z" />
    <glyph glyph-name="nine.oldstyle" unicode="&#xf739;" horiz-adv-x="513" 
d="M439 5c0 -98 -70 -167 -178 -167h-30c-56 0 -93 16 -120 39c-16 15 -28 32 -38 51c-3 6 -2 10 4 13l53 27c6 3 10 1 13 -5c19 -37 50 -56 88 -56h30c53 0 99 44 99 98v109c0 11 -11 16 -18 7c-25 -31 -57 -44 -91 -44h-30c-93 0 -166 69 -166 167v76c0 98 68 167 176 167
h30c108 0 178 -68 178 -167v-315zM360 244v76c0 54 -45 98 -99 98h-30c-54 0 -98 -43 -98 -98v-76c0 -53 44 -99 98 -99h30c53 0 99 45 99 99z" />
    <glyph glyph-name="notequal" unicode="&#x2260;" horiz-adv-x="552" 
d="M466 162h-225l-58 -129h-54l58 129h-100v53h124l71 157h-195v53h219l59 130h54l-59 -130h106v-53h-130l-71 -157h201v-53z" />
    <glyph glyph-name="lessequal" unicode="&#x2264;" horiz-adv-x="552" 
d="M466 0h-379v53h379v-53zM466 133l-379 194v33l379 195v-59l-302 -151v-2l302 -151v-59z" />
    <glyph glyph-name="greaterequal" unicode="&#x2265;" horiz-adv-x="552" 
d="M466 0h-379v53h379v-53zM466 328l-379 -195v59l302 151v2l-302 151v59l379 -194v-33z" />
    <glyph glyph-name="approxequal" unicode="&#x2248;" horiz-adv-x="552" 
d="M479 418c-26 -42 -62 -77 -113 -77c-36 0 -69 13 -97 31c-25 16 -53 30 -80 30c-30 0 -60 -24 -81 -61l-34 37c25 41 60 77 115 77c35 0 65 -12 95 -31c28 -18 53 -30 80 -30c29 0 60 24 81 61zM479 208c-26 -42 -62 -77 -113 -77c-36 0 -69 13 -97 31
c-25 16 -53 30 -80 30c-30 0 -60 -24 -81 -61l-34 38c25 41 60 76 115 76c35 0 65 -11 95 -30c28 -19 53 -31 80 -31c29 0 60 24 81 62z" />
    <glyph glyph-name="infinity" unicode="&#x221e;" horiz-adv-x="783" 
d="M732 294c0 -91 -64 -165 -161 -165c-80 0 -143 50 -181 111h-2c-42 -62 -104 -111 -178 -111c-97 0 -164 66 -164 161c0 98 67 164 162 164c85 0 143 -55 180 -110h2c32 48 92 110 177 110c95 0 165 -64 165 -160zM664 293c0 55 -31 102 -99 102
c-62 0 -106 -43 -144 -103c37 -65 89 -104 143 -104c69 0 100 50 100 105zM357 292c-36 60 -91 103 -144 103c-68 0 -100 -49 -100 -105c0 -60 42 -102 100 -102c60 0 109 48 144 104z" />
    <glyph glyph-name="partialdiff" unicode="&#x2202;" horiz-adv-x="576" 
d="M530 485c0 -59 -9 -126 -25 -193c-38 -146 -130 -303 -279 -303c-106 0 -178 76 -178 189c0 196 134 320 263 320c70 0 116 -36 134 -73h2c3 21 5 42 5 70c0 112 -52 170 -139 170c-31 0 -67 -10 -95 -27c-7 19 -13 38 -20 56c25 16 76 33 126 33c124 0 206 -84 206 -242
zM437 351c-15 49 -53 87 -118 87c-101 0 -192 -116 -192 -263c0 -75 40 -122 101 -122c97 0 175 121 209 298z" />
    <glyph glyph-name="summation" unicode="&#x2211;" horiz-adv-x="631" 
d="M592 -230h-570v37c110 145 219 288 328 432c-102 139 -203 279 -305 418v43h522v-66h-418c96 -131 191 -262 287 -393l-306 -405h462v-66z" />
    <glyph glyph-name="product" unicode="&#x220f;" horiz-adv-x="719" 
d="M634 -230h-81v861h-387v-861h-81v930h549v-930z" />
    <glyph glyph-name="pi" unicode="&#x3c0;" horiz-adv-x="653" 
d="M590 62l15 -55c-16 -9 -40 -14 -68 -14c-86 0 -120 59 -120 133v312h-179v-302c0 -58 -5 -103 -14 -136h-81c11 39 16 91 16 140v298c-30 0 -75 -10 -101 -23c-8 19 -15 38 -23 56c27 14 79 29 143 29h425v-62h-107v-303c0 -49 17 -80 62 -80c11 0 22 3 32 7z" />
    <glyph glyph-name="integral" unicode="&#x222b;" horiz-adv-x="491" 
d="M409 676c-10 4 -28 9 -46 9c-54 0 -82 -36 -82 -99v-646c0 -104 -55 -167 -153 -167c-23 0 -56 5 -70 11c5 20 10 41 16 61c12 -5 26 -9 46 -9c54 0 82 35 82 99v646c0 102 54 168 154 168c26 0 58 -7 70 -13c-6 -20 -12 -40 -17 -60z" />
    <glyph glyph-name="Omega" unicode="&#x2126;" horiz-adv-x="710" 
d="M656 0h-230v66c60 53 146 144 146 310c0 152 -76 267 -218 267c-134 0 -224 -111 -224 -268c0 -161 83 -253 148 -309v-66h-230v66h153c-64 51 -154 150 -154 322c0 186 125 324 308 324c192 0 301 -134 301 -322c0 -156 -82 -265 -155 -324h155v-66z" />
    <glyph glyph-name="radical" unicode="&#x221a;" horiz-adv-x="513" 
d="M518 729l-192 -741h-66c-46 113 -92 227 -138 340l-54 -33c-9 16 -18 31 -27 46c39 24 79 48 118 72l132 -327c56 214 111 429 166 643h61z" />
    <glyph glyph-name="Delta" unicode="&#x2206;" horiz-adv-x="608" 
d="M598 0h-572v39c80 221 158 440 238 661h99c78 -221 157 -440 235 -661v-39zM503 67c-58 167 -117 333 -176 499c-8 24 -11 43 -15 57h-3c-3 -13 -9 -35 -15 -55l-177 -501h386z" />
    <glyph glyph-name="lozenge" unicode="&#x25ca;" horiz-adv-x="559" 
d="M498 350c-68 -117 -136 -233 -204 -350h-42c-67 116 -135 233 -203 349c68 117 136 234 203 351h42c68 -117 136 -233 204 -350zM431 350c-52 90 -105 180 -158 270c-52 -90 -105 -180 -157 -270c52 -91 104 -180 157 -271c53 91 105 180 158 271z" />
    <glyph glyph-name="litre" unicode="&#x2113;" horiz-adv-x="493" 
d="M406 53c-27 -28 -72 -66 -132 -66c-37 0 -64 11 -84 32c-24 25 -36 69 -36 119v110c-20 -21 -39 -42 -59 -64l-33 39c31 34 61 66 92 100v229c0 117 48 176 122 176c73 0 98 -61 98 -106c0 -96 -48 -179 -113 -263c-10 -12 -24 -32 -33 -41v-180c0 -66 27 -91 63 -91
c35 0 64 26 86 50c10 -15 19 -29 29 -44zM318 613c0 28 -11 55 -38 55c-32 0 -52 -30 -52 -111v-160c6 8 15 19 20 28c42 62 70 130 70 188z" />
    <glyph glyph-name="estimated" unicode="&#x212e;" horiz-adv-x="661" 
d="M615 292h-451v-201c43 -43 97 -65 160 -65c102 0 167 51 216 132c12 -7 24 -14 36 -22c-60 -90 -129 -148 -252 -148c-174 0 -285 136 -285 304c0 169 108 305 286 305c181 0 285 -136 290 -305zM486 330v163c-42 42 -100 67 -162 67s-117 -22 -160 -66v-164h322z" />
    <glyph glyph-name="uni00AD" unicode="&#xad;" horiz-adv-x="259" 
d="M215 194c0 -7 -3 -10 -10 -10h-151c-7 0 -10 3 -10 10v59c0 7 3 10 10 10h151c7 0 10 -3 10 -10v-59z" />
    <glyph glyph-name="uni02C9" unicode="&#x2c9;" horiz-adv-x="492" 
d="M357 548c0 -7 -3 -10 -10 -10h-202c-7 0 -10 3 -10 10v48c0 7 3 10 10 10h202c7 0 10 -3 10 -10v-48z" />
    <glyph glyph-name="uni03BC" unicode="&#x3bc;" horiz-adv-x="492" 
d="M420 10c0 -7 -3 -10 -10 -10h-48c-7 0 -10 3 -10 10v28c0 11 -11 16 -18 7c-26 -32 -60 -45 -91 -45c-32 0 -61 7 -86 18c-7 3 -12 0 -12 -7v-161c0 -7 -3 -10 -10 -10h-59c-7 0 -10 3 -10 10v586c0 7 3 10 10 10h59c7 0 10 -3 10 -10v-269c0 -53 44 -98 98 -98
s99 43 99 98v269c0 7 3 10 10 10h58c7 0 10 -3 10 -10v-426z" />
    <glyph glyph-name="uni2215" unicode="&#x2215;" horiz-adv-x="155" 
d="M234 616l-261 -610c-2 -4 -5 -6 -9 -6h-24c-9 0 -13 5 -9 14l261 610c2 4 5 6 9 6h24c9 0 13 -5 9 -14z" />
    <glyph glyph-name="uni2219" unicode="&#x2219;" 
d="M303 238c0 -29 -24 -52 -53 -52c-28 0 -51 23 -51 52c0 28 22 52 51 52s53 -22 53 -52z" />
    <glyph glyph-name="uni03A9" unicode="&#x3a9;" horiz-adv-x="710" 
d="M656 0h-230v66c60 53 146 144 146 310c0 152 -76 267 -218 267c-134 0 -224 -111 -224 -268c0 -161 83 -253 148 -309v-66h-230v66h153c-64 51 -154 150 -154 322c0 186 125 324 308 324c192 0 301 -134 301 -322c0 -156 -82 -265 -155 -324h155v-66z" />
    <glyph glyph-name="uni00A0" unicode="&#xa0;" 
 />
    </font>
</defs>
</svg>
